<svg xmlns="http://www.w3.org/2000/svg" viewBox="0 0 3134.03 1002.21"><defs><style>.a{fill:#4abad8;}.a,.b,.c,.d,.e,.f,.g,.h,.i,.j,.k,.l,.m,.n,.o{stroke:#ffe156;stroke-miterlimit:10;}.c{fill:#fff;}.d{fill:#5ddeff;}.e{fill:#e8003d;}.f{fill:#64aaff;}.g{fill:#fdff75;}.h{fill:#17ff0a;}.i{fill:#fff748;}.j{fill:#ffca41;}.k{fill:#ff48ed;}.l{fill:#c4ff82;}.m{fill:#fffa91;}.n{fill:#fb0035;}.o{fill:#e375ff;}</style></defs><rect class="a" x="0.53" y="0.5" width="3133" height="1001"/><path class="b" d="M3132.59,821.86c-14.94,1.53-29.86,3.28-44.82,4.6q-50,4.59-100.06,8.92l-138.15,12.24q-60.14,5.36-120.24,10.81-57,5.1-114.06,10.1-72.91,6.54-145.83,13.21c-37.75,3.38-75.53,6.61-113.27,10q-59.73,5.34-119.41,10.82-57,5.13-114.07,10.11Q2063,918,2003.27,923.49c-38,3.42-76,6.64-114,10.09-40,3.63-80.06,7.51-120.1,11.14-28.94,2.62-57.94,4.91-86.88,7.53-31.24,2.82-62.42,5.91-93.66,8.73-28.66,2.6-57.37,4.92-86,7.48-22.73,2-45.42,4.27-68.15,6.29-29.16,2.59-58.35,5-87.53,7.65-14.47,1.27-28.91,2.82-43.41,3.77-3.16.21-8.51-1-9.45-2.59-2.11-3.66,2.85-4.59,6.6-5.52a29.43,29.43,0,0,0,4-1.69,47.32,47.32,0,0,0,21.29-.87c-.15-.7-.29-1.39-.43-2.1l-20.68,3.25c-7.75-5.62-17.68-4.59-27.17-4.91-6.4-.25-12.86-.28-19.16-1-15.65-1.87-31.49-3.35-46.76-6.37-19.29-3.81-38.19-8.8-57.07-13.63a130.13,130.13,0,0,1-17.49-6.57c-.6-.26-.08-2-.08-3.25l-328.9,28.35c3.19-15.72,6.14-30.35,9.17-45q7.75-37.47,15.59-74.9,11-52.9,22.07-105.78c8.8-41.94,18.37-83.8,26-125.84,1.85-10.21,8-14.57,19.17-18.84q157.89-60.2,315.35-121.1a7.61,7.61,0,0,0,4-2.91c-15.16,1.32-30.33,2.56-45.47,4-30.22,2.86-60.41,5.89-90.64,8.75q-46.87,4.46-93.87,8.74-67.47,6.28-134.94,12.52c-46,4.35-92,8.91-138,13.24q-78.3,7.36-156.64,14.56c-46.26,4.36-92.48,8.95-138.72,13.31-43.93,4.15-87.9,8.08-131.82,12.25-46,4.33-92,8.86-138,13.19Q85.28,581.73,19,587.71c-6.1.55-12.29.62-18.43.91V232.42l69-6.29q67.48-6.25,135-12.54c37.47-3.52,74.91-7.24,112.39-10.71q67.07-6.31,134.16-12.51,81-7.65,162.06-15.45,66.32-6.28,132.64-12.36Q814.41,156.1,883,149.49c53.25-5,106.55-9.76,159.8-14.78,45.49-4.29,91-8.85,136.43-13.15q78.72-7.44,157.48-14.66,68.67-6.48,137.29-13.09,66.72-6.25,133.45-12.4,69-6.5,138.06-13.13,79.1-7.45,158.2-14.83c45.76-4.33,91.48-8.88,137.23-13.21,44-4.16,87.93-8.12,131.87-12.24q69-6.49,138-13.16,69.75-6.63,139.53-13.18a27.73,27.73,0,0,1,4,.33c-1.51,7.79-2.9,15.31-4.47,22.89q-13.93,67.25-28,134.47c-8.74,41.77-17.64,83.52-26.4,125.28-5.36,25.54-10.48,51.13-16.07,76.65-.48,2.15-3.19,4.8-5.85,5.83Q2195.23,436,2016.69,504.47a23.77,23.77,0,0,0-2.71,1.69c15.79-1.41,30.37-2.73,45-4q58.62-5.06,117.24-10.07,60.93-5.33,121.83-10.84c38.82-3.4,77.66-6.63,116.48-10,40.62-3.56,81.2-7.29,121.82-10.84,39.07-3.41,78.17-6.63,117.24-10.06,40.36-3.53,80.68-7.27,121-10.8,39.07-3.42,78.18-6.65,117.25-10.06q60.95-5.33,121.84-10.86,55.11-4.9,110.23-9.69c2.82-.25,5.71,0,8.57,0V766.32c-4.17.14-8.36.09-12.49.46-29,2.57-57.93,5.29-86.92,7.82q-75.72,6.58-151.45,13c-47.88,4.18-95.73,8.57-143.6,12.78-40.38,3.55-80.79,6.89-121.16,10.42q-71.82,6.33-143.61,12.77-60.56,5.29-121.14,10.45c-38.82,3.41-77.61,7-116.42,10.41q-60.94,5.32-121.88,10.51c-38.54,3.4-77,7-115.58,10.4-32.07,2.83-64.17,5.45-96.23,8.26-34.1,3.06-68.23,5.91-102.26,9.31-6.48.64-13,.53-19.16,4.77-24.44,17-54.89,27.25-84.63,37.9-22.85,8.17-46.88,14.54-70.4,21.7a21.2,21.2,0,0,1-3.71.8q-13.42,1.53-26.85,2.92c15.37-.3,30.55-1.7,45.74-3.06q47.68-4.12,95.39-8.19c29.72-2.62,59.41-5.4,89.14-8,31.54-2.78,63.1-5.37,94.62-8.19,37.48-3.35,74.92-6.93,112.39-10.27,40.61-3.61,81.26-7,121.86-10.6,37-3.31,73.91-6.88,110.87-10.18,32.07-2.88,64.18-5.48,96.25-8.34q69.45-6.12,138.86-12.58c40.36-3.6,80.74-7,121.08-10.61q69.84-6.24,139.62-12.67c40.1-3.6,80.24-7,120.33-10.56q69-6.21,138-12.59,56.64-5.13,113.3-10.14ZM2179,777.7q-.24-3-.66-6.05c-6-33.12-11.86-66.24-18-99.35-.6-3.25.94-4.59,4.56-6.28,6.18-2.78,12.56-5.78,17.43-9.69,26.08-20.81,33.69-46.1,29.92-73.47-1.69-12.24-12.2-20.43-28-24-8.63-2-18-4-26.75-3.44-35.84,2-71.59,5-107.32,7.9-1.91.48-3.57,2.26-4.51,4.84q-22.8,99.36-45.2,198.8c-2,9-3.92,18.09-6,27.92,19.56-1.79,37.91-3.35,56.16-5.37,1.89-.52,3.53-2.34,4.44-5,7.44-32,14.58-64,22-95.94.42-1.81,2.62-4.45,4.58-4.79,7-1.18,14.33-1.53,22.54-2.3,2.54,17.28,5,34.12,7.5,50.94s5.21,33.95,7.85,51.08c19.33-1.71,37.44-3.32,55.55-5C2176.09,778.42,2177.08,778.1,2179,777.7ZM1486.81,665.29l-1.15-.17c-.24-3.66-.29-7.35-.76-11-2.74-21.3-17.64-33.23-46.36-35.63a208.38,208.38,0,0,0-35.06.46c-42,3.66-75.73,17-94.25,46.64-5.22,8.34-9.65,17.25-12,26.25-7.48,29.22-13.83,58.59-20.58,87.91-3.3,14.31-6.33,28.57-3.25,43.21,4.1,19.42,18.83,30.61,45.14,32.66a234.94,234.94,0,0,0,31.17,0c56.64-3.53,95-26.85,108.43-67.64,7.55-23,11.95-46.64,17.39-70C1479.64,700.39,1483.09,682.81,1486.81,665.29Zm3.36-434.5c18.26-1.64,35.8-3.06,53.28-4.88,1.67-.17,4.2-1.9,4.37-3.06,2.21-14.75,5.84-29.53,5.52-44.27-.39-17.13-13.31-27.69-36.07-31.07a167.47,167.47,0,0,0-36.49-.86C1435,150,1399.11,164.73,1381,197.79a106.48,106.48,0,0,0-10.23,24.87c-6.79,27-13.27,54-18.68,81.13-2.92,14.63-5.28,29.57-4.54,44.3,1,20.6,16.32,32.54,43.71,35.46,31.41,3.34,61.47-.92,88.7-13.27,22.46-10.19,35.58-26,42.73-44.28,5-12.83,7.91-26,12-39.92-19.2,1.68-36.24,3.23-53.3,4.59-4.23.34-5.39,1.9-6.08,4.81-2.78,11.78-5.43,23.61-9.23,35.2-2.93,9-9.67,16.5-22.28,19.52-25.27,6-41.25,1.79-37.35-20.42,4.57-26,10.61-51.92,16.54-77.82,4-17.3,7.78-34.7,13.58-51.69,5.3-15.52,21.32-23.05,42.77-22.49,11.72.32,17.82,4.78,18,13.4a35.3,35.3,0,0,1-.74,7.51C1494.51,209.15,1492.41,219.58,1490.17,230.79Zm159.25,129.94c18.49-1.62,35.57-3.06,52.56-4.82a8.85,8.85,0,0,0,5.67-4.49c5.91-12,12.61-23.85,16.67-36.18,3.67-11.15,10.59-16.63,26.67-16.52,12,.09,24-1.79,37.54-2.92v52.39c16.63-1.53,31.81-3.24,47.07-4.12,7.22-.39,9-2.14,8.63-7.34-4.54-70.89-8.78-141.77-13.14-212.66a55.24,55.24,0,0,0-1.17-6.38c-18.63,1.68-36.43,3.41-54.28,4.82-5.61.44-8.35,2.13-10.35,6.12-25.61,51.69-51.53,103.29-77.35,154.92-12.65,25.38-25.29,50.73-38.5,77.16ZM816.51,362c-16.88,3.92-33.52,7.65-50,11.78-1.64.42-3.21,2.91-3.28,4.49-.34,7.33-.86,14.71,0,22,2.37,19.89,17.3,33,41.89,36.13,40.27,5.12,89.58-5.46,115.21-37.71,18.14-22.84,22.8-47.16,1.74-70.6-7.65-8.51-18.67-15.49-28.93-22.54-12.42-8.53-26.66-15.69-38.33-24.71-21-16.19-8.62-43.58,20.91-48.2,16.61-2.59,25.8,2.39,26.77,14.91.48,6.32.08,12.67.08,19.59,9-2,17.7-3.84,26.36-5.78,29.06-6.55,29.33-6.89,25.15-29.33-3.87-20.79-20-31.76-48.15-32.24a174.55,174.55,0,0,0-27.21,1.46c-44.64,6.33-76.45,23.86-88.28,57.72-7.56,21.64-4.47,41.51,20.27,57,4.58,2.86,9.31,5.61,13.87,8.49,13.31,8.39,27.23,16.32,39.67,25.36,16,11.67,16.61,33,2.54,45.8-7.67,6.95-22.94,10.79-33.93,8.18C820.68,400.83,817.63,393,816.7,385,815.84,377.73,816.51,370.37,816.51,362ZM956,423.5c19.09-1.73,36.62-3.49,54.2-4.84,5.09-.38,6.19-2.14,6.92-5.43,6.92-31.24,14.18-62.45,21-93.69.83-3.8,2.88-5.21,7.75-5.56,9.86-.7,19.73-1.53,29.5-2.63,34.46-4.09,63.9-14.53,81.75-38,13.55-17.82,18.28-37.36,16-57.63-2.11-19.06-16.23-29.71-41.94-32.42a114.27,114.27,0,0,0-21-.49c-31.86,2.63-63.65,5.73-95.49,8.45-5,.43-6.83,1.73-7.68,5.53C993.71,256.23,980.17,315.62,966.73,375c-3.54,15.77-7,31.54-10.79,48.48Zm399.14-262.65c-2.34,0-3.6-.09-4.83,0q-59.79,5.46-119.54,10.92c-15.21,1.39-12.48-1-15.2,11q-20,88.27-39.84,176.63c-3.33,14.77-6.6,29.55-10,44.94,3.74-.23,6.54-.36,9.32-.6,37-3.32,74-6.77,111-10,17.89-1.53,17.9-1.38,20.64-14.89,1.06-5.19,2.21-10.37,3.42-16l-77.1,6.82a13.06,13.06,0,0,1-.15-2.86c5.23-23.43,10.4-46.87,16-70.26.34-1.41,4.13-3.14,6.56-3.38,14.45-1.53,28.94-3,43.49-3.8,8.43-.47,13-2.37,13.58-9.18.61-7.15,2.78-14.22,4.36-21.74l-60.17,5.16c.16-1.72.38-3.42.67-5.1,4-17.71,8.33-35.38,11.7-53.16,1.15-6.12,4.37-8.22,12.5-8.78,20.5-1.41,40.9-3.64,61.36-5.37,4-.34,5.84-1.2,6.43-4.38C1350.84,178.27,1353,169.93,1355.09,160.85Zm557.28,508.69c4.73-20.85,9.5-40.77,13.61-60.78,1-4.7,3.72-5.82,9.48-6.28,23-1.82,46-4,69.21-6.12l6.59-29.53c-2.1,0-3.12-.09-4.11,0l-127.31,11.42c-4.54.4-5.9,1.92-6.62,5.09q-22.38,99.69-45,199.35c-2,9-3.91,18.06-6,27.55,45.25-4,89.21-7.94,133.15-12,1.79-.16,4.65-1.2,4.9-2.13,2.34-9,4.24-18,6.38-27.55l-77.48,6.89a17.49,17.49,0,0,1,0-3.07c5.2-23.22,10.33-46.47,15.94-69.64.38-1.53,4.38-3.44,7-3.72,16.5-1.79,33.1-3.06,49.62-4.78,2-.21,5.07-1.63,5.39-2.83,2.38-8.8,4.18-17.69,6.33-27.27Zm-330.86,30.17a22.18,22.18,0,0,1,.21-3.27c4.14-18.48,8.27-37,12.51-55.41,2-8.59,2.09-8.47,13.8-9.43q28.37-2.36,56.68-5.1c2.34-.23,6-1.67,6.36-3,2.42-8.64,4.11-17.38,6.15-26.55-2,0-3.29-.09-4.51,0-40.36,3.69-80.69,7.57-121.09,10.93-7.13.6-9.32,2.44-10.45,7.5-14.65,65.91-29.67,131.79-44.56,197.67-2,8.85-3.79,17.71-5.79,27.08,19-1.65,36.5-3.27,54.09-4.68,4.57-.37,5.77-2,6.46-5.16,7-31.62,14.33-63.22,21.29-94.9.93-4.24,2.65-6.22,9-6.63,17.35-1.16,34.61-3.06,52.22-4.59l6.63-29.64ZM1843,581.5c-44.34,4-87,7.75-129.67,11.82-2.17.21-5.11,3-5.57,4.83-3.74,15-6.94,30.07-10.35,45.11q-19.9,88-39.79,176a40.11,40.11,0,0,0-.49,5.71c18.66-1.64,36.24-3.28,53.85-4.67,4.82-.37,5.58-2.36,6.24-5.33,7.08-31.82,14.47-63.6,21.4-95.43.9-4.14,3.11-5.41,8.37-5.8,15.82-1.18,31.6-2.68,47.37-4.21,2-.2,5.18-1.2,5.44-2.18,2.45-9.18,4.39-18.37,6.58-28l-59.74,5.22c4.84-21.43,9.65-41.7,13.9-62.1.81-3.89,2.83-5.11,7.7-5.52q30.3-2.52,60.55-5.48c2.91-.3,7.6-1.54,8-3.07,2.54-8.57,4.11-17.34,6.18-26.89Zm145.39-478.09C1970.93,105,1955,107,1939,107.72c-8.72.39-11,3-12.33,8.76-14.2,64-28.74,128-43.16,192-2.34,10.36-4.59,20.74-7,31.76,45.47-4.09,89.68-8.05,133.86-12.11,1.51-.14,3.9-1.12,4.12-2,2.36-9,4.36-18,6.61-27.64l-78.27,7ZM1557.08,369c18.81-1.65,36.12-3.24,53.47-4.59,4.45-.35,5.82-1.87,6.54-5.08q19.92-89.19,40.21-178.31c3.61-15.94,7.19-31.89,11-48.62-16.36,1.44-31.83,2.71-47.26,4.2-12,1.15-11.84,1.3-13.81,10.05q-20,88.86-40.09,177.73C1563.81,339,1560.51,353.6,1557.08,369Z"/><path class="b" d="M.5,175.55q79.1-7.43,158.2-14.82l132.65-12.25q70.17-6.47,140.3-13.16c36.18-3.38,72.39-6.6,108.57-10q57-5.31,114-10.72,67.44-6.3,134.92-12.43,57-5.29,114-10.71,67.47-6.31,135-12.49,69-6.44,138-13,67.86-6.35,135.75-12.55,69-6.45,138-13,67.5-6.3,135-12.49,82.59-7.74,165.16-15.64c8-.75,16-1.73,24.06-2,2.55-.08,5.21,1.81,7.82,2.79-2.18,1.53-4.14,4-6.59,4.28-13.1,1.62-26.31,2.74-39.49,4q-48.06,4.5-96.13,8.93-54.29,5-108.57,9.91-69.78,6.52-139.56,13.2-67.08,6.27-134.19,12.38Q1188,72.26,1118.61,78.87c-45,4.19-90,8.2-135,12.4q-69,6.45-138,13.09-67.47,6.28-135,12.44-70.15,6.56-140.3,13.27c-36.18,3.38-72.4,6.57-108.59,9.93-38.24,3.57-76.45,7.32-114.7,10.89-36.43,3.4-72.9,6.6-109.34,10q-57,5.31-113.92,10.84-58.5,5.55-117,11a42,42,0,0,1-6.23-.11Z"/><path class="b" d="M502.51,90.15l-5.74-3.06c2.43-1.53,4.67-4.16,7.33-4.42,38.48-3.75,77-7.12,115.54-10.72q69.78-6.51,139.53-13.15,67.47-6.27,135-12.38C941.46,42,988.72,37.4,1036,33c44.19-4.12,88.42-8,132.62-12.09q45.33-4.19,90.66-8.63c4-.4,8.68-.95,9.22,2.9.17,1.24-4.44,3.86-7.19,4.17-21.89,2.4-43.85,4.47-65.8,6.52q-47.67,4.46-95.35,8.75-67.89,6.23-135.66,12.48c-38,3.53-75.92,7.24-113.9,10.71-37,3.43-73.93,6.68-110.88,10.12Q670,74.47,600.25,81.15C568.42,84.15,536.62,87,502.51,90.15Z"/><path class="b" d="M3043.16,366.71c1.13.59,5.22,1.53,5.72,3.2,1.13,3.6-3.14,4-7,4.37q-62.41,5.72-124.81,11.57c-38.49,3.62-77,7.39-115.45,11q-67,6.21-134.13,12.25c-38,3.52-75.93,7.21-113.91,10.71Q2497.75,425,2441.93,430c-13.18,1.22-26.32,2.6-39.48,3.93-4,.41-8.76,1.09-8.91-3.06-.06-1.38,4.5-3.83,7.28-4.13,21.63-2.38,43.35-4.38,65-6.42q48-4.5,96.12-8.88l109.34-10c37.72-3.49,75.41-7.15,113.13-10.71,37.47-3.49,75-6.82,112.41-10.32q70.53-6.62,141-13.41Z"/><path class="b" d="M1643.43,1001.68c-1.09-.9-4.54-3.06-4.16-3.53a11.2,11.2,0,0,1,6.45-4.47c17.24-1.9,34.57-3.35,51.88-4.88q36-3.21,72.09-6.31,57.39-5,114.78-10.12c31-2.78,62-5.77,93-8.54,37.75-3.38,75.52-6.61,113.27-10,31.28-2.81,62.54-5.79,93.82-8.59,37.49-3.37,75-6.57,112.49-9.94q59.74-5.34,119.46-10.88l35.73-3.06c3.54-.28,8.39-.77,8,3.21-.15,1.53-4.35,3.71-7,3.95-53.26,4.92-106.57,9.54-159.84,14.35-48.87,4.4-97.71,9-146.58,13.44-45.5,4.11-91,8-136.56,12.1-48.86,4.43-97.69,9.06-146.56,13.46Q1795.09,988,1726.45,994q-39.17,3.46-78.3,7.08C1647.17,1001.18,1646.15,1001.33,1643.43,1001.68Z"/><path class="b" d="M80.87,631.69l-4.42-3.2c1.89-1.41,3.59-3.84,5.72-4.07,22.42-2.45,44.89-4.59,67.38-6.71q48.06-4.47,96.17-8.77L384.6,596.42c38-3.5,76-7.3,114-10.82,45.24-4.19,90.52-8.17,135.76-12.35q70.53-6.51,141.07-13.23,58.53-5.46,117.08-10.71c2.53-.23,5.41,1.83,8.14,2.83-2.2,1.53-4.19,4.06-6.62,4.3-27.09,2.82-54.24,5.3-81.38,7.81q-48.09,4.43-96.19,8.78-68.25,6.13-136.5,12.43-96.94,9-193.87,18c-44.47,4.11-89,8-133.42,12.14q-71,6.57-141.86,13.33C101.51,629.84,92.16,630.66,80.87,631.69Z"/><path class="c" d="M1304.78,976.67l20.73-3.24c.14.7.28,1.39.43,2.1a47.47,47.47,0,0,1-21.29.87Z"/><path class="d" d="M2179,777.7c-1.89.4-2.88.72-3.89.81-18.11,1.64-36.22,3.25-55.55,5-2.64-17.13-5.3-34.09-7.85-51.08s-5-33.67-7.5-50.94c-8.21.77-15.5,1.12-22.54,2.3-2,.33-4.16,3.06-4.58,4.79-7.45,32-14.59,64-22,95.94-.91,2.61-2.55,4.43-4.44,4.95-18.25,2-36.6,3.58-56.16,5.37,2.12-9.83,4-18.89,6-27.92q22.5-99.49,45.2-198.81c.94-2.57,2.6-4.35,4.51-4.83,35.73-2.93,71.48-5.87,107.32-7.9,8.77-.51,18.12,1.53,26.75,3.44,15.79,3.58,26.3,11.76,28,24,3.77,27.43-3.84,52.72-29.92,73.47-4.87,3.91-11.25,6.91-17.43,9.69-3.62,1.64-5.16,3.06-4.56,6.28,6.12,33.11,12,66.23,18,99.35Q2178.75,774.62,2179,777.7Zm-95.09-120.08c14.06-2.37,26.64-3.45,38-6.78,8-2.36,16.14-6.86,21.22-12,11.27-11.46,14.36-25.12,12.62-39.12-1.18-9.51-7.54-14.13-20.22-14.39-10.61-.21-21.3.73-31.89,1.53-1.71.14-4,2.24-4.49,3.69-1.74,5.83-2.85,11.77-4.18,17.66C2091.41,624,2087.88,639.79,2083.88,657.62Z"/><path class="e" d="M1486.81,665.29c-3.72,17.52-7.17,35.1-11.24,52.59-5.44,23.41-9.84,47-17.39,70-13.38,40.79-51.79,64.1-108.43,67.64a222.09,222.09,0,0,1-31.17,0c-26.31-2-41-13.24-45.14-32.67-3.08-14.63,0-28.9,3.25-43.21,6.75-29.31,13.1-58.69,20.58-87.91,2.31-9,6.74-17.91,12-26.25,18.48-29.54,52.24-42.89,94.24-46.59a208.38,208.38,0,0,1,35.06-.46c28.72,2.4,43.62,14.33,46.36,35.63.47,3.66.52,7.35.76,11ZM1331.58,801.2c-.31,15.69,3.89,21,14.79,22.77,18.22,2.9,38.41-4.33,46.22-17a48.84,48.84,0,0,0,6.24-14.26q12.14-51.62,23.53-103.31a118,118,0,0,0,3.06-27.55c-.17-7.82-6-11.21-16.43-12.12-21.06-1.84-38.26,5.61-45.84,20.22a57,57,0,0,0-5,13.36c-5.82,24.7-11.41,49.46-17,74.21C1337.63,773.29,1334.23,789.1,1331.58,801.2Z"/><path class="f" d="M1490.17,230.79c2.24-11.19,4.38-21.63,6.39-32.07a35.3,35.3,0,0,0,.74-7.51c-.2-8.62-6.3-13.08-18-13.4-21.45-.56-37.47,7-42.77,22.49-5.8,17-9.62,34.39-13.58,51.69-5.93,25.9-12,51.8-16.54,77.82-3.9,22.19,12.1,26.49,37.33,20.37,12.61-3.06,19.35-10.54,22.28-19.51,3.8-11.62,6.45-23.45,9.23-35.21.69-2.91,1.85-4.47,6.08-4.81,17.06-1.37,34.1-2.92,53.3-4.59-4.06,13.78-7,27.1-12,39.92-7.15,18.37-20.27,34.09-42.73,44.28-27.23,12.36-57.29,16.61-88.7,13.28-27.39-2.93-42.68-14.87-43.71-35.47-.74-14.73,1.62-29.66,4.54-44.3,5.41-27.12,11.89-54.14,18.68-81.12a107.26,107.26,0,0,1,10.23-24.88c18.14-33.06,54-47.77,99.81-51.14a168.09,168.09,0,0,1,36.49.86c22.76,3.38,35.68,13.94,36.07,31.07.32,14.74-3.31,29.53-5.52,44.27-.17,1.15-2.7,2.88-4.37,3.06C1526,227.73,1508.43,229.14,1490.17,230.79Z"/><path class="g" d="M1649.42,360.71c13.21-26.43,25.85-51.78,38.52-77.11,25.82-51.63,51.74-103.23,77.35-154.92,2-4,4.74-5.73,10.35-6.12,17.85-1.41,35.65-3.14,54.28-4.83a55.41,55.41,0,0,1,1.17,6.39c4.36,70.88,8.6,141.77,13.14,212.65.33,5.21-1.41,7-8.63,7.35-15.26.87-30.44,2.62-47.07,4.12V295.78c-13.49,1.13-25.53,3.06-37.54,2.93-16.08-.11-23,5.37-26.67,16.51-4.06,12.34-10.76,24.2-16.67,36.19a8.8,8.8,0,0,1-5.67,4.48C1685,357.73,1667.91,359.09,1649.42,360.71Zm137.11-92V179.73l-1.28-.14-41.45,92.9Z"/><path class="h" d="M816.51,362c0,8.4-.66,15.75.18,23,.93,8.1,4,15.86,16.16,18.78,11,2.62,26.26-1.22,33.93-8.17,14.07-12.77,13.5-34.14-2.54-45.8-12.44-9.05-26.36-17-39.67-25.36-4.56-2.88-9.29-5.64-13.87-8.5-24.74-15.48-27.83-35.34-20.27-57,11.83-33.86,43.64-51.38,88.28-57.72a174.54,174.54,0,0,1,27.21-1.45c28.19.47,44.28,11.45,48.15,32.23,4.18,22.44,3.91,22.78-25.15,29.33-8.66,1.94-17.35,3.81-26.36,5.79,0-6.92.4-13.27-.08-19.6-1-12.52-10.16-17.49-26.77-14.9-29.53,4.59-41.88,32-20.91,48.2,11.67,9,25.91,16.18,38.33,24.7,10.26,7.06,21.28,14,28.93,22.55,21.06,23.43,16.4,47.76-1.74,70.59-25.63,32.25-74.94,42.86-115.21,37.72-24.59-3.06-39.52-16.23-41.89-36.14-.86-7.29-.34-14.66,0-22,.07-1.53,1.64-4.07,3.28-4.48C783,369.65,799.62,365.89,816.51,362Z"/><path class="h" d="M2266.9,701c0,8.41-.66,15.75.18,23,.93,8.1,4,15.86,16.16,18.79,11,2.61,26.26-1.23,33.93-8.18,14.07-12.76,13.5-34.13-2.54-45.8-12.44-9-26.36-17-39.67-25.36-4.56-2.88-9.29-5.63-13.87-8.5-24.74-15.47-27.83-35.34-20.27-57,11.83-33.86,43.64-51.39,88.28-57.72a174.62,174.62,0,0,1,27.21-1.46c28.19.48,44.28,11.45,48.15,32.24,4.18,22.44,3.91,22.77-25.15,29.33-8.66,1.94-17.35,3.81-26.36,5.78,0-6.92.4-13.27-.08-19.59-1-12.52-10.16-17.5-26.77-14.91-29.53,4.59-41.88,32-20.91,48.2,11.67,9,25.91,16.18,38.33,24.71,10.26,7,21.28,14,28.93,22.54,21.06,23.44,16.4,47.76-1.74,70.6-25.63,32.25-74.94,42.86-115.21,37.71-24.59-3.06-39.52-16.22-41.89-36.14-.86-7.28-.34-14.66,0-22,.07-1.53,1.64-4.07,3.28-4.49C2233.37,708.66,2250,704.89,2266.9,701Z"/><path class="i" d="M955.94,423.47c3.78-16.94,7.25-32.71,10.81-48.48,13.44-59.4,27-118.79,40.23-178.21.85-3.8,2.65-5.1,7.68-5.53,31.84-2.72,63.63-5.81,95.49-8.45a114.27,114.27,0,0,1,21,.49c25.71,2.71,39.83,13.37,41.94,32.42,2.25,20.27-2.48,39.8-16,57.63-17.85,23.45-47.29,33.89-81.75,38-9.77,1.16-19.64,1.93-29.5,2.63-4.87.35-6.92,1.76-7.75,5.56-6.85,31.24-14.11,62.45-21,93.69-.73,3.29-1.83,5.05-6.92,5.43C992.56,420,975,421.74,955.94,423.47Zm90-138c14.34-2.11,26.92-3.52,39.16-5.88,10.87-2.11,18.56-7.56,23-15.3a69.41,69.41,0,0,0,9.19-36.13c-.12-9.32-6.35-14-19-14-10.62,0-21.22,1.35-31.86,1.84-4.34.2-5.51,1.64-6.08,4.59-1.58,8.2-3.73,16.35-5.57,24.49-2.8,12.92-5.61,25.81-8.82,40.38Z"/><path class="j" d="M1355.09,160.85c-2.09,9.08-4.25,17.42-5.8,25.83-.59,3.18-2.46,4-6.43,4.37-20.46,1.73-40.86,4-61.36,5.38-8.13.56-11.35,2.67-12.5,8.78-3.37,17.77-7.75,35.45-11.7,53.16-.29,1.68-.51,3.38-.67,5.1l60.17-5.13c-1.58,7.52-3.75,14.59-4.36,21.74-.58,6.87-5.15,8.77-13.58,9.18-14.55.81-29,2.27-43.49,3.8-2.43.24-6.22,2-6.56,3.38-5.61,23.39-10.78,46.82-16,70.26a12.9,12.9,0,0,0,.15,2.86l77.1-6.83c-1.21,5.65-2.36,10.83-3.42,16-2.74,13.52-2.75,13.34-20.64,14.9-37,3.21-74,6.66-111,10-2.78.24-5.58.37-9.32.6,3.44-15.39,6.71-30.17,10-45q19.89-88.23,39.83-176.51c2.72-12,0-9.59,15.2-11q59.76-5.42,119.54-10.91C1351.51,160.76,1352.75,160.85,1355.09,160.85Z"/><path class="k" d="M1912.37,669.54l61.08-5.39c-2.15,9.59-4,18.48-6.33,27.28-.32,1.2-3.39,2.62-5.39,2.83-16.52,1.69-33.12,3.06-49.62,4.78-2.6.27-6.6,2.17-7,3.72-5.61,23.17-10.74,46.42-15.94,69.64a17.49,17.49,0,0,0,0,3.07l77.48-6.89c-2.14,9.56-4,18.6-6.38,27.55-.25.93-3.11,2-4.9,2.13-43.94,4-87.9,7.91-133.15,12,2.06-9.53,3.93-18.58,6-27.55q22.54-99.67,45-199.36c.72-3.16,2.08-4.68,6.62-5.08q63.67-5.6,127.31-11.45c1-.09,2,0,4.11,0l-6.59,29.53c-23.25,2.11-46.2,4.33-69.21,6.12-5.76.46-8.52,1.53-9.48,6.28C1921.87,628.77,1917.1,648.66,1912.37,669.54Z"/><path class="l" d="M1581.51,699.71l59-5.2-6.6,29.72c-17.61,1.63-34.87,3.49-52.22,4.6-6.37.41-8.09,2.38-9,6.62-7,31.63-14.29,63.22-21.29,94.91-.69,3.06-1.89,4.79-6.46,5.15-17.59,1.41-35.14,3.07-54.09,4.69,2-9.37,3.79-18.23,5.79-27.08,14.89-65.82,29.91-131.76,44.56-197.67,1.13-5.07,3.32-6.9,10.45-7.5,40.4-3.37,80.73-7.24,121.09-10.93,1.22-.11,2.48,0,4.51,0-2,9.18-3.73,17.91-6.15,26.54-.37,1.29-4,2.73-6.36,3q-28.32,2.79-56.68,5.09c-11.71,1-11.83.84-13.8,9.43-4.24,18.46-8.37,36.94-12.51,55.41A22.15,22.15,0,0,0,1581.51,699.71Z"/><path class="m" d="M1842.93,581.74c-2.07,9.55-3.64,18.37-6.19,26.91-.42,1.41-5.11,2.71-8,3.06q-30.24,3.06-60.55,5.48c-4.87.42-6.89,1.64-7.7,5.53-4.25,20.4-9.06,40.75-13.9,62.1l59.74-5.22c-2.19,9.69-4.13,18.9-6.58,28-.26,1-3.46,2-5.44,2.17-15.77,1.54-31.55,3.07-47.37,4.21-5.26.4-7.47,1.67-8.37,5.81-6.93,31.83-14.32,63.61-21.4,95.43-.66,3-1.42,5-6.24,5.33-17.61,1.39-35.19,3.06-53.85,4.67a40,40,0,0,1,.49-5.71q19.85-88,39.79-176c3.41-15,6.61-30.11,10.35-45.11.46-1.87,3.4-4.59,5.57-4.83C1755.9,589.49,1798.59,585.72,1842.93,581.74Z"/><path class="n" d="M1988.32,103.41l-45.58,202,78.27-7c-2.25,9.64-4.25,18.67-6.61,27.64-.22.84-2.61,1.82-4.12,2-44.18,4.06-88.39,8-133.86,12.11,2.43-11,4.68-21.43,7-31.76,14.42-64,29-128,43.16-192,1.28-5.79,3.61-8.38,12.33-8.76C1955,107,1970.9,105,1988.32,103.41Z"/><path class="o" d="M1557.08,369c3.47-15.44,6.73-30.06,10-44.68q20.06-88.87,40.09-177.73c2-8.75,1.79-8.91,13.81-10,15.43-1.53,30.9-2.76,47.26-4.2-3.77,16.73-7.35,32.68-11,48.62q-20.1,89.13-40.15,178.37c-.72,3.21-2.09,4.73-6.54,5.08C1593.2,365.8,1575.89,367.39,1557.08,369Z"/><path class="b" d="M2083.88,657.62c4-17.83,7.53-33.68,11.07-49.4,1.33-5.89,2.44-11.83,4.18-17.66a6.53,6.53,0,0,1,4.49-3.69c10.59-.83,21.28-1.77,31.89-1.53,12.68.26,19,4.88,20.22,14.39,1.74,14-1.35,27.66-12.62,39.12-5.08,5.16-13.19,9.66-21.22,12C2110.51,654.17,2097.94,655.25,2083.88,657.62Z"/><path class="b" d="M1331.58,801.2c2.65-12.1,6-27.91,9.61-43.69,5.58-24.75,11.17-49.5,17-74.21a57.19,57.19,0,0,1,5-13.36c7.58-14.6,24.78-22.06,45.84-20.22,10.43.92,16.26,4.3,16.43,12.12a118.1,118.1,0,0,1-3.06,27.56c-7.5,34.47-15.44,68.88-23.53,103.3a48.91,48.91,0,0,1-6.24,14.27c-7.81,12.66-28,19.9-46.22,17C1335.51,822.24,1331.27,816.89,1331.58,801.2Z"/><path class="b" d="M1786.53,268.67l-42.73,3.82,41.45-92.9,1.28.14Z"/><path class="b" d="M1046,285.47c3.21-14.58,6-27.47,8.9-40.35,1.84-8.18,4-16.32,5.57-24.49.57-3,1.74-4.41,6.08-4.6,10.64-.49,21.24-1.83,31.86-1.83,12.61,0,18.84,4.67,19,14a69.35,69.35,0,0,1-9.19,36.12c-4.46,7.76-12.15,13.21-23,15.31C1072.88,281.94,1060.3,283.35,1046,285.47Z"/></svg>