<svg xmlns="http://www.w3.org/2000/svg" viewBox="0 0 3132.32 653.36"><defs><style>.a,.aa,.ab,.ac,.b,.c,.d,.e,.f,.g,.h,.i,.j,.k,.l,.m,.n,.o,.p,.q,.r,.s,.t,.u,.v,.w,.x,.y,.z{stroke:#ffe156;stroke-miterlimit:10;}.a,.b,.c,.d,.e,.f,.g,.h,.i,.j,.k,.l,.m,.n,.o{stroke-width:18px;}.b,.q{fill:#fff;}.c,.r{fill:#5ddeff;}.d,.s{fill:#e8003d;}.e,.t{fill:#64aaff;}.f,.u{fill:#fdff75;}.g,.v{fill:#17ff0a;}.h,.w{fill:#fff748;}.i,.x{fill:#ffca41;}.j,.y{fill:#ff48ed;}.k,.z{fill:#c4ff82;}.aa,.l{fill:#fffa91;}.ab,.m{fill:#fb0035;}.ac,.n{fill:#e375ff;}.o{fill:#4aba42;}</style></defs><path class="a" d="M902.21,160.66c-1-8.18-10.16-11.43-26.77-9.74-29.53,3-41.91,20.91-20.91,31.49l1.19.59c15.59-4.44,31.16-9,46.65-13.82A58.77,58.77,0,0,0,902.21,160.66Z"/><path class="a" d="M874.44,250a12.64,12.64,0,0,0,.8-12.51q-24.68,9.24-49.17,18.87C842.39,254.85,858.6,252.54,874.44,250Z"/><path class="a" d="M762.57,257.25a82.13,82.13,0,0,1,.38-11.19c.07-1,1.64-2.66,3.28-2.93,16.48-2.7,33.12-5.14,50-7.7,0,5.26-.6,9.89.1,14.43q22.68-9,45.47-17.57l6.42-2.4a32.68,32.68,0,0,0-4.25-2.42c-12.44-5.91-26.36-11.09-39.67-16.57-4.26-1.76-8.67-3.45-13-5.19-38.92,10.81-77.89,21.45-116.41,33.58a146.1,146.1,0,0,0,24,9.71A213.87,213.87,0,0,0,762.57,257.25Z"/><path class="a" d="M1925.7,396.66q-.9,2.85-1.83,5.7l24.77-10.53q-6.73.38-13.46.73C1929.42,392.86,1926.7,393.59,1925.7,396.66Z"/><path class="a" d="M1566.14,213l-12.36,5.27q5,.81,9.94,1.65C1564.53,217.59,1565.33,215.28,1566.14,213Z"/><path class="a" d="M991.46,277.39q68.64.45,137.27,1c-17-7.42-34-14.88-51.24-21.82-16.48-6.64-33.18-12.94-50.15-18.36-3.53,10.21-7.08,20.43-10.55,30.65-.73,2.15-1.83,3.3-6.92,3.55-17.58.88-35.11,2-54.2,3.16h0c3.75-11,7.2-21.23,10.72-31.46-6.51,1.09-13,2.24-19.5,3.38l-8.8,1.59c-.15,1.42-.27,2.84-.36,4.27a92.79,92.79,0,0,0,1.48,23.46Q965.33,277.23,991.46,277.39Z"/><path class="a" d="M1316.72,289.52q-54.08.08-108.17-.47-15.39-.15-30.79-.27c13.53,6.29,26.71,13.33,39.79,20.53l1.68-.1a7.26,7.26,0,0,1-.78.59q8.17,4.5,16.31,9l1,.57q26.54-10.18,53.25-19.92Q1302.86,294.43,1316.72,289.52Z"/><path class="a" d="M1003.32,287.5a5.5,5.5,0,0,1,1.7,8.18q-11.35,14.15-23,28l7.26-.44q27.43-1.63,54.81-3.31,39.57-15.27,78.73-31.58Q1063.06,287.94,1003.32,287.5Z"/><path class="a" d="M1195.9,131.62c4.28-.49,8.59-1,12.91-1.66l-5.58-.48Z"/><path class="a" d="M1156.79,177.53c-17.85,15.32-47.29,22.14-81.75,24.81-9.77.72-19.64,1.26-29.5,1.72-4.87.23-6.92,1.15-7.75,3.63-2.16,6.48-4.38,12.95-6.6,19.42a4.31,4.31,0,0,1,3.3,3c20.09,6.61,39.81,14.35,59.31,22.49q28.35,11.82,56.55,24.12,16.68-7.15,33.28-14.51l-8.91.52c-2.78.16-5.58.24-9.32.39,3.4-10,6.67-19.71,10-29.36q16.08-46.81,32.3-93.59c-11.4,1.79-22.89,3.07-34.44,4C1173.94,155.83,1168.9,167.13,1156.79,177.53Z"/><path class="a" d="M1267.92,135.77c-3.24,10.71-7.21,21.38-10.9,32.06a29.3,29.3,0,0,0-.67,3.33l60.17-3.37c-1.58,4.91-3.75,9.53-4.36,14.2-.58,4.45-5.15,5.69-13.58,6-14.55.53-29,1.48-43.49,2.48-2.43.16-6.22,1.29-6.56,2.21-5.6,15.28-10.77,30.59-16,45.9a2.77,2.77,0,0,0,.08,1.31q63.57-29.64,125.7-62.47c3.32-9.62,6.88-19.22,10.54-28.8q-39.19-5.6-78.52-10.29Q1279.14,137,1267.92,135.77Z"/><path class="a" d="M1173.76,311.82q12.3-.76,24.63-1.44c-12.89-6.82-26-13.32-39.41-19-2.25-.94-4.49-1.9-6.74-2.85l-4.29,0q-35.58,15.17-71.52,29.42l6.68-.41C1113.34,315.67,1143.53,313.69,1173.76,311.82Z"/><path class="a" d="M968.18,324.53Q983.32,306.8,998,288.61a5,5,0,0,1,1.27-1.15c-11.45-.1-22.91-.18-34.36-.3q-11.57-.11-23.14-.27a106.78,106.78,0,0,0,21.45,37.94Z"/><path class="a" d="M1730.18,197.93c18.89,2.66,38.72,4.7,57.82,8.76V192.2c-13.54.74-25.54,2-37.54,1.91C1740.84,194.07,1734.51,195.35,1730.18,197.93Z"/><path class="a" d="M995.48,129.82q3.87-3.91,7.81-7.71c-13.12.23-26.7,1.26-39.16,5.13C974.58,128.08,985,129,995.48,129.82Z"/><path class="a" d="M1676,199.12l-6.11-1C1663,208,1653,216,1643.31,222.72c-5.16,3.56-10.49,6.86-15.93,10q28,6.38,55.85,13.75c25.41,6.7,50.7,13.87,75.93,21.22,28.44-3.84,55.62-12.49,76.51-32a101.23,101.23,0,0,0-21.46-10.91c-8.47.51-17.12,1.09-26.21,1.63v-9.11c-7.62-1.64-15.23-2.95-22.58-4.18-14.14-2.36-28.32-4.47-42.5-6.59-4.1,7.47-10.29,14.7-15.8,22a9.21,9.21,0,0,1-5.67,2.93c-17,1.15-34.07,2.09-52.56,3.15h0C1658.16,222.52,1667.14,210.77,1676,199.12Z"/><path class="a" d="M1473.61,60.22q-68.62,4.32-137.3,8.55-78.76,4.73-157.49,9.58c-39.13,2.42-78.29,5-117.47,7.41q-16.81,12.58-32.67,26.48l17,.26c14.27-7.41,28.26-15.38,41.89-24.06,5.46-3.47,10.47,5.19,5,8.63q-13,8.31-26.56,15.78c15.55.29,31.1.65,46.63,1.2,29.88,1,59.71,2.87,89.48,5.31,4.67-1.36,9.35-2.68,14-4,1.34-4.39,1.39-3.4,14.24-4.17l.47,0q36.46-10.31,73.07-20c4.71-1.25,8.57,4.87,4.86,8.36a106.54,106.54,0,0,1-9,7.58l50.17-3c1.23-.06,2.49,0,4.83,0-2.09,5.93-4.25,11.38-5.8,16.95-.59,2.08-2.43,2.64-6.43,2.86-20.17,1.12-40.28,2.55-60.49,3.47q45.5,5.27,90.83,11.91a71,71,0,0,1,7.77-11.06c18.14-21.6,54-31.21,99.81-33.41q10.83-.6,21.67-.28c20.34-12.65,40.58-25.62,60-39.63Q1517.9,57.52,1473.61,60.22Z"/><path class="a" d="M1530.55,227.94c-16.53,6.61-33.54,11.73-50.48,17.16q-51.91,16.65-103.7,34.13,46.62-.42,93.23-1.43,18.32-.41,36.64-.93c17.84-8.13,35.65-16.32,53.62-24.17q5-2.2,10.11-4.34c.89-3.05,1.72-6.12,2.43-9.21l-15.6.9c1.23-3.6,2.43-7.12,3.63-10.62q-6.37-1.08-12.76-2.09a4,4,0,0,1-3.54-5C1539.62,224.24,1535.1,226.12,1530.55,227.94Z"/><path class="a" d="M1594.41,237.9l-11.84.67q-.52,2.48-1.13,4.94Q1587.95,240.75,1594.41,237.9Z"/><path class="a" d="M1353.8,190.94q-47.47,25-96,48.06l51.94-3c-1.21,3.69-2.36,7.07-3.42,10.46-2.74,8.83-2.75,8.73-20.64,9.73q-37.07,2.11-74.14,4.34-20.41,9.27-41,18.24,30.06.25,60.11.48,57.42.45,114.85.2c30.06-10.39,60.24-20.42,90.47-30.33a278.46,278.46,0,0,1-45.09.42c-27.39-1.91-42.71-9.71-43.71-23.17-.74-9.62,1.62-19.38,4.54-28.94C1352.44,195.26,1353.12,193.1,1353.8,190.94Z"/><path class="a" d="M928.17,251.57a65.57,65.57,0,0,1-8.12,7.83c-8.53,7-19.7,12.45-32.27,16.47q20.75.51,41.5.83A111.09,111.09,0,0,1,928.17,251.57Z"/><path class="a" d="M1422.68,163.56c-5.93,16.92-12,33.84-16.54,50.84-3.9,14.51,12.08,17.28,37.35,13.34,12.61-2,19.35-6.89,22.28-12.75,3.8-7.57,6.45-15.3,9.23-23,.69-1.9,1.85-2.92,6.08-3.14,17.06-.89,34.1-1.9,53.3-3-4.09,9.08-7,17.7-12,26.08a51.74,51.74,0,0,1-10.48,12.41c19.91-7,39.14-15.71,58.58-23.92q3.16-9.15,6.31-18.29c-50.54-8.69-101.11-17.29-151.79-25.15Q1423.85,160.28,1422.68,163.56Z"/><path class="a" d="M1619.63,225.52c13.33-7.27,29.39-16.59,39.48-29.26l-27.79-4.75Q1625.47,208.51,1619.63,225.52Z"/><path class="a" d="M1657.56,185.8l7.4,1.25q.3-.6.57-1.2C1662.87,185.73,1660.22,185.72,1657.56,185.8Z"/><path class="a" d="M1684.34,270.68c15,0,31,.14,47-.61-38.9-11.09-78-21.54-117.5-30.19-8.89,4.45-18,8.51-27.07,12.38-3,1.26-5.9,2.54-8.85,3.82-2,6.28-4.23,12.48-6.72,18.59,5.84-.23,11.68-.45,17.51-.7C1620.64,272.61,1652.41,270.69,1684.34,270.68Z"/><path class="a" d="M1433.29,135.9q17.46-10.08,34.74-20.48c-15.86,1.25-27.42,6.06-31.77,14.37C1435.2,131.82,1434.23,133.86,1433.29,135.9Z"/><path class="a" d="M1532.9,276.06q13.65-.44,27.3-.95c1.91-4.46,3.74-9,5.44-13.67Q1549.23,268.65,1532.9,276.06Z"/><path class="a" d="M3132.26,531.42q-56.67,3.27-113.31,6.63-69,4.17-138,8.22c-40.1,2.34-80.24,4.55-120.34,6.9q-69.79,4.2-139.63,8.28c-40.35,2.36-80.73,4.58-121.09,6.93q-69.42,4.23-138.88,8.22c-32.07,1.87-64.18,3.57-96.25,5.45-37,2.16-73.88,4.49-110.88,6.65-40.61,2.37-81.26,4.57-121.87,6.93-37.48,2.18-74.92,4.52-112.4,6.71-31.53,1.84-63.09,3.53-94.63,5.35-29.73,1.71-59.43,3.53-89.15,5.24q-47.7,2.66-95.4,5.35c-15.19.89-30.37,1.8-45.74,2q13.42-.9,26.85-1.91a30.94,30.94,0,0,0,3.71-.52c23.52-4.68,47.56-8.84,70.41-14.18,29.74-7,60.19-13.64,84.64-24.76,6.16-2.77,12.68-2.7,19.16-3.12,34-2.22,68.16-4.08,102.27-6.08,32.06-1.84,64.16-3.55,96.23-5.4,38.59-2.22,77-4.57,115.59-6.79q60.95-3.39,121.89-6.87c38.82-2.23,77.61-4.57,116.43-6.8Q2412.4,540.49,2473,537q71.81-4.2,143.62-8.34c40.38-2.31,80.79-4.49,121.17-6.81,47.88-2.75,95.73-5.62,143.62-8.35q75.73-4.2,151.46-8.5c29-1.65,57.93-3.43,86.93-5.11,4.13-.24,8.32-.21,12.49-.3V266.11c-2.86,0-5.75-.16-8.57,0q-55.12,3.13-110.24,6.33-60.9,3.63-121.85,7.1c-39.08,2.23-78.19,4.34-117.26,6.57-40.37,2.31-80.7,4.75-121.06,7.06-39.07,2.24-78.18,4.34-117.25,6.57-40.62,2.32-81.21,4.76-121.83,7.08-38.82,2.22-77.67,4.33-116.49,6.55q-60.9,3.6-121.84,7.08L2058.62,327c-14.63.82-29.21,1.68-45,2.6a29,29,0,0,1,2.71-1.1q178.55-44.74,356.9-89.75c2.66-.67,5.37-2.4,5.85-3.81,5.59-16.67,10.71-33.39,16.07-50.08,8.76-27.28,17.66-54.56,26.4-81.85q14.05-43.92,28-87.86c1.57-4.95,3-9.86,4.47-14.95-2-.12-3-.28-4-.22q-69.78,4.29-139.54,8.61-69,4.37-138,8.6-65.92,4-131.88,8c-45.76,2.83-91.48,5.8-137.24,8.63q-79.12,4.83-158.22,9.69-69.08,4.34-138.07,8.58-13.36.81-26.72,1.62l-.15.12c-19.48,14.74-39.74,28.55-60.42,41.77,21,2.49,32.91,9.27,33.28,20,.32,9.63-3.31,19.29-5.52,28.92-.17.76-2.7,1.89-4.37,2-17.48,1.19-35,2.12-53.28,3.19,2.24-7.32,4.34-14.14,6.4-21a15.39,15.39,0,0,0,.74-4.91c-.13-4.14-3.48-6.8-9.89-8-18.33,11-36.84,21.75-55.31,32.31q41.91,6.63,83.71,13.74,32.25,5.46,64.49,10.86,13.47-39,26.92-78c2-5.72,1.81-5.82,13.81-6.57,15.43-1,30.9-1.8,47.26-2.74-3.81,10.93-7.39,21.35-11,31.76q-10.63,30.54-21.17,61.09a119.92,119.92,0,0,1,36.58-2c3.18.36,5.74,2.91,4.82,6.33a46,46,0,0,1-2.12,6.08l7.78,1.32,4.5-5.9c25.82-33.73,51.74-67.44,77.35-101.21,2-2.61,4.74-3.71,10.35-4,17.85-.92,35.65-2,54.28-3.15a25.33,25.33,0,0,1,1.17,4.17c4.36,46.31,8.6,92.62,13.14,138.93.37,3.39-1.4,4.53-8.56,4.8a104.11,104.11,0,0,1,11.72,7.9c2.18,1.7,1.7,5.3,0,7.07-18.24,19.09-41.35,29.52-66.3,35.22,45.9,13.51,91.72,27.32,138,39.66,77.88,20.78,157.33,37.42,238.13,40,4.59.15,5.91,5.3,3.93,8.15a170.66,170.66,0,0,1,23.36,2.3c15.8,2.34,26.31,7.69,28,15.69,3.77,17.88-3.84,34.4-29.92,48-4.87,2.55-11.25,4.51-17.43,6.33-3.62,1.1-5.16,2-4.56,4.1,6.14,21.63,12,43.27,18,64.91a38.28,38.28,0,0,1,.66,3.95c-1.89.26-2.88.47-3.91.57-18.11,1.07-36.22,2.12-55.55,3.24-2.64-11.19-5.35-22.38-7.85-33.37s-5-22-7.5-33.28c-8.21.5-15.54.73-22.54,1.5-2,.22-4.16,1.95-4.58,3.13-7.42,20.89-14.56,41.8-22,62.68a6.22,6.22,0,0,1-4.44,3.23c-18.25,1.32-36.6,2.34-56.16,3.51,2.08-6.42,4-12.34,6-18.24q22.41-65,45.2-129.88a6.36,6.36,0,0,1,4.51-3.16c28.8-1.54,57.62-3.07,86.48-4.3a901,901,0,0,1-114.66-14.8c-80.26-15.31-158.55-39.15-236.82-62.23q-13.3-3.93-26.63-7.82c-28.51,3.6-58.2,2.81-85,2.88-34.64.1-69.25,2.72-103.86,4.07-.84,0-1.69.06-2.53.09-2.44,5.37-5,10.66-7.67,15.85-13,25.27-29.22,49.34-49,69.84-13.92,14.45-30.61,28.23-49.65,35.61,14.3,3.71,22.13,10.44,24,20.14.47,2.39.52,4.8.76,7.19l1.15.11c-3.72,11.45-7.17,22.93-11.28,34.39-5.44,15.29-9.84,30.76-17.39,45.76-13.43,26.65-51.79,41.88-108.43,44.19-10.33.39-20.88.51-31.17,0-26.31-1.34-41-8.65-45.14-21.34-3.08-9.56,0-18.88,3.25-28.23,6.75-19.15,13.1-38.34,20.58-57.43,2.35-5.88,6.78-11.7,12-17.15,16.66-17.39,45.64-26.21,81.86-29.55-3.48-1.06-6.91-2.16-10.23-3.27-27.18-9.08-53.3-21-78.87-34.2a669.33,669.33,0,0,1-103.36,21.57c-36.25,4.49-73.45,6.25-109.94,2.36q-13.7,6.18-27.31,12.54c-76.87,36-149.55,79.26-220.45,125.47q-4,12.59-8,25.17-7.85,24.46-15.59,48.94c-3,9.55-6,19.11-9.18,29.38l308.67-17.38C1123,555.3,1134,495.62,1154.9,439.56c2.24-6,11.9-3.38,9.65,2.66a542.19,542.19,0,0,0-16.62,53.14,841.43,841.43,0,0,0-21.41,118.89l10.25-.58c0,.83-.52,2,.08,2.12a174.91,174.91,0,0,0,17.49,4.29c18.89,3.16,37.79,6.42,57.08,8.91,15.27,2,31.11,2.94,46.76,4.16,6.3.49,12.76.51,19.16.67,9.36.21,19.16-.43,26.86,3.08a40.22,40.22,0,0,1-3.91,1.05c-3.75.61-8.71,1.22-6.6,3.61.94,1.06,6.29,1.83,9.45,1.69,14.5-.62,28.94-1.63,43.41-2.46q13.1-.76,26.2-1.5,20.93-9,41.86-18,99.42-42.87,198.83-85.79l51.09-22q16.28-47.06,32.56-94.11c3.41-9.83,6.61-19.67,10.35-29.47.46-1.22,3.4-3,5.57-3.16,42.66-2.66,85.31-5.12,129.64-7.72-2.07,6.24-3.64,12-6.18,17.57-.4,1-5.09,1.81-8,2q-30.24,1.95-60.55,3.58c-4.87.27-6.89,1.07-7.7,3.61-4.25,13.33-9.06,26.57-13.9,40.57l59.74-3.41c-1.35,3.91-2.62,7.69-4,11.42l11.65-5,41.42-17.71q8.89-25.8,17.77-51.59c.72-2.07,2.08-3.06,6.62-3.32l121.53-7.12,13.78-5.83c5.87-2.48,11,6.14,5.05,8.64l-11.7,4.94-3.83,11.2-26.33,1.57q-29.24,12.39-58.46,24.83c-2.45,7-5,14.14-7.51,21.41l61.08-3.5c-2.15,6.26-4,12.07-6.33,17.82-.32.78-3.39,1.71-5.39,1.85-16.52,1.12-33.12,1.95-49.62,3.12-2.62.18-6.62,1.43-7,2.43-5.61,15.14-10.74,30.33-15.94,45.5a7.44,7.44,0,0,0,0,2l77.48-4.5c-2.14,6.23-4,12.13-6.38,18-.25.61-3.11,1.29-4.9,1.39-43.94,2.62-87.9,5.17-133.15,7.81,2.09-6.2,4-12.11,6-18q11.47-33,22.87-66L1793,469q-32,13.74-64,27.52c-4,11.68-8.1,23.34-12.08,35-.66,1.94-1.42,3.24-6.24,3.48-17.61.91-35.19,2-53.85,3.05a18.17,18.17,0,0,1,.49-3.73q1.41-4.1,2.84-8.19l-67.33,29q-95.57,41.24-191.11,82.46,16.2-.92,32.39-1.85c22.73-1.32,45.42-2.79,68.15-4.11,28.63-1.67,57.34-3.19,86-4.89,31.24-1.84,62.43-3.86,93.67-5.7,28.94-1.71,57.94-3.21,86.88-4.92,40-2.37,80.11-4.91,120.11-7.28,38-2.25,76-4.36,114-6.59q59.71-3.57,119.42-7.08,57.07-3.24,114.08-6.6,59.68-3.57,119.42-7.07c37.75-2.21,75.53-4.32,113.28-6.53q72.92-4.35,145.85-8.63,57.06-3.27,114.06-6.6,60.1-3.56,120.25-7.06l138.17-8q50.06-2.82,100.06-5.83c15-.86,29.89-2,44.83-3ZM1876.19,221.24c2.41-7.2,4.66-14,7-20.75,14.42-41.81,29-83.61,43.16-125.44,1.28-3.78,3.61-5.47,12.33-5.72,16-.45,32-1.77,49.39-2.82l-45.56,132,78.27-4.56c-2.25,6.3-4.25,12.2-6.61,18.06-.22.55-2.61,1.19-4.12,1.28C1965.87,216,1921.66,218.57,1876.19,221.24ZM1305.3,637l19.9-2c.14.46.28.91.43,1.37A71.79,71.79,0,0,1,1305.3,637Zm365.49-230.63c-.36.84-4,1.78-6.36,1.93q-28.31,1.8-56.68,3.33c-11.71.63-11.8.55-13.8,6.16-4.24,12.06-8.37,24.13-12.51,36.2a11,11,0,0,0-.21,2.14l59-3.35-6.63,19.36c-17.61,1-34.87,2.24-52.22,3-6.35.27-8.07,1.56-9,4.33-7,20.7-14.29,41.34-21.29,62-.69,2.05-1.89,3.13-6.46,3.37-17.59.92-35.09,2-54.09,3.06,2-6.12,3.79-11.91,5.79-17.69,14.89-43,29.91-86.08,44.56-129.14,1.13-3.31,3.32-4.51,10.45-4.9,40.4-2.2,80.73-4.73,121.09-7.14,1.22-.06,2.51,0,4.51,0C1674.9,395,1673.21,400.68,1670.79,406.32Z"/><path class="a" d="M604.91,346.84c33.66-19.35,68.73-36.31,104.17-52.06q17.16-7.63,34.46-15-11.87-.76-23.73-1.62c-6.35-.46-6.5-10,0-10,15.27,0,30.54-.11,45.77-.9v0c-46.62-3.47-91.83-19.24-122.08-57-4-5,3-12.1,7.07-7.07a135.44,135.44,0,0,0,36,31.45,4.76,4.76,0,0,1,3.45-4.26c29.06-9.19,58.38-17.5,87.74-25.68q10.2-2.83,20.45-5.66c-13.29-9-14.09-19.55-8-30.89C802,146,833.8,134.55,878.44,130.41a268.61,268.61,0,0,1,27.21-.95c28.15.31,44.28,7.48,48.15,21.06q.21.72.39,1.38,16-5.76,31.72-12.08l.76-.83c-14-1.12-28.09-2.24-42.15-3.25a5,5,0,0,1-2.53-9.32c20.81-13.38,47.71-14.56,72.06-14.37q14.41-13.12,29.79-25.2l-1.47.09c-53.25,3.28-106.55,6.4-159.81,9.66q-68.62,4.32-137.26,8.54-66.33,4-132.65,8.07-81.07,5.1-162.07,10.1-67.09,4.05-134.18,8.17c-37.48,2.27-74.92,4.7-112.4,7q-67.5,4.11-135,8.19L0,150.78V383.51c6.14-.19,12.33-.24,18.43-.6q66.33-3.9,132.63-8c46-2.83,92-5.79,138-8.62,43.93-2.72,87.9-5.29,131.83-8,46.25-2.85,92.47-5.85,138.73-8.7Q582.27,348.24,604.91,346.84ZM531.07,168.07c-12.65,29-15.2,61.34-18.3,92.42-.64,6.36-10.64,6.4-10,0,3.29-33,6.25-66.74,19.67-97.47C525,157.14,533.63,162.23,531.07,168.07Z"/><path class="a" d="M880.68,402.54c-2.51,9-5.25,18.09-8.09,27.11q20.08-21.15,39.87-42.57c-4.21,1.05-8.4,2.11-12.61,3.15C888.68,393,882.53,395.87,880.68,402.54Z"/><path class="a" d="M1069.93,388.21q-7.61-1.23-15.14-2.84c-19.37-4.14-38.53-10.59-56-19.87q-34.32,8.6-68.66,17.16c-21.23,23.28-42.87,46.18-64.61,69-3.62,11-7.29,22.08-10.84,33.12q-4.59,14.31-9.14,28.62,27.83-18,56.11-35.32C956,445,1012,414.56,1069.93,388.21Z"/><path class="a" d="M1167.13,129.65l7.77-2.32q-6-.42-12-.79A25.47,25.47,0,0,1,1167.13,129.65Z"/><path class="a" d="M697.84,310.76c-23.62,10.82-47.05,22.27-69.94,34.69q44.19-2.68,88.38-5.37c46-2.83,92-5.81,138-8.65l96.35-5.84c-1.66-2.17-3.28-4.4-4.81-6.7a106.78,106.78,0,0,1-14.43-32.15Q885,286,838.65,284.43a243.34,243.34,0,0,1-33.81-.39,104,104,0,0,1-11-1.47q-14.24-.69-28.46-1.48Q731.36,295.43,697.84,310.76Z"/><path class="a" d="M1016,123.81l7.74-.44,2.45-1.18-8.37-.1Z"/><path class="a" d="M1454.26,397.79c23.74-8.28,43.29-26.93,59.2-45.76a300.2,300.2,0,0,0,42.19-66.77q-23.28.86-46.57,1.54c-54.22,24.28-109.1,47.28-165.28,66.62q-13.82,4.77-27.7,9.05c23.9,11.95,48.37,23.18,74,31C1410.59,399.79,1433.33,405.09,1454.26,397.79Z"/><path class="a" d="M1223.63,324.1l-.67-.37c-6.07-3.34-12.14-6.68-18.25-10q-95.46,24.11-191.1,48c23,10.35,47.71,16.16,73,19Q1154.44,350.9,1223.63,324.1Z"/><path class="a" d="M1459.16,297.81c7.88-3.37,15.73-6.83,23.56-10.32q-16.29.39-32.56.71-51.78,1-103.56,1.22-50.13,17.37-99.8,36.06c18.67,10.32,37.36,20.61,56.32,30.39q23.33-6.86,46.41-15C1386.57,327.83,1423.06,313.23,1459.16,297.81Z"/><path class="a" d="M1177.87,380.52c37.83-3.4,74.62-10.64,110.85-20.56-18.23-9.69-36.24-19.84-54.19-29.82q-64.42,24.62-127.57,52.28C1130.8,383.64,1154.78,382.6,1177.87,380.52Z"/><path class="a" d="M1738.3,469.21q-2.44,7.34-5,14.65l47.42-20.36c-11.35.7-22.72,1.37-34.1,1.92C1741.41,465.68,1739.2,466.51,1738.3,469.21Z"/><path class="a" d="M948.15,211.93a236,236,0,0,1,28.28,3.22q2.73-7.85,5.44-15.68-16.68,5.7-33.31,11.51Z"/><path class="a" d="M986,187.63q7.54-21.8,15-43.6c-2.85,1.19-5.71,2.35-8.58,3.51-14.05,15.27-27.59,32.36-37.71,50.93Q970.33,193,986,187.63Z"/><path class="a" d="M918.79,211.27q11.37-4.11,22.77-8.17c8.09-17.1,18.75-33,30.8-47.71q-8.45,3.18-16.93,6.24c-1.24,3.71-6.65,5-20.46,7.11-21.59,7.28-43.37,14-65.23,20.4,7.74,3.11,15.75,6.11,23.12,9.41C901.85,202.59,911.41,206.6,918.79,211.27Z"/><path class="a" d="M970.22,233.07l2.89-8.34a220.5,220.5,0,0,0-28.8-3,125.79,125.79,0,0,0-4.58,16.59C949.88,236.46,960,234.67,970.22,233.07Z"/><path class="a" d="M930.87,221.79A27.24,27.24,0,0,1,933,225c.33-1.1.67-2.2,1-3.3C933,221.73,931.93,221.74,930.87,221.79Z"/><path class="b" d="M3132.32,531.35,3019,538q-69,4.08-138.05,8.22c-40.1,2.34-80.24,4.55-120.34,6.9q-69.82,4.08-139.63,8.28c-40.35,2.36-80.73,4.58-121.09,6.93q-69.45,4-138.88,8.22c-32.07,1.87-64.18,3.57-96.25,5.45-37,2.16-73.91,4.49-110.88,6.65-40.61,2.37-81.26,4.57-121.87,6.93-37.48,2.18-74.92,4.52-112.4,6.71-31.53,1.84-63.09,3.53-94.63,5.35-29.73,1.71-59.43,3.53-89.15,5.24q-47.68,2.73-95.4,5.35c-15.19.86-30.37,1.77-45.74,2q13.42-.93,26.85-1.91a28.44,28.44,0,0,0,3.68-.57c23.52-4.68,47.56-8.84,70.41-14.18,29.74-7,60.19-13.64,84.64-24.76,6.11-2.77,12.68-2.7,19.16-3.12,34-2.22,68.16-4.13,102.27-6.08,32.06-1.84,64.16-3.55,96.23-5.4,38.54-2.22,77-4.57,115.59-6.79q60.91-3.49,121.89-6.87c38.82-2.23,77.61-4.57,116.43-6.8q60.55-3.45,121.15-6.83,71.82-4.11,143.62-8.34c40.38-2.31,80.79-4.49,121.17-6.81,47.88-2.75,95.73-5.62,143.62-8.35q75.71-4.32,151.46-8.5c29-1.65,58-3.43,86.93-5.11,4.13-.24,8.32-.21,12.49-.3Z"/><path class="a" d="M1620.36,19.87l18.94-1.13q48.08-2.88,96.13-5.83c13.18-.81,26.39-1.54,39.49-2.6,2.45-.2,4.41-1.8,6.59-2.8-2.61-.64-5.27-1.87-7.82-1.82-8.06.18-16.06.82-24.06,1.31q-62,3.87-123.92,7.67C1624,16.43,1622.15,18.15,1620.36,19.87Z"/><path class="a" d="M1118.19,50.48q69.39-4.32,138.79-8.55,67.11-4,134.19-8.09,69.76-4.35,139.56-8.62,37-2.17,73.92-4.41,2.82-2.56,5.59-5.18l-25.77,1.59q-67.5,4.05-135,8.16-69,4.31-138,8.51-67.89,4.06-135.75,8.2-26.27,1.63-52.53,3.23-4.68,2.67-9.3,5.42Z"/><path class="a" d="M569.89,83.93q70.14-4.38,140.3-8.67,67.53-4,135-8.13,69-4.32,138-8.55Q1038,55.25,1092.72,52q4.18-2.7,8.4-5.33-31.69,1.93-63.4,3.89-67.53,4.05-135,8.16-57,3.54-114,7-67.49,4-134.92,8.12-57,3.54-114,7c-36.18,2.2-72.39,4.3-108.57,6.51q-68,4.24-136,8.34-34,4.48-67.94,9l10-.62c36.44-2.22,72.91-4.31,109.34-6.53,38.25-2.33,76.46-4.78,114.7-7.11C497.49,88.22,533.71,86.14,569.89,83.93Z"/><path class="a" d="M126.46,107.08q15.11-1.36,30.2-3L55.94,110.22A677.73,677.73,0,0,0,126.46,107.08Z"/><path class="a" d="M6.34,118.33l10.11-.62Q8.29,117.1.1,116.25v2C2.19,118.33,4.34,118.46,6.34,118.33Z"/><path class="a" d="M543,50.54q-19.6,1.18-39.19,2.42c-2.66.17-4.9,1.89-7.33,2.89l3.58,1.25Q521.55,53.88,543,50.54Z"/><path class="a" d="M1261,11.6c2.75-.2,7.36-1.91,7.19-2.72-.54-2.52-5.22-2.16-9.22-1.9q-33.87,2.17-67.77,4.24-6.3,2.76-12.55,5.64l16.55-1C1217.19,14.52,1239.15,13.17,1261,11.6Z"/><path class="a" d="M739.45,43.34c36.95-2.25,73.93-4.37,110.88-6.61,38-2.27,75.9-4.69,113.9-7l135.66-8.15q25.89-1.51,51.78-3.1,5.67-2.82,11.4-5.54c-42.45,2.55-84.91,5-127.34,7.58-47.29,2.87-94.55,5.88-141.84,8.76q-67.53,4-135,8.09-57.12,3.56-114.27,7-24,3.93-48,7.77L600,52Q669.71,47.61,739.45,43.34Z"/><path class="a" d="M3042.88,238.53c1.13.38,5.22,1,5.72,2.09,1.13,2.35-3.14,2.62-7,2.85q-62.42,3.75-124.81,7.56c-38.49,2.37-77,4.83-115.45,7.17q-67,4.07-134.13,8c-38,2.3-75.93,4.71-113.91,7q-55.82,3.39-111.65,6.66c-13.18.8-26.32,1.7-39.48,2.57-4,.27-8.76.71-8.91-2-.06-.9,4.5-2.5,7.28-2.7,21.63-1.55,43.35-2.86,65-4.19q48-2.94,96.12-5.8L2671,261.23q56.58-3.42,113.13-7c37.47-2.28,74.95-4.45,112.41-6.74q70.53-4.32,141-8.76Z"/><path class="a" d="M1643.15,653.36c-1.09-.59-4.54-2-4.16-2.31a12.62,12.62,0,0,1,6.45-2.92c17.24-1.24,34.57-2.19,51.88-3.19q36-2.09,72.09-4.12,57.39-3.29,114.78-6.61c31-1.82,62-3.77,93-5.58,37.75-2.21,75.52-4.32,113.27-6.53,31.28-1.83,62.54-3.78,93.82-5.61,37.49-2.2,75-4.29,112.49-6.49q59.74-3.48,119.46-7.11l35.73-2c3.54-.18,8.39-.5,8,2.1-.15,1-4.35,2.42-7,2.58-53.26,3.21-106.57,6.23-159.84,9.37-48.87,2.88-97.71,5.9-146.58,8.78-45.5,2.69-91,5.23-136.56,7.91-48.86,2.89-97.69,5.92-146.56,8.79q-68.6,4-137.25,7.89-39.17,2.27-78.3,4.62C1646.89,653,1645.87,653.13,1643.15,653.36Z"/><path class="a" d="M579.68,381.44q68.25-4.11,136.5-8.12,48.11-2.85,96.19-5.74c27.14-1.64,54.29-3.26,81.38-5.1,2.43-.16,4.42-1.81,6.62-2.81-2.73-.65-5.61-2-8.14-1.85q-58.54,3.44-117.08,7-70.53,4.4-141.07,8.64-29.66,1.8-59.34,3.53-4,2.6-7.92,5.23C571.11,382,575.39,381.7,579.68,381.44Z"/><path class="a" d="M555.1,378.15q-28.4,1.68-56.78,3.38c-38,2.3-76,4.78-114,7.07l-138.88,8.18q-48.1,2.82-96.17,5.73c-22.49,1.38-45,2.78-67.38,4.38-2.13.15-3.83,1.74-5.72,2.66l4.42,2.09c11.29-.67,20.64-1.21,29.94-1.78q70.86-4.41,141.86-8.71c44.42-2.69,88.95-5.25,133.42-7.93q80.91-5,161.83-9.83Q551.35,380.74,555.1,378.15Z"/><path class="b" d="M1304.5,637l20.73-2.12c.14.46.28.91.43,1.37a71.69,71.69,0,0,1-21.29.57Z"/><path class="c" d="M2212,379.7c-1.7-8-12.21-13.35-28-15.69-7.53-1.09-15.6-2.24-23.36-2.29a4.38,4.38,0,0,1-3.95,1.88q-10.35-.33-20.68-1c-28.73,1.24-57.41,2.76-86.08,4.29a6.36,6.36,0,0,0-4.51,3.16Q2022.69,435,2000.18,500c-2,5.9-3.88,11.82-6,18.24,19.56-1.17,37.91-2.19,56.16-3.51a6.22,6.22,0,0,0,4.44-3.23c7.41-20.88,14.55-41.79,22-62.68a6.49,6.49,0,0,1,4.58-3.13c7-.77,14.33-1,22.54-1.5,2.5,11.28,4.95,22.18,7.5,33.28s5.21,22.18,7.85,33.37c19.33-1.12,37.44-2.17,55.55-3.24,1-.06,2-.27,3.89-.53a38.52,38.52,0,0,0-.64-4c-6-21.64-11.88-43.28-18-64.91-.6-2.1.94-3,4.56-4.1,6.18-1.82,12.56-3.78,17.43-6.33C2208.12,414.14,2215.73,397.62,2212,379.7Zm-69.14,36.6c-5.08,3.37-13.22,6.31-21.22,7.85-11.36,2.18-23.94,2.88-38,4.43,4-11.65,7.53-22,11.06-32.29,1.33-3.85,2.44-7.73,4.18-11.54.49-.95,2.78-2.32,4.49-2.41,10.59-.52,21.28-1.14,31.89-1,12.68.17,19,3.19,20.22,9.4C2157.18,399.89,2154.09,408.81,2142.82,416.3Z"/><path class="d" d="M1484.65,426.29c-1.91-9.71-9.75-16.43-24.06-20.15a85.45,85.45,0,0,1-12.47,3.8c-18.58,4.07-38.87-.12-57.28-5.7-36.23,3.35-65.23,12.15-81.85,29.51-5.26,5.45-9.69,11.27-12,17.15-7.48,19.09-13.83,38.28-20.58,57.43-3.25,9.35-6.33,18.67-3.25,28.23,4.14,12.69,18.83,20,45.14,21.34,10.29.54,20.84.42,31.17,0,56.64-2.31,95-17.54,108.43-44.19,7.55-15,11.95-30.47,17.39-45.76,4.07-11.43,7.52-22.91,11.24-34.36l-1.12-.11C1485.17,431.09,1485.12,428.68,1484.65,426.29Zm-62.57,23.06c-7.53,22.49-15.44,45-23.53,67.49a27.87,27.87,0,0,1-6.24,9.32c-7.81,8.27-28,13-46.22,11.1-10.9-1.13-15.1-4.63-14.79-14.88,2.65-7.9,6-18.23,9.57-28.53,5.59-16.17,11.18-32.34,17-48.48a31.08,31.08,0,0,1,5-8.73c7.58-9.54,24.78-14.41,45.84-13.21,10.43.6,16.26,2.81,16.43,7.92A51.57,51.57,0,0,1,1422.08,449.35Z"/><path class="e" d="M1402.29,153.51q-16.72-2.52-33.47-4.9c-3.66,9.6-7.22,19.21-10.55,28.83Q1380.4,165.7,1402.29,153.51Z"/><path class="e" d="M1522.35,211.92c5.05-8.38,7.94-17.08,12-26.08-19.2,1.09-36.24,2.1-53.3,3-4.23.22-5.39,1.24-6.08,3.14-2.78,7.68-5.43,15.41-9.23,23-2.93,5.86-9.67,10.75-22.28,12.75-25.23,4-41.23,1.19-37.33-13.31,4.54-17,10.61-33.92,16.54-50.84q1.15-3.3,2.32-6.6l-6.86-1.07q-31.92,18-64.36,35.05-1,3.22-2,6.45c-2.92,9.56-5.28,19.32-4.54,28.94,1,13.46,16.32,21.26,43.71,23.17a279.45,279.45,0,0,0,45.17-.42q34.52-11.31,69.09-22.49,3.36-1.1,6.71-2.27A51.11,51.11,0,0,0,1522.35,211.92Z"/><path class="e" d="M1480.47,94.75c-45.81,2.2-81.67,11.81-99.81,33.41a72,72,0,0,0-7.77,11.06q21.64,3.14,43.27,6.48,8.58-4.86,17.12-9.79c.94-2,1.91-4.07,3-6.1,4.35-8.31,15.9-13.11,31.74-14.37q8.65-5.2,17.26-10.5t16.93-10.47C1495,94.26,1487.7,94.35,1480.47,94.75Z"/><path class="e" d="M1497,123.87a15.39,15.39,0,0,1-.74,4.91c-2,6.82-4.15,13.64-6.39,20.95,18.26-1.08,35.8-2,53.25-3.2,1.67-.12,4.2-1.25,4.37-2,2.21-9.63,5.84-19.29,5.52-28.92-.37-10.71-12.25-17.49-33.24-20q-16.2,10.35-32.68,20.24C1493.52,117.07,1496.87,119.73,1497,123.87Z"/><path class="f" d="M1676,199.12c-8.9,11.64-17.87,23.39-27.13,35.49,18.49-1.06,35.57-2,52.56-3.15a9.21,9.21,0,0,0,5.67-2.93c5.5-7.29,11.69-14.51,15.79-22-12.76-1.91-25.52-3.84-38.26-6Z"/><path class="f" d="M1788,217.32v9.14c9.11-.53,17.79-1.12,26.28-1.63A183.55,183.55,0,0,0,1788,217.32Z"/><path class="f" d="M1716.35,195.8c4.53.78,9.15,1.47,13.83,2.13,4.33-2.59,10.66-3.87,20.3-3.83,12,.09,24-1.17,37.54-1.91V206.7c16.68,3.54,32.77,8.65,47.17,17.07,7.13-.27,8.86-1.41,8.53-4.8-4.54-46.31-8.78-92.62-13.14-138.93a25.33,25.33,0,0,0-1.17-4.17C1810.78,77,1793,78.1,1775.13,79c-5.61.26-8.35,1.36-10.35,4-25.61,33.77-51.53,67.48-77.35,101.21l-4.5,5.88Q1699.64,192.95,1716.35,195.8ZM1785,116.28l1.28.09v58.11L1743.56,177Z"/><path class="g" d="M798.22,199c19.11-5.27,38.34-10.54,57.54-16l-1.24-.61c-21-10.58-8.62-28.49,20.91-31.49,16.61-1.69,25.77,1.56,26.77,9.74a57.81,57.81,0,0,1,.16,8.55c17.41-5.41,34.72-11.11,51.83-17.28l-.4-1.41c-3.87-13.58-20-20.75-48.15-21.06a268.61,268.61,0,0,0-27.21.95C833.79,134.52,802,146,790.15,168.09,784.08,179.44,784.89,190,798.22,199Z"/><path class="g" d="M935.13,168.68c13.64-2.08,19-3.37,20.28-7Q945.3,165.26,935.13,168.68Z"/><path class="g" d="M874.41,250l3.61-.57c17.13-2.73,34.28-6,51.47-9.24A122.14,122.14,0,0,1,933,225a28.32,28.32,0,0,0-2.14-3.2,137.56,137.56,0,0,0-18.66,2.14q-18.53,6.69-37,13.6A12.6,12.6,0,0,1,874.41,250Z"/><path class="g" d="M864,227.44a33.3,33.3,0,0,1,4.29,2.44q12.09-4.55,24.21-9a4.75,4.75,0,0,1,3.25-3.19,124.2,124.2,0,0,1,15.87-3.81l7.23-2.62c-7.38-4.68-17-8.69-26-12.74-7.36-3.3-15.35-6.28-23.07-9.39q-8.62,2.52-17.25,5Q832,200,811.36,205.7c4.29,1.74,8.68,3.42,12.93,5.17C837.6,216.35,851.52,221.53,864,227.44Z"/><path class="g" d="M795.36,258.24q10.47-4.23,21-8.38c-.69-4.53-.1-9.16-.1-14.43-16.89,2.56-33.53,5-50,7.67-1.64.27-3.21,1.93-3.28,2.93a79.45,79.45,0,0,0-.37,11.22A295.87,295.87,0,0,0,795.36,258.24Z"/><path class="g" d="M796.38,272.69q45.63,2.16,91.31,3.18c12.61-4,23.8-9.47,32.35-16.5a65,65,0,0,0,8.13-7.84c0-.21,0-.43,0-.64-43.28,7.87-86.94,16-130.93,17l-.11.05A5.94,5.94,0,0,1,796.38,272.69Z"/><path class="g" d="M838.41,284.42q-22.26-.78-44.51-1.85A103.55,103.55,0,0,0,804.83,284,241.54,241.54,0,0,0,838.41,284.42Z"/><path class="g" d="M2266.63,456.91c0,5.49-.66,10.29.18,15,.93,5.29,4,10.36,16.16,12.27,11,1.71,26.26-.8,33.93-5.34,14.07-8.34,13.5-22.3-2.54-29.92-12.44-5.91-26.36-11.09-39.67-16.57-4.56-1.88-9.29-3.68-13.87-5.55-24.74-10.11-27.83-23.09-20.27-37.23,11.83-22.12,43.64-33.57,88.28-37.71a265.63,265.63,0,0,1,27.21-.95c28.19.31,44.28,7.48,48.15,21.06,4.18,14.66,3.91,14.88-25.15,19.16-8.66,1.27-17.35,2.49-26.36,3.78,0-4.52.4-8.67-.08-12.8-1-8.18-10.16-11.43-26.77-9.74-29.53,3-41.88,20.91-20.91,31.49,11.67,5.89,25.91,10.57,38.33,16.14,10.26,4.61,21.28,9.17,28.93,14.73,21.06,15.31,16.4,31.2-1.74,46.12-25.63,21.07-74.94,28-115.21,24.64-24.59-2-39.52-10.6-41.89-23.61-.86-4.76-.34-9.58,0-14.37.07-1,1.64-2.66,3.28-2.93C2233.1,461.93,2249.74,459.47,2266.63,456.91Z"/><path class="h" d="M1024.27,237.27c-19.41,1-38.7,3.67-57.87,6.88-3.54,10.23-7,20.47-10.74,31.46,19.09-1.13,36.62-2.28,54.23-3.16,5.09-.25,6.19-1.4,6.92-3.55,3.45-10.22,7-20.44,10.53-30.65Z"/><path class="h" d="M1023.72,123.37l-7.74.44q-3.11,2.91-6.15,5.88Q1016.81,126.6,1023.72,123.37Z"/><path class="h" d="M984.44,226.84q-5.61-1.16-11.31-2.11-1.44,4.17-2.89,8.34c8.71-1.36,17.43-2.57,26.17-3.55Q990.46,228.08,984.44,226.84Z"/><path class="h" d="M1025.45,227.2c1.51-.07,3-.14,4.52-.19a5.34,5.34,0,0,1,1.22.1q3.35-9.71,6.62-19.42c.83-2.48,2.88-3.4,7.75-3.63,9.86-.46,19.73-1,29.5-1.72,34.46-2.67,63.9-9.49,81.75-24.81,12.08-10.41,17.12-21.7,16.46-33.43q-11.91.92-23.87,1.32-16.59,5-33.12,10.17a35.65,35.65,0,0,1-8.46,16c-4.44,5.06-12.13,8.62-23,10-12.23,1.54-24.81,2.46-39.14,3.84,1-2.83,1.87-5.55,2.76-8.21q-33.32,10.89-66.54,22.22-2.73,7.84-5.44,15.69c8.86,1.52,17.65,3.46,26.3,5.65C1010.38,222.73,1017.94,224.88,1025.45,227.2Z"/><path class="h" d="M1148.62,135.19c6.17-1.87,12.35-3.7,18.52-5.54a25.37,25.37,0,0,0-4.18-3.11q-34.61-2.19-69.29-3.05c-15.26-.35-30.55-.71-45.83-1q-10,5.07-20.09,9.76C1067.93,135.05,1108.35,136.83,1148.62,135.19Z"/><path class="h" d="M986,187.62q33.12-11.37,66.4-22.23c.71-2.12,1.4-4.22,2.1-6.32,1.72-5,3.69-9.94,5.23-14.94-17-.89-34-2.09-51-3.4q-3.85,1.67-7.73,3.29Q993.57,165.83,986,187.62Z"/><path class="i" d="M1242.8,123.07A164.1,164.1,0,0,0,1280,108.23l-1.38.08q-24.33,6.63-48.6,13.51Q1236.39,122.42,1242.8,123.07Z"/><path class="i" d="M1285.72,256.12c17.89-1,17.9-.9,20.64-9.73,1.06-3.39,2.21-6.77,3.42-10.46l-51.79,3q-23,11-46.26,21.52Q1248.72,258.26,1285.72,256.12Z"/><path class="i" d="M1232.61,239.89a3.17,3.17,0,0,1-.08-1.37c5.22-15.31,10.39-30.62,16-45.9.34-.92,4.13-2.05,6.56-2.21,14.49-1,28.94-1.95,43.49-2.48,8.43-.27,13-1.51,13.58-6,.61-4.67,2.78-9.29,4.36-14.2l-60.17,3.35a29.3,29.3,0,0,1,.67-3.33c3.64-10.65,7.63-21.3,10.87-32q-13-1.44-26-2.74a340.66,340.66,0,0,1-34.17,7.11q-16.17,46.77-32.31,93.53c-3.29,9.65-6.56,19.31-10,29.36,3.74-.15,6.54-.23,9.32-.39l9.07-.53q16.79-7.46,33.47-15.11Q1224.94,243.48,1232.61,239.89Z"/><path class="i" d="M1350,104.05l-50.18,3a141,141,0,0,1-34.17,18.41c5.33.58,10.66,1.19,16,1.8,20.37-.92,40.64-2.36,61-3.49,4-.22,5.84-.78,6.43-2.86,1.55-5.49,3.71-10.94,5.8-16.87C1352.47,104,1351.23,104,1350,104.05Z"/><path class="i" d="M1216.19,115.34q7.33-2.1,14.68-4.18l-.44,0C1217.59,112,1217.54,111,1216.19,115.34Z"/><path class="j" d="M1919.59,415q-34.44,14.66-68.87,29.37-11.38,33-22.78,65.94c-2.07,5.86-3.94,11.77-6,18,45.25-2.64,89.21-5.19,133.15-7.81,1.79-.1,4.65-.78,4.9-1.39,2.38-5.85,4.24-11.75,6.38-18l-77.48,4.5a7.44,7.44,0,0,1,0-2c5.2-15.17,10.33-30.36,15.94-45.5.4-1,4.4-2.25,7-2.43,16.5-1.12,33.1-2,49.62-3.12,2-.14,5.07-1.07,5.39-1.85,2.33-5.75,4.18-11.56,6.33-17.82l-61.08,3.52C1914.62,429.09,1917.15,422,1919.59,415Z"/><path class="j" d="M1923.86,402.36c.62-1.91,1.24-3.82,1.84-5.74,1-3.1,3.72-3.8,9.48-4.1q6.78-.34,13.54-.72,26.23-11.13,52.47-22.23-60.8,3.65-121.63,7.14c-4.54.26-5.9,1.25-6.62,3.32q-8.89,25.82-17.84,51.64Q1889.47,417,1923.86,402.36Z"/><path class="j" d="M1995,383l-16.82,7.13,26.25-1.58,3.81-11.15Z"/><path class="k" d="M1581.23,456.08l59-3.4-6.6,19.42c-17.61,1.06-34.87,2.28-52.22,3-6.37.27-8.09,1.56-9,4.33-7,20.66-14.29,41.3-21.29,62-.69,2-1.89,3.13-6.46,3.37-17.59.92-35.14,2-54.09,3.06,2-6.12,3.79-11.91,5.79-17.69,14.89-43,29.91-86.08,44.56-129.14,1.13-3.31,3.32-4.51,10.45-4.9,40.4-2.2,80.73-4.73,121.09-7.14,1.22-.07,2.48,0,4.51,0-2,6-3.73,11.7-6.15,17.34-.37.84-4,1.78-6.36,1.93q-28.31,1.83-56.68,3.33c-11.71.63-11.83.55-13.8,6.16-4.24,12.06-8.37,24.13-12.51,36.2A11,11,0,0,0,1581.23,456.08Z"/><path class="l" d="M1733.34,483.86q2.51-7.32,5-14.64c.9-2.7,3.11-3.53,8.37-3.79,11.38-.54,22.73-1.21,34.08-1.91q10.68-4.59,21.36-9.17c1.33-3.73,2.6-7.5,4-11.41l-59.74,3.41c4.84-14,9.65-27.24,13.9-40.57.81-2.54,2.83-3.34,7.7-3.61q30.31-1.57,60.55-3.58c2.89-.23,7.58-1.08,8-2,2.55-5.58,4.12-11.34,6.19-17.58-44.34,2.6-87,5.06-129.65,7.73-2.17.16-5.11,1.94-5.57,3.16-3.74,9.8-6.94,19.64-10.35,29.47q-16.32,47.07-32.56,94.1Z"/><path class="l" d="M1660.13,526.17c-1,2.73-1.9,5.47-2.84,8.2a18.17,18.17,0,0,0-.49,3.73c18.66-1.05,36.24-2.14,53.85-3.05,4.82-.24,5.58-1.54,6.24-3.48,4-11.68,8-23.35,12.08-35Z"/><path class="m" d="M1988,66.51l-45.58,132,78.27-4.56c-2.25,6.3-4.25,12.2-6.61,18.06-.22.55-2.61,1.19-4.12,1.28-44.18,2.65-88.39,5.24-133.86,7.91,2.43-7.2,4.68-14,7-20.75,14.42-41.81,29-83.61,43.16-125.44,1.28-3.78,3.61-5.47,12.33-5.72C1954.69,68.88,1970.62,67.56,1988,66.51Z"/><path class="n" d="M1619.64,225.51q5.85-17,11.72-34l-5.06-.86c-16.88,4.41-33.35,11.16-49,17.61q-5.65,2.36-11.28,4.75c-.79,2.29-1.57,4.59-2.36,6.89q5.74,1,11.5,2c.27-3,.42-5.95.44-8.92,0-6.44,10-6.43,10,0a101.72,101.72,0,0,1-.67,10.76q13.74,2.63,27.43,5.57c1.79-.92,3.57-1.85,5.34-2.81Z"/><path class="n" d="M1606.89,94.75q-13.46,39-26.93,78l46.19,7.77c3.24-.82,6.49-1.56,9.75-2.19q10.53-30.57,21.06-61.12c3.65-10.41,7.23-20.83,11-31.76-16.36.94-31.83,1.74-47.26,2.74C1608.68,88.93,1608.89,89,1606.89,94.75Z"/><path class="n" d="M1604.93,187l-28.21-4.86-6.33,18.34c6.28-2.66,12.58-5.26,18.93-7.71C1594.44,190.77,1599.65,188.82,1604.93,187Z"/><path class="n" d="M1583.53,233.64c-.29,1.64-.62,3.29-1,4.93l11.84-.67,3.23-1.45C1592.94,235.49,1588.24,234.54,1583.53,233.64Z"/><path class="n" d="M1573.87,231.82q-6.7-1.23-13.43-2.38c-1.19,3.49-2.4,7-3.64,10.61l15.6-.9C1573,236.72,1573.44,234.27,1573.87,231.82Z"/><path class="a" d="M2083.6,428.58c4-11.65,7.53-22,11.07-32.27,1.33-3.85,2.44-7.73,4.18-11.54.44-.95,2.78-2.32,4.49-2.41,10.59-.54,21.28-1.16,31.89-1,12.68.17,19,3.19,20.22,9.4,1.74,9.15-1.35,18.07-12.62,25.56-5.08,3.37-13.19,6.31-21.22,7.85C2110.23,426.33,2097.66,427,2083.6,428.58Z"/><path class="a" d="M1331.3,522.38c2.65-7.9,6-18.23,9.61-28.54,5.58-16.17,11.17-32.34,17-48.48a31.08,31.08,0,0,1,5-8.73c7.58-9.54,24.78-14.41,45.84-13.21,10.43.6,16.26,2.81,16.43,7.92a51.57,51.57,0,0,1-3.06,18c-7.5,22.52-15.44,45-23.53,67.49a27.87,27.87,0,0,1-6.24,9.32c-7.81,8.27-28,13-46.22,11.1C1335.23,536.13,1331,532.63,1331.3,522.38Z"/><path class="a" d="M1786.29,174.48,1743.56,177,1785,116.28l1.28.09Z"/><path class="a" d="M1048.44,177.24c-.89,2.66-1.81,5.39-2.76,8.21,14.34-1.38,26.92-2.3,39.22-3.82,10.85-1.37,18.54-4.93,23-10a35.8,35.8,0,0,0,8.47-16.06q-28.72,8.93-57.35,18.2Z"/><path class="a" d="M1052.43,165.38q30.66-10,61.44-19.56-13.23-.12-26.34-.53c-9.25-.26-18.48-.67-27.71-1.15-1.54,5-3.52,10-5.24,15C1053.86,161.18,1053.15,163.27,1052.43,165.38Z"/><path class="o" d="M1122.77,288.36q-59.71-.42-119.45-.86a5.5,5.5,0,0,1,1.7,8.18q-15.87,19.79-32.4,39,4.67,4.38,9.76,8.35Q1053.2,317.32,1122.77,288.36Z"/><path class="o" d="M878,249.47c17.13-2.73,34.28-6,51.47-9.25a124.78,124.78,0,0,1,4.57-18.54,139.34,139.34,0,0,0-21.77,2.22Q869,239.58,826.07,256.4C843.62,254.73,861.05,252.18,878,249.47Z"/><path class="o" d="M971.21,347.09q-2.69-2.25-5.26-4.64-4.11,4.74-8.26,9.46Q964.46,349.51,971.21,347.09Z"/><path class="o" d="M999.22,287.46c-11.45-.1-22.91-.18-34.36-.3q-11.57-.11-23.14-.27c4.69,15.16,13.08,28.86,23.87,40.68q16.49-19.21,32.36-39A5,5,0,0,1,999.22,287.46Z"/><path class="o" d="M797.28,267.89l-.11.05a5.94,5.94,0,0,1-.79,4.75c44.27,2.09,88.58,3.31,132.9,4a111.32,111.32,0,0,1-1.07-25.81C884.93,258.76,841.27,266.88,797.28,267.89Z"/><path class="o" d="M1077.49,256.61c-17.5-7.05-35.26-13.72-53.31-19.36-26,1.28-51.73,5.76-77.3,10.28l-8.8,1.58c-.14,1.42-.27,2.84-.36,4.28a92.79,92.79,0,0,0,1.48,23.46q26.13.38,52.26.54,68.64.45,137.27,1C1111.71,271,1094.72,263.55,1077.49,256.61Z"/><path class="o" d="M1459.16,297.81c7.88-3.37,15.73-6.83,23.56-10.32q-16.29.39-32.56.71-51.78,1-103.56,1.22-50.13,17.37-99.8,36.06c18.67,10.32,37.36,20.61,56.32,30.39q23.33-6.86,46.41-15C1386.57,327.83,1423.06,313.23,1459.16,297.81Z"/><path class="o" d="M1553.77,218.26q10.74,1.73,21.44,3.66.4-4.44.44-8.9c0-6.44,10-6.43,10,0a101,101,0,0,1-.67,10.73q13.74,2.64,27.42,5.6c1.79-.91,3.58-1.85,5.35-2.81,13.67-7.41,30.79-17,41.36-30.28q-16.41-2.79-32.81-5.61c-16.88,4.41-33.35,11.16-49,17.61C1569.47,211.53,1561.62,214.91,1553.77,218.26Z"/><path class="o" d="M1316.72,289.52q-54.08.08-108.17-.47-15.39-.15-30.8-.27c19.47,9.05,38.25,19.67,57,30l1,.57q26.54-10.18,53.25-19.92Q1302.86,294.43,1316.72,289.52Z"/><path class="o" d="M1643.31,222.72c-5.15,3.56-10.48,6.86-15.92,10q28,6.38,55.84,13.76c25.41,6.7,50.7,13.87,75.93,21.22,28.44-3.84,55.62-12.49,76.51-32-20.26-13.82-46.64-18.63-70.25-22.57-26.87-4.48-53.87-8.06-80.75-12.57q-7.38-1.23-14.75-2.49C1663,208,1653,216,1643.31,222.72Z"/><path class="o" d="M1665.53,185.85c-2.66-.12-5.31-.13-8,0l7.4,1.25Q1665.26,186.45,1665.53,185.85Z"/><path class="o" d="M984.44,226.84a240.36,240.36,0,0,0-40.12-5.12,126.11,126.11,0,0,0-4.59,16.61c18.82-3.46,37.69-6.68,56.64-8.82Q990.43,228.07,984.44,226.84Z"/><path class="o" d="M1547.67,227.34a4,4,0,0,1-3.54-5c-4.51,1.9-9,3.78-13.58,5.6-16.53,6.61-33.54,11.73-50.48,17.16q-51.91,16.65-103.7,34.13,46.62-.42,93.23-1.43,18.32-.41,36.64-.93c17.84-8.13,35.65-16.32,53.62-24.17,3.36-1.47,6.74-2.91,10.11-4.34a153.4,153.4,0,0,0,3.9-16.55Q1560.81,229.41,1547.67,227.34Z"/><path class="o" d="M1532.9,276.06q13.65-.44,27.29-.95c1.92-4.47,3.75-9,5.45-13.67Q1549.23,268.65,1532.9,276.06Z"/><path class="o" d="M1581.44,243.51c5.43-2.3,10.84-4.63,16.2-7.07q-7-1.44-14.11-2.81C1582.94,236.94,1582.23,240.23,1581.44,243.51Z"/><path class="o" d="M1223,323.73c-20.93-11.53-41.91-23.07-64-32.31-2.25-.94-4.49-1.9-6.74-2.85l-4.29,0q-38.81,16.53-78,32-38.76,15.29-77.89,29.43a154.13,154.13,0,0,0,20.73,11.46c23.2,10.59,48.24,16.5,73.8,19.35q67.86-29.88,137.05-56.68Z"/><path class="o" d="M980.38,354.18q-17.94,6.44-36,12.68l-.63.71c-65.32,72.81-135.28,141.34-200.36,214.35,52-35.74,104.31-71,158.21-103.86C956,445,1012,414.56,1069.93,388.21q-7.61-1.23-15.14-2.84C1028.35,379.72,1002.27,369.79,980.38,354.18Z"/><path class="o" d="M795.33,258.26q33.1-13.39,66.47-26,15.3-5.78,30.66-11.41a4.75,4.75,0,0,1,3.25-3.19,124.2,124.2,0,0,1,15.87-3.81q15-5.43,30-10.78c8.08-17.09,18.73-32.93,30.76-47.67-39.26,14.83-79.46,27.14-119.79,38.7C800,209.19,747.05,222.88,694.92,239.29a146.1,146.1,0,0,0,24,9.71C743.6,256.52,769.41,258.81,795.33,258.26Z"/><path class="o" d="M938.26,358.75q10.38-11.61,20.6-23.37a129.36,129.36,0,0,1-13-16.49,106.78,106.78,0,0,1-14.43-32.15c-55.37-.85-110.73-2.5-166-5.65q-34,14.34-67.54,29.67c-51.37,23.54-101.87,50-147.75,83.13C509,423.63,471.26,459.56,445.84,503.82a75.53,75.53,0,0,0,10.54.66c32.15,0,64.7-10.72,94.94-20.61,25.15-8.23,49.62-18.61,74.86-26.46,101.24-31.48,203.08-61,303.32-95.61Z"/><path class="o" d="M1107,382.42c23.84,1.22,47.82.18,70.91-1.9,37.83-3.4,74.62-10.64,110.85-20.56-18.23-9.69-36.24-19.84-54.19-29.82Q1170.11,354.76,1107,382.42Z"/><path class="o" d="M1343.8,353.42q-13.82,4.77-27.7,9.05c23.9,11.95,48.37,23.18,74,31,20.54,6.29,43.28,11.59,64.21,4.29,23.74-8.28,43.29-26.93,59.2-45.76a300.2,300.2,0,0,0,42.19-66.77q-23.28.86-46.57,1.54C1454.86,311.08,1400,334.08,1343.8,353.42Z"/><path class="o" d="M3549.92,343.46C3498.1,233.63,3407,141.5,3320.56,58c-93.35-90.2-202.1-174.73-325.91-218-129.64-45.27-271.09-37.36-405.87-28.48-289.69,19.07-581.17,16-869.86,48.89-148.93,17-296.65,45.31-444.11,71.88C1130-41.57,985.4-14.58,840.52,11,694.79,36.69,548.79,61,402.21,81.31c-70.49,9.8-141.09,18.74-211.61,28.28C126.8,118.22,64,123-.19,116.22c-24.29-2.55-49.57-5.53-73.51,1-29.59,8.11-51.13,30.57-69.63,53.9-37.44,47.24-61.09,107-59.21,167.76a205,205,0,0,0,22.41,87.41c14.33,27.82,34.3,52.69,49.95,79.83,29.42,51,52.1,105.34,73.37,160.13,47.07,31.79,106.31,43.43,160.1,58.87,134.67,38.68,275,40.65,414,42.2C665.2,769,812.15,776.4,959.33,791.13q21.76,2.19,43.56,4a4.07,4.07,0,0,1,3.59-4.64q11.92-2,23.6-5.17c32-8.58,62.16-22.62,92-36.83,30.72-14.63,61.84-28.13,93.12-41.52q99.78-42.72,199.44-85.75,99.42-42.87,198.83-85.79,100.11-43.17,200.31-86.12,100.47-43,201.12-85.57c5.87-2.48,11,6.14,5.05,8.64L1995,383Q1893.88,425.74,1793,469q-100.17,43-200.22,86.16-100.3,43.27-200.61,86.56-99.66,42.94-199.42,85.64c-30.74,13.14-60.66,27.85-91.07,41.67-24.86,11.3-50.36,21.61-77,27.91,125.8,9.92,252.08,12.81,378.21,15.92,147,3.62,293.25,10,439.71,22.88,147.58,13,295.13,26.33,442.47,41.88q110.71,11.68,221.23,25.27a775.74,775.74,0,0,0,105.45,5.8c37.25-.5,72.39-10.06,107.88-20.62,137.3-40.85,278.07-66.7,417.23-100.2,123.84-29.81,254.4-64.67,358.51-141.18,22.9-16.84,43.8-36.3,59.84-58.9V355.22Q3552.65,349.25,3549.92,343.46ZM-175.84,297.14c-6.44,0-6.43-10,0-10S-169.4,297.14-175.84,297.14Zm678.61-36.65c3.29-33,6.25-66.74,19.67-97.47,2.57-5.88,11.19-.79,8.63,5-12.65,29-15.2,61.34-18.3,92.42C512.13,266.85,502.13,266.89,502.77,260.49Zm661.78,181.73a542.19,542.19,0,0,0-16.62,53.14c-17.11,65.8-24.86,134-27.51,201.88-.25,6.43-10.26,6.44-10,0q1.1-28.25,3.55-56.41c6-68.05,17-137,40.93-201.27C1157.14,433.57,1166.8,436.18,1164.55,442.22Zm992.1-78.62c-45.34-1.45-90.43-7.25-135-15.74-80.26-15.31-158.55-39.15-236.82-62.23q-13.3-3.93-26.63-7.82c-28.51,3.6-58.2,2.81-85,2.88-34.64.1-69.25,2.72-103.86,4.07-.84,0-1.69.06-2.53.09-2.43,5.38-5,10.66-7.67,15.85-13,25.27-29.22,49.34-49,69.84-16.88,17.53-37.84,34.07-62.11,39.4-22.1,4.84-46.64-2-67.54-9-27.18-9.08-53.3-21-78.87-34.2a669.33,669.33,0,0,1-103.36,21.57c-36.25,4.49-73.45,6.25-109.94,2.36q-13.7,6.18-27.31,12.54C938.69,460.5,826.91,536.37,716,612.94c-5,3.45-9.5-3.83-6.06-7.85,20.41-23.9,41.46-47.23,62.85-70.26,50.26-54.09,102.33-106.61,152-161.22C843,401.54,760.37,426.94,677.6,452.15c-23,7-46,13.58-68.55,21.88-18.27,6.74-36.56,13.43-55.07,19.48-21.32,7-43,13.37-65.06,17.44-16.83,3.11-35.29,5.8-52.11,1.22a5.06,5.06,0,0,1-3-7.34c28.72-53.24,74.62-94.84,124.06-128.59,47.36-32.33,98.88-58.21,151.2-81.46q17.16-7.63,34.46-15-11.87-.76-23.73-1.62c-6.35-.46-6.5-10,0-10,15.32,0,30.64-.11,45.92-.91-46.67-3.44-92-19.21-122.24-57-4-5,3-12.1,7.07-7.07a135.44,135.44,0,0,0,36,31.45,4.76,4.76,0,0,1,3.45-4.26c29.06-9.19,58.38-17.5,87.74-25.68C847.16,185.34,918.55,167,985.9,139.83c.26-.27.51-.56.77-.84-14-1.12-28.09-2.24-42.15-3.25a5,5,0,0,1-2.53-9.32c20.81-13.38,47.71-14.56,72.06-14.37,27.68-25.19,58.15-47.47,89.92-67.16,38.81-24,80.57-42.84,123.17-59.08,59.45-22.66,121.11-39.13,183.63-50.71,54.82-10.16,110.24-14.41,165.31-22.49,31.56-4.64,86-13.67,102.77,23.06,2.94,6.45-.08,9.85-3.52,15.62s-7.06,11.39-10.85,16.91A329.85,329.85,0,0,1,1639.15.47c-17.69,19.86-37.77,37.36-59,53.39-46.62,35.28-97.7,65.3-148.37,94.29q41.91,6.63,83.71,13.74,55.31,9.35,110.61,18.62c15.2-3.86,30.77-5.9,46.28-4.14,3.18.36,5.74,2.91,4.82,6.33a46,46,0,0,1-2.12,6.08q20.61,3.5,41.22,7c43.31,7.42,94.34,7.63,130.51,35.84,2.18,1.7,1.7,5.3,0,7.07-18.24,19.09-41.35,29.52-66.3,35.22,45.9,13.51,91.72,27.32,138,39.66,77.88,20.78,157.33,37.42,238.13,40C2163.08,353.81,2163.08,363.81,2156.65,363.6Z"/><path class="o" d="M1586.81,252.26c-3,1.26-5.9,2.54-8.85,3.81-2,6.29-4.23,12.49-6.72,18.6,5.84-.23,11.67-.45,17.51-.7,31.89-1.36,63.66-3.28,95.59-3.29,15,0,31,.14,47-.61-38.91-11.09-78-21.53-117.52-30.18C1605,244.34,1595.9,248.39,1586.81,252.26Z"/><path class="o" d="M1003.29,122.11c-13.12.23-26.7,1.26-39.16,5.13,10.45.84,20.9,1.72,31.35,2.58Q999.35,125.91,1003.29,122.11Z"/><path class="o" d="M1281,107.63q-25.57,6.95-51.06,14.19,6.4.6,12.82,1.25A162.36,162.36,0,0,0,1281,107.63Z"/><path class="o" d="M1148.62,135.19q13.13-4,26.28-7.86c-27-1.87-54.13-3.2-81.23-3.84-15.25-.35-30.53-.71-45.8-1q-9.94,5.05-20.09,9.75C1068,135.05,1108.36,136.83,1148.62,135.19Z"/><path class="o" d="M1195.9,131.62c4.28-.49,8.59-1,12.91-1.66l-5.58-.48Z"/><path class="o" d="M1113.87,145.82q-13.23-.12-26.34-.53c-26.31-.76-52.53-2.54-78.74-4.56q-8.16,3.51-16.38,6.84c-14,15.26-27.57,32.34-37.68,50.9Q1033.8,170.68,1113.87,145.82Z"/><path class="o" d="M1170.61,278.76q30.06.25,60.11.48,57.42.45,114.85.2c53-18.3,106.28-35.53,159.61-52.83,28.78-9.33,56-23,84.14-33.86,5.12-2,10.33-3.93,15.61-5.77-62.21-10.72-124.42-21.48-186.8-31.07A2700.4,2700.4,0,0,1,1170.61,278.76Z"/><path class="o" d="M1017.8,122.09q-4,3.76-8,7.6,8.22-3.64,16.34-7.5Z"/><path class="o" d="M1402.29,153.51c-37.25-5.6-74.55-10.76-112-15.18q-24.19-2.87-48.45-5.3c-30,7.92-61.22,11.29-92.48,12.39q-45.33,13.72-90.38,28.35-55.34,18-110.46,37.21c-.14.31-.27.63-.4.94,18.43.92,36.81,4.38,54.6,8.88,7.6,1.92,15.15,4.07,22.64,6.38,1.52-.07,3-.12,4.57-.17a4.39,4.39,0,0,1,4.54,3.08c20.08,6.6,39.8,14.35,59.29,22.48q28.35,11.82,56.55,24.12Q1184,262.26,1217.26,247C1280,218.17,1341.91,187.16,1402.29,153.51Z"/><path class="o" d="M1087.57,88.44c5.46-3.47,10.47,5.19,5,8.63q-13,8.31-26.57,15.78c15.56.29,31.11.65,46.64,1.2,29.88,1,59.71,2.87,89.48,5.31Q1252.92,104.67,1304,91.1c4.71-1.25,8.57,4.87,4.86,8.36-12.39,11.66-27.39,19.91-43.22,26,50.32,5.5,100.5,12.49,150.54,20.24q34.9-19.77,69.09-40.76c35.83-22.06,71.93-44.48,104.51-71.23,32.08-26.35,59.57-57.26,80.29-93.28-3.86-8.64-11.16-14.5-20.08-17.71-22-7.92-48-3.87-70.46-.58-27.38,4-54.82,6.52-82.29,9.85-74.65,9-148.77,23.81-220.39,46.93-89.79,29-177,70.76-248.15,133.32l17,.26C1060,105.09,1073.94,97.12,1087.57,88.44Z"/><path class="o" d="M1161.08-57.38c254.71-47.19,509.58-94.07,768.49-110.34,150.38-9.45,301-12.81,451.57-19.19,144.53-6.12,290.6-25,435.29-16.12,66.4,4.06,132.93,14.87,195.29,38.68,60.33,23,116.67,55.76,169.3,93C3284.48,1.75,3376.24,93,3458.12,189.43c37.16,43.74,71.79,90.54,97.17,142.21V-465.22H-904V1034.91H3555.29V604.43c-43.37,54.52-113.36,91.68-175.11,118.15-125.83,53.93-262.6,80.79-395.71,110-71.9,15.78-144.66,30.39-215.33,51.08-34.41,10.08-68.48,21.56-103.56,29.19-34.47,7.5-69.51,6.53-104.58,4.53-76.18-4.35-152.07-16.31-227.92-24.58q-114.21-12.45-228.61-23.22c-152.23-14.51-304.76-30.55-457.5-38.4s-305.66-8.38-458.43-14.66c-153.58-6.32-305.87-26.7-459.37-33.39-145.7-6.36-292.49-.89-437.78-14.08C222.23,762.75,153.5,751,87,730.75c-48.67-14.83-99.12-25.36-142.41-51.9a5.47,5.47,0,0,1-8.16-2.43c-.49-1.28-1-2.56-1.49-3.84q-6.66-4.59-13-9.78c-4.72-3.86,1.4-10.35,6.26-7.62-21-53.25-43.91-105.71-73.4-154.92-16.83-28.1-37.87-53.88-50.65-84.21a215.75,215.75,0,0,1-16.41-71.71c-3.06-54.9,14.46-109.78,44.14-155.62,27.16-41.95,62.91-81.09,115.46-85,26.25-2,52.58,2.93,78.66,5.09,33.44,2.77,67.13,1.28,100.5-1.74C199.8,100.45,273,88.56,346,78.93Q462.55,63.56,578.67,45C729.9,21,880.61-6,1031.24-33.44q64.93-11.83,129.84-23.94M384.34-140.11c6.45,0,6.43,10,0,10S377.91-140.11,384.34-140.11Z"/><path class="p" d="M3132.32,535.9c-14.94,1-29.86,2.14-44.83,3q-50,3-100.06,5.83l-138.17,8q-60.14,3.51-120.25,7.06-57,3.33-114.06,6.6Q2542,570.67,2469.1,575c-37.75,2.21-75.53,4.32-113.28,6.53q-59.73,3.5-119.42,7.07-57,3.36-114.08,6.6-59.71,3.51-119.42,7.08c-38,2.23-76,4.34-114,6.59-40,2.37-80.06,4.91-120.11,7.28-28.94,1.71-57.94,3.21-86.88,4.92-31.24,1.84-62.43,3.86-93.67,5.7-28.66,1.7-57.37,3.22-86,4.89-22.73,1.32-45.42,2.79-68.15,4.11-29.17,1.69-58.36,3.29-87.54,5-14.47.83-28.91,1.84-43.41,2.46-3.16.14-8.51-.63-9.45-1.69-2.11-2.39,2.85-3,6.6-3.61a37.85,37.85,0,0,0,4-1.1,71.69,71.69,0,0,0,21.29-.57c-.15-.46-.29-.91-.43-1.37L1304.52,637c-7.75-3.67-17.69-3-27.18-3.21-6.4-.16-12.86-.18-19.16-.67-15.65-1.22-31.49-2.19-46.76-4.16-19.29-2.49-38.19-5.75-57.08-8.91a174.91,174.91,0,0,1-17.49-4.29c-.6-.17-.08-1.29-.08-2.12L807.84,632.19c3.2-10.27,6.15-19.83,9.18-29.38q7.76-24.48,15.59-48.94,11-34.56,22.07-69.11c8.8-27.4,18.37-54.75,26-82.22,1.85-6.67,8-9.52,19.17-12.31q157.91-39.33,315.38-79.12a8.36,8.36,0,0,0,4-1.9c-15.16.86-30.33,1.67-45.47,2.61-30.23,1.87-60.42,3.85-90.65,5.72q-46.87,2.91-93.88,5.71-67.47,4.11-135,8.18c-46,2.84-92,5.82-138,8.65Q638,344.9,559.62,349.59c-46.26,2.85-92.48,5.85-138.73,8.7-43.93,2.71-87.9,5.28-131.83,8-46,2.83-92,5.79-138,8.62q-66.3,4.11-132.63,8c-6.1.36-12.29.41-18.43.6V150.78l69-4.11q67.5-4.08,135-8.19c37.48-2.3,74.92-4.73,112.4-7q67.08-4.11,134.18-8.17,81-5,162.07-10.1,66.32-4.09,132.65-8.07,68.64-4.23,137.26-8.54c53.26-3.26,106.56-6.38,159.81-9.66,45.5-2.8,91-5.78,136.45-8.59q78.72-4.86,157.49-9.58,68.67-4.23,137.3-8.55,66.72-4.08,133.46-8.1,69-4.24,138.07-8.58,79.09-4.86,158.22-9.69c45.76-2.83,91.48-5.8,137.24-8.63q66-4.08,131.88-8,69-4.23,138-8.6Q2380.25,4.3,2450,0c1-.06,2,.1,4,.22-1.51,5.09-2.9,10-4.47,15q-13.93,43.95-28,87.86c-8.74,27.29-17.64,54.57-26.4,81.85-5.36,16.69-10.48,33.41-16.07,50.08-.48,1.41-3.19,3.14-5.85,3.81q-178.35,45-356.9,89.75a29,29,0,0,0-2.71,1.1c15.79-.92,30.37-1.78,45-2.6l117.25-6.58q60.95-3.48,121.84-7.08c38.82-2.22,77.67-4.33,116.49-6.55,40.62-2.32,81.21-4.76,121.83-7.08,39.07-2.23,78.18-4.33,117.25-6.57,40.36-2.31,80.69-4.75,121.06-7.06,39.07-2.23,78.18-4.34,117.26-6.57q60.95-3.48,121.85-7.1,55.11-3.19,110.24-6.33c2.82-.16,5.71,0,8.57,0v233.5c-4.17.09-8.36.06-12.49.3-29,1.68-57.94,3.46-86.93,5.11q-75.72,4.31-151.46,8.5c-47.89,2.73-95.74,5.6-143.62,8.35-40.38,2.32-80.79,4.5-121.17,6.81Q2544.77,532.82,2473,537q-60.55,3.47-121.15,6.83c-38.82,2.23-77.61,4.57-116.43,6.8q-60.94,3.48-121.89,6.87c-38.54,2.22-77,4.57-115.59,6.79-32.07,1.85-64.17,3.56-96.23,5.4-34.11,2-68.24,3.86-102.27,6.08-6.48.42-13,.35-19.16,3.12-24.45,11.12-54.9,17.8-84.64,24.76-22.85,5.34-46.89,9.5-70.41,14.18a30.94,30.94,0,0,1-3.71.52q-13.42,1-26.85,1.91c15.37-.2,30.55-1.11,45.74-2q47.7-2.7,95.4-5.35c29.72-1.71,59.42-3.53,89.15-5.24,31.54-1.82,63.1-3.51,94.63-5.35,37.48-2.19,74.92-4.53,112.4-6.71,40.61-2.36,81.26-4.56,121.87-6.93,37-2.16,73.91-4.49,110.88-6.65,32.07-1.88,64.18-3.58,96.25-5.45q69.47-4,138.88-8.22c40.36-2.35,80.74-4.57,121.09-6.93q69.84-4.08,139.63-8.28c40.1-2.35,80.24-4.56,120.34-6.9q69-4,138-8.22,56.64-3.36,113.31-6.63ZM2178.69,507a38.28,38.28,0,0,0-.66-3.95c-6-21.64-11.86-43.28-18-64.91-.6-2.12.94-3,4.56-4.1,6.18-1.82,12.56-3.78,17.43-6.33,26.08-13.6,33.69-30.12,29.92-48-1.69-8-12.2-13.35-28-15.69-8.63-1.29-18-2.58-26.75-2.25-35.84,1.33-71.59,3.25-107.32,5.16a6.36,6.36,0,0,0-4.51,3.16Q2022.58,435,2000.16,500c-2,5.9-3.92,11.82-6,18.24,19.56-1.17,37.91-2.19,56.16-3.51a6.22,6.22,0,0,0,4.44-3.23c7.44-20.88,14.58-41.79,22-62.68.42-1.18,2.62-2.91,4.58-3.13,7-.77,14.33-1,22.54-1.5,2.54,11.29,5,22.29,7.5,33.28s5.21,22.18,7.85,33.37c19.33-1.12,37.44-2.17,55.55-3.24C2175.81,507.5,2176.8,507.29,2178.69,507Zm-692.16-73.44-1.15-.11c-.24-2.39-.29-4.8-.76-7.19-2.74-13.92-17.64-21.71-46.36-23.28a320.36,320.36,0,0,0-35.06.3c-42,2.39-75.73,11.14-94.25,30.47-5.22,5.45-9.65,11.27-12,17.15-7.48,19.09-13.83,38.28-20.58,57.43-3.3,9.35-6.33,18.67-3.25,28.23,4.1,12.69,18.83,20,45.14,21.34,10.29.51,20.84.39,31.17,0,56.64-2.31,95-17.54,108.43-44.19,7.55-15,12-30.47,17.39-45.76C1479.36,456.52,1482.81,445,1486.53,433.59Zm3.36-283.86c18.26-1.07,35.8-2,53.28-3.19,1.67-.11,4.2-1.24,4.37-2,2.21-9.63,5.84-19.29,5.52-28.92-.39-11.19-13.31-18.09-36.07-20.3a256.9,256.9,0,0,0-36.49-.56c-45.79,2.2-81.67,11.81-99.81,33.41-4.39,5.23-8.1,10.71-10.23,16.25-6.79,17.61-13.27,35.26-18.68,53-2.92,9.56-5.28,19.32-4.54,28.94,1,13.46,16.32,21.26,43.71,23.17,31.41,2.18,61.47-.6,88.7-8.67,22.46-6.66,35.58-17,42.73-28.93,5-8.38,7.91-17,12-26.08-19.2,1.1-36.24,2.11-53.3,3-4.23.22-5.39,1.24-6.08,3.14-2.78,7.7-5.43,15.43-9.23,23-2.93,5.86-9.67,10.78-22.28,12.75-25.27,3.94-41.25,1.17-37.35-13.34,4.57-17,10.61-33.92,16.54-50.84,4-11.3,7.78-22.67,13.58-33.77,5.3-10.14,21.32-15.06,42.77-14.69,11.72.21,17.82,3.12,18,8.75a15.39,15.39,0,0,1-.74,4.91C1494.23,135.59,1492.13,142.41,1489.89,149.73Zm159,84.89c18.49-1.06,35.57-2,52.56-3.15a9.21,9.21,0,0,0,5.67-2.93c5.91-7.83,12.61-15.58,16.67-23.64,3.67-7.28,10.59-10.86,26.67-10.79,12,.06,24-1.17,37.54-1.91v34.23c16.63-1,31.81-2.12,47.07-2.69,7.22-.26,9-1.4,8.63-4.8-4.54-46.31-8.78-92.62-13.14-138.93a25.33,25.33,0,0,0-1.17-4.17c-18.63,1.1-36.43,2.23-54.28,3.15-5.61.29-8.35,1.39-10.35,4-25.61,33.77-51.53,67.48-77.35,101.21-12.65,16.58-25.29,33.14-38.5,50.41Zm-832.66.81c-16.88,2.56-33.52,5-50,7.7-1.64.27-3.21,1.9-3.28,2.93-.34,4.79-.86,9.61,0,14.37,2.37,13,17.3,21.56,41.89,23.61,40.27,3.34,89.58-3.57,115.21-24.64,18.14-14.92,22.8-30.81,1.74-46.12-7.65-5.56-18.67-10.12-28.93-14.73-12.42-5.57-26.66-10.25-38.33-16.14-21-10.58-8.62-28.47,20.91-31.49,16.61-1.69,25.8,1.56,26.77,9.74.48,4.13.08,8.28.08,12.8,9-1.29,17.7-2.51,26.36-3.78,29.06-4.28,29.33-4.5,25.15-19.16-3.87-13.58-20-20.75-48.15-21.06a268.61,268.61,0,0,0-27.21.95C833.8,134.55,802,146,790.16,168.12c-7.56,14.14-4.47,27.12,20.27,37.23,4.58,1.87,9.31,3.67,13.87,5.55,13.31,5.48,27.23,10.66,39.67,16.57,16,7.62,16.61,21.58,2.54,29.92-7.67,4.54-22.94,7.05-33.93,5.34-12.18-1.91-15.23-7-16.16-12.27C815.56,245.73,816.23,240.92,816.23,235.43Zm139.44,40.18c19.09-1.13,36.62-2.28,54.2-3.16,5.09-.25,6.19-1.4,6.92-3.55,6.92-20.41,14.18-40.8,21-61.21.83-2.48,2.88-3.4,7.75-3.63,9.86-.46,19.73-1,29.5-1.72,34.46-2.67,63.9-9.49,81.75-24.81,13.55-11.64,18.28-24.41,16-37.65-2.11-12.45-16.23-19.41-41.94-21.18a175.19,175.19,0,0,0-21-.32c-31.86,1.72-63.65,3.74-95.49,5.52-5,.28-6.83,1.13-7.68,3.61-13.25,38.82-26.79,77.62-40.23,116.43-3.54,10.3-7,20.6-10.79,31.67ZM1354.81,104c-2.34,0-3.6-.06-4.83,0l-119.54,7.13c-15.21.91-12.48-.65-15.2,7.17q-20,57.67-39.84,115.39c-3.33,9.65-6.6,19.31-10,29.36,3.74-.15,6.54-.23,9.32-.39,37-2.17,74-4.42,111-6.52,17.89-1,17.9-.9,20.64-9.73,1.06-3.39,2.21-6.77,3.42-10.46l-77.1,4.46c-.09-.92-.3-1.41-.15-1.87,5.23-15.31,10.4-30.62,16-45.9.34-.92,4.13-2.05,6.56-2.21,14.45-1,28.94-1.95,43.49-2.48,8.43-.31,13-1.55,13.58-6,.61-4.67,2.78-9.29,4.36-14.2l-60.17,3.37a29.3,29.3,0,0,1,.67-3.33c4-11.57,8.33-23.12,11.7-34.73,1.15-4,4.37-5.37,12.5-5.74,20.5-.92,40.9-2.38,61.36-3.51,4-.22,5.84-.78,6.43-2.86C1350.56,115.42,1352.72,110,1354.81,104Zm557.28,332.33c4.73-13.62,9.5-26.64,13.61-39.71,1-3.07,3.72-3.8,9.48-4.1,23-1.19,46-2.64,69.21-4l6.59-19.29c-2.1,0-3.12-.06-4.11,0l-127.31,7.46c-4.54.26-5.9,1.25-6.62,3.32q-22.37,65.13-45,130.24c-2,5.89-3.91,11.8-6,18,45.25-2.64,89.21-5.19,133.15-7.81,1.79-.1,4.65-.78,4.9-1.39,2.34-5.87,4.24-11.77,6.38-18l-77.48,4.5a7.44,7.44,0,0,1,0-2c5.2-15.17,10.33-30.36,15.94-45.5.38-1,4.38-2.25,7-2.43,16.5-1.17,33.1-2,49.62-3.12,2-.14,5.07-1.07,5.39-1.85,2.38-5.75,4.18-11.56,6.33-17.82Zm-330.86,19.71a11,11,0,0,1,.21-2.14c4.14-12.07,8.27-24.14,12.51-36.2,2-5.61,2.09-5.53,13.8-6.16q28.37-1.53,56.68-3.33c2.34-.15,6-1.09,6.36-1.93,2.42-5.64,4.11-11.35,6.15-17.34-2,0-3.29-.06-4.51,0-40.36,2.41-80.69,4.94-121.09,7.14-7.13.39-9.32,1.59-10.45,4.9-14.65,43.06-29.67,86.1-44.56,129.14-2,5.78-3.79,11.57-5.79,17.69,19-1.08,36.5-2.14,54.09-3.06,4.57-.24,5.77-1.32,6.46-3.37,7-20.66,14.33-41.3,21.29-62,.93-2.77,2.65-4.06,9-4.33,17.35-.76,34.61-2,52.22-3l6.63-19.36ZM1842.68,379c-44.34,2.6-87,5.06-129.67,7.72-2.17.14-5.11,1.94-5.57,3.16-3.74,9.8-6.94,19.64-10.35,29.47q-19.9,57.51-39.79,115a18.17,18.17,0,0,0-.49,3.73c18.66-1.07,36.24-2.14,53.85-3.05,4.82-.24,5.58-1.54,6.24-3.48,7.08-20.79,14.47-41.55,21.4-62.35.9-2.7,3.11-3.53,8.37-3.79,15.82-.77,31.6-1.75,47.37-2.75,2-.13,5.18-.78,5.44-1.42,2.45-6,4.39-12,6.58-18.32l-59.74,3.41c4.84-14,9.65-27.24,13.9-40.57.81-2.54,2.83-3.34,7.7-3.61q30.32-1.64,60.55-3.58c2.91-.19,7.6-1,8-2,2.54-5.6,4.11-11.33,6.18-17.57Zm145.39-312.5c-17.42,1-33.35,2.37-49.39,2.82-8.72.25-11,1.94-12.33,5.72-14.2,41.83-28.74,83.63-43.16,125.44-2.34,6.77-4.59,13.55-7,20.75,45.47-2.67,89.68-5.26,133.86-7.91,1.51-.09,3.9-.73,4.12-1.28,2.36-5.86,4.36-11.76,6.61-18.06l-78.27,4.56ZM1556.8,240.05c18.81-1.08,36.12-2.12,53.47-3,4.45-.23,5.82-1.22,6.54-3.32q19.92-58.26,40.21-116.49c3.61-10.41,7.19-20.83,11-31.76-16.36.94-31.83,1.77-47.26,2.74-12,.75-11.84.85-13.81,6.57q-20,58.05-40.09,116.11C1563.53,220.41,1560.23,230,1556.8,240.05Z"/><path class="q" d="M3132.32,531.35,3019,538q-69,4.08-138.05,8.22c-40.1,2.34-80.24,4.55-120.34,6.9q-69.82,4.08-139.63,8.28c-40.35,2.36-80.73,4.58-121.09,6.93q-69.45,4-138.88,8.22c-32.07,1.87-64.18,3.57-96.25,5.45-37,2.16-73.91,4.49-110.88,6.65-40.61,2.37-81.26,4.57-121.87,6.93-37.48,2.18-74.92,4.52-112.4,6.71-31.53,1.84-63.09,3.53-94.63,5.35-29.73,1.71-59.43,3.53-89.15,5.24q-47.68,2.73-95.4,5.35c-15.19.86-30.37,1.77-45.74,2q13.42-.93,26.85-1.91a28.44,28.44,0,0,0,3.68-.57c23.52-4.68,47.56-8.84,70.41-14.18,29.74-7,60.19-13.64,84.64-24.76,6.11-2.77,12.68-2.7,19.16-3.12,34-2.22,68.16-4.13,102.27-6.08,32.06-1.84,64.16-3.55,96.23-5.4,38.54-2.22,77-4.57,115.59-6.79q60.91-3.49,121.89-6.87c38.82-2.23,77.61-4.57,116.43-6.8q60.55-3.45,121.15-6.83,71.82-4.11,143.62-8.34c40.38-2.31,80.79-4.49,121.17-6.81,47.88-2.75,95.73-5.62,143.62-8.35q75.71-4.32,151.46-8.5c29-1.65,58-3.43,86.93-5.11,4.13-.24,8.32-.21,12.49-.3Z"/><path class="p" d="M.08,113.64,158.28,104l132.65-8q70.17-4.23,140.3-8.6c36.18-2.21,72.39-4.31,108.57-6.51q57-3.46,114-7,67.43-4.11,134.92-8.12,57-3.45,114-7,67.47-4.11,135-8.16,69-4.2,138-8.48,67.86-4.14,135.75-8.2,69-4.2,138-8.51,67.5-4.11,135-8.16Q1667.06,12.17,1749.63,7c8-.49,16-1.13,24.06-1.31,2.55-.05,5.21,1.18,7.82,1.82-2.18,1-4.14,2.6-6.59,2.8-13.1,1.06-26.31,1.79-39.49,2.6q-48.06,2.94-96.13,5.83Q1585,22,1530.73,25.22q-69.8,4.26-139.56,8.62-67.08,4.11-134.19,8.09-69.4,4.23-138.79,8.55c-45,2.74-90,5.36-135,8.1q-69,4.23-138,8.55-67.47,4.11-135,8.13Q640,79.55,569.89,83.93c-36.18,2.21-72.4,4.29-108.59,6.49-38.24,2.33-76.45,4.78-114.7,7.11-36.43,2.22-72.9,4.31-109.34,6.53q-57,3.48-113.92,7.08-58.52,3.63-117,7.19c-2,.13-4.15,0-6.23-.07Z"/><path class="p" d="M502.23,57.85l-5.74-2c2.43-1,4.67-2.72,7.33-2.89,38.48-2.45,77-4.65,115.54-7q69.78-4.24,139.53-8.59,67.47-4.09,135-8.09c47.29-2.88,94.55-5.89,141.84-8.76,44.19-2.69,88.42-5.23,132.62-7.9Q1213.7,9.89,1259,7c4-.26,8.68-.62,9.22,1.9.17.81-4.44,2.52-7.19,2.72-21.89,1.57-43.85,2.92-65.8,4.26q-47.67,2.91-95.35,5.72L964.23,29.73c-38,2.31-75.92,4.73-113.9,7-37,2.24-73.93,4.36-110.88,6.61Q669.7,47.6,600,52C568.14,53.93,536.34,55.8,502.23,57.85Z"/><path class="p" d="M3042.88,238.53c1.13.38,5.22,1,5.72,2.09,1.13,2.35-3.14,2.62-7,2.85q-62.42,3.75-124.81,7.56c-38.49,2.37-77,4.83-115.45,7.17q-67,4.07-134.13,8c-38,2.3-75.93,4.71-113.91,7q-55.82,3.39-111.65,6.66c-13.18.8-26.32,1.7-39.48,2.57-4,.27-8.76.71-8.91-2-.06-.9,4.5-2.5,7.28-2.7,21.63-1.55,43.35-2.86,65-4.19q48-2.94,96.12-5.8L2671,261.23q56.58-3.42,113.13-7c37.47-2.28,74.95-4.45,112.41-6.74q70.53-4.32,141-8.76Z"/><path class="p" d="M1643.15,653.36c-1.09-.59-4.54-2-4.16-2.31a12.62,12.62,0,0,1,6.45-2.92c17.24-1.24,34.57-2.19,51.88-3.19q36-2.09,72.09-4.12,57.39-3.29,114.78-6.61c31-1.82,62-3.77,93-5.58,37.75-2.21,75.52-4.32,113.27-6.53,31.28-1.83,62.54-3.78,93.82-5.61,37.49-2.2,75-4.29,112.49-6.49q59.74-3.48,119.46-7.11l35.73-2c3.54-.18,8.39-.5,8,2.1-.15,1-4.35,2.42-7,2.58-53.26,3.21-106.57,6.23-159.84,9.37-48.87,2.88-97.71,5.9-146.58,8.78-45.5,2.69-91,5.23-136.56,7.91-48.86,2.89-97.69,5.92-146.56,8.79q-68.6,4-137.25,7.89-39.17,2.27-78.3,4.62C1646.89,653,1645.87,653.13,1643.15,653.36Z"/><path class="p" d="M80.59,411.64l-4.42-2.09c1.89-.92,3.59-2.51,5.72-2.66,22.42-1.6,44.89-3,67.38-4.38q48.06-2.91,96.17-5.73l138.88-8.18c38-2.29,76-4.77,114-7.07,45.24-2.74,90.52-5.34,135.76-8.07q70.54-4.24,141.07-8.64,58.53-3.57,117.08-7c2.53-.15,5.41,1.2,8.14,1.85-2.2,1-4.19,2.65-6.62,2.81-27.09,1.84-54.24,3.46-81.38,5.1q-48.09,2.9-96.19,5.74-68.25,4-136.5,8.12-96.94,5.85-193.87,11.78c-44.47,2.68-89,5.24-133.42,7.93q-71,4.29-141.86,8.71C101.23,410.43,91.88,411,80.59,411.64Z"/><path class="q" d="M1304.5,637l20.73-2.12c.14.46.28.91.43,1.37a71.69,71.69,0,0,1-21.29.57Z"/><path class="r" d="M2178.69,507c-1.89.26-2.88.47-3.89.53-18.11,1.07-36.22,2.12-55.55,3.24-2.64-11.19-5.3-22.27-7.85-33.37s-5-22-7.5-33.28c-8.21.5-15.5.73-22.54,1.5a6.49,6.49,0,0,0-4.58,3.13c-7.45,20.89-14.59,41.8-22,62.68a6.22,6.22,0,0,1-4.44,3.23c-18.25,1.32-36.6,2.34-56.16,3.51,2.12-6.42,4-12.34,6-18.24q22.5-65,45.2-129.88a6.36,6.36,0,0,1,4.51-3.16c35.73-1.91,71.48-3.83,107.32-5.16,8.77-.33,18.12,1,26.75,2.25,15.79,2.34,26.3,7.68,28,15.69,3.77,17.92-3.84,34.44-29.92,48-4.87,2.55-11.25,4.51-17.43,6.33-3.62,1.07-5.16,2-4.56,4.1,6.12,21.63,12,43.27,18,64.91A38.52,38.52,0,0,1,2178.69,507Zm-95.09-78.45c14.06-1.55,26.64-2.25,38-4.43,8-1.54,16.14-4.48,21.22-7.85,11.27-7.49,14.36-16.41,12.62-25.56-1.18-6.21-7.54-9.23-20.22-9.4-10.61-.14-21.3.48-31.89,1-1.71.09-4,1.46-4.49,2.41-1.74,3.81-2.85,7.69-4.18,11.54C2091.13,406.62,2087.6,416.93,2083.6,428.58Z"/><path class="s" d="M1486.53,433.59c-3.72,11.45-7.17,22.93-11.24,34.36-5.44,15.29-9.84,30.72-17.39,45.76-13.38,26.65-51.79,41.88-108.43,44.19-10.33.42-20.88.54-31.17,0-26.31-1.32-41-8.65-45.14-21.34-3.08-9.56,0-18.88,3.25-28.23,6.75-19.15,13.1-38.34,20.58-57.43,2.31-5.88,6.74-11.7,12-17.15,18.48-19.3,52.24-28,94.24-30.44a320.36,320.36,0,0,1,35.06-.3c28.72,1.57,43.62,9.36,46.36,23.28.47,2.39.52,4.8.76,7.19ZM1331.3,522.38c-.31,10.25,3.89,13.75,14.79,14.88,18.22,1.89,38.41-2.83,46.22-11.1a27.87,27.87,0,0,0,6.24-9.32c8.09-22.48,16-45,23.53-67.49a51.57,51.57,0,0,0,3.06-18c-.17-5.11-6-7.32-16.43-7.92-21.06-1.2-38.26,3.67-45.84,13.21a31.08,31.08,0,0,0-5,8.73c-5.82,16.14-11.41,32.31-17,48.48C1337.35,504.15,1334,514.48,1331.3,522.38Z"/><path class="t" d="M1489.89,149.73c2.24-7.31,4.38-14.13,6.39-20.95a15.39,15.39,0,0,0,.74-4.91c-.2-5.63-6.3-8.54-18-8.75-21.45-.37-37.47,4.55-42.77,14.69-5.8,11.1-9.62,22.47-13.58,33.77-5.93,16.92-12,33.84-16.54,50.84-3.9,14.5,12.1,17.31,37.33,13.31,12.61-2,19.35-6.89,22.28-12.75,3.8-7.59,6.45-15.32,9.23-23,.69-1.9,1.85-2.92,6.08-3.14,17.06-.9,34.1-1.91,53.3-3-4.06,9-6.95,17.7-12,26.08-7.15,12-20.27,22.27-42.73,28.93-27.23,8.07-57.29,10.85-88.7,8.67-27.39-1.91-42.68-9.71-43.71-23.17-.74-9.62,1.62-19.38,4.54-28.94,5.41-17.72,11.89-35.37,18.68-53,2.13-5.54,5.84-11,10.23-16.25,18.14-21.6,54-31.21,99.81-33.41a256.9,256.9,0,0,1,36.49.56c22.76,2.21,35.68,9.11,36.07,20.3.32,9.63-3.31,19.29-5.52,28.92-.17.75-2.7,1.88-4.37,2C1525.69,147.73,1508.15,148.65,1489.89,149.73Z"/><path class="u" d="M1648.91,234.61c13.21-17.27,25.85-33.83,38.52-50.38,25.82-33.73,51.74-67.44,77.35-101.21,2-2.64,4.74-3.74,10.35-4,17.85-.92,35.65-2,54.28-3.15a25.33,25.33,0,0,1,1.17,4.17c4.36,46.31,8.6,92.62,13.14,138.93.33,3.4-1.41,4.54-8.63,4.8-15.26.57-30.44,1.71-47.07,2.69V192.19c-13.49.74-25.53,2-37.54,1.91-16.08-.07-23,3.51-26.67,10.79-4.06,8.06-10.76,15.81-16.67,23.64a9.21,9.21,0,0,1-5.67,2.93C1684.48,232.66,1667.4,233.55,1648.91,234.61Zm137.38-60.13V116.37l-1.28-.09L1743.56,177Z"/><path class="v" d="M816.23,235.43c0,5.49-.66,10.29.18,15,.93,5.29,4,10.36,16.16,12.27,11,1.71,26.26-.8,33.93-5.34,14.07-8.34,13.5-22.3-2.54-29.92-12.44-5.91-26.36-11.09-39.67-16.57-4.56-1.88-9.29-3.68-13.87-5.55-24.74-10.11-27.83-23.09-20.27-37.23C802,146,833.79,134.52,878.43,130.38a268.61,268.61,0,0,1,27.21-.95c28.19.31,44.28,7.48,48.15,21.06,4.18,14.66,3.91,14.88-25.15,19.16-8.66,1.27-17.35,2.49-26.36,3.78,0-4.52.4-8.67-.08-12.8-1-8.18-10.16-11.43-26.77-9.74-29.53,3-41.88,20.91-20.91,31.49,11.67,5.89,25.91,10.57,38.33,16.14,10.26,4.61,21.28,9.17,28.93,14.73,21.06,15.31,16.4,31.2-1.74,46.12-25.63,21.07-74.94,28-115.21,24.64-24.59-2-39.52-10.6-41.89-23.61-.86-4.76-.34-9.58,0-14.37.07-1,1.64-2.66,3.28-2.93C782.7,240.45,799.34,238,816.23,235.43Z"/><path class="v" d="M2266.63,456.91c0,5.49-.66,10.29.18,15,.93,5.29,4,10.36,16.16,12.27,11,1.71,26.26-.8,33.93-5.34,14.07-8.34,13.5-22.3-2.54-29.92-12.44-5.91-26.36-11.09-39.67-16.57-4.56-1.88-9.29-3.68-13.87-5.55-24.74-10.11-27.83-23.09-20.27-37.23,11.83-22.12,43.64-33.57,88.28-37.71a265.63,265.63,0,0,1,27.21-.95c28.19.31,44.28,7.48,48.15,21.06,4.18,14.66,3.91,14.88-25.15,19.16-8.66,1.27-17.35,2.49-26.36,3.78,0-4.52.4-8.67-.08-12.8-1-8.18-10.16-11.43-26.77-9.74-29.53,3-41.88,20.91-20.91,31.49,11.67,5.89,25.91,10.57,38.33,16.14,10.26,4.61,21.28,9.17,28.93,14.73,21.06,15.31,16.4,31.2-1.74,46.12-25.63,21.07-74.94,28-115.21,24.64-24.59-2-39.52-10.6-41.89-23.61-.86-4.76-.34-9.58,0-14.37.07-1,1.64-2.66,3.28-2.93C2233.1,461.93,2249.74,459.47,2266.63,456.91Z"/><path class="w" d="M955.66,275.61c3.78-11.07,7.25-21.37,10.81-31.67,13.44-38.81,27-77.61,40.23-116.43.85-2.48,2.65-3.33,7.68-3.61,31.84-1.78,63.63-3.8,95.49-5.52a175.19,175.19,0,0,1,21,.32c25.71,1.77,39.83,8.73,41.94,21.18,2.25,13.24-2.48,26-16,37.65-17.85,15.32-47.29,22.14-81.75,24.81-9.77.76-19.64,1.26-29.5,1.72-4.87.23-6.92,1.15-7.75,3.63-6.85,20.41-14.11,40.8-21,61.21-.73,2.15-1.83,3.3-6.92,3.55C992.28,273.33,974.75,274.48,955.66,275.61Zm90-90.16c14.34-1.38,26.92-2.3,39.16-3.84,10.87-1.38,18.56-4.94,23-10,6.63-7.54,9.35-15.48,9.19-23.6-.12-6.09-6.35-9.15-19-9.14-10.62,0-21.22.88-31.86,1.2-4.34.13-5.51,1.07-6.08,3-1.58,5.36-3.73,10.68-5.57,16-2.8,8.44-5.61,16.86-8.82,26.38Z"/><path class="x" d="M1354.81,104c-2.09,5.93-4.25,11.38-5.8,16.87-.59,2.08-2.46,2.64-6.43,2.86-20.46,1.13-40.86,2.59-61.36,3.51-8.13.37-11.35,1.75-12.5,5.74-3.37,11.61-7.75,23.16-11.7,34.73a29.3,29.3,0,0,0-.67,3.33l60.17-3.35c-1.58,4.91-3.75,9.53-4.36,14.2-.58,4.49-5.15,5.73-13.58,6-14.55.53-29,1.48-43.49,2.48-2.43.16-6.22,1.29-6.56,2.21-5.61,15.28-10.78,30.59-16,45.9a5.56,5.56,0,0,0,.15,1.87l77.1-4.46c-1.21,3.69-2.36,7.07-3.42,10.46-2.74,8.83-2.75,8.71-20.64,9.73-37,2.1-74,4.35-111,6.52-2.78.16-5.58.24-9.32.39,3.44-10,6.71-19.71,10-29.36q19.89-57.64,39.83-115.32c2.72-7.82,0-6.26,15.2-7.17q59.77-3.54,119.54-7.13C1351.23,104,1352.47,104,1354.81,104Z"/><path class="y" d="M1912.09,436.37l61.08-3.52c-2.15,6.26-4,12.07-6.33,17.82-.32.78-3.39,1.71-5.39,1.85-16.52,1.1-33.12,2-49.62,3.12-2.6.18-6.6,1.42-7,2.43-5.61,15.14-10.74,30.33-15.94,45.5a7.44,7.44,0,0,0,0,2l77.48-4.5c-2.14,6.25-4,12.15-6.38,18-.25.61-3.11,1.29-4.9,1.39-43.94,2.62-87.9,5.17-133.15,7.81,2.06-6.23,3.93-12.14,6-18q22.55-65.11,45-130.24c.72-2.07,2.08-3.06,6.62-3.32q63.68-3.66,127.31-7.48c1-.06,2,0,4.11,0l-6.59,19.29c-23.25,1.38-46.2,2.83-69.21,4-5.76.3-8.52,1-9.48,4.1C1921.59,409.73,1916.82,422.73,1912.09,436.37Z"/><path class="z" d="M1581.23,456.08l59-3.4-6.6,19.42c-17.61,1.06-34.87,2.28-52.22,3-6.37.27-8.09,1.56-9,4.33-7,20.66-14.29,41.3-21.29,62-.69,2-1.89,3.13-6.46,3.37-17.59.92-35.14,2-54.09,3.06,2-6.12,3.79-11.91,5.79-17.69,14.89-43,29.91-86.08,44.56-129.14,1.13-3.31,3.32-4.51,10.45-4.9,40.4-2.2,80.73-4.73,121.09-7.14,1.22-.07,2.48,0,4.51,0-2,6-3.73,11.7-6.15,17.34-.37.84-4,1.78-6.36,1.93q-28.31,1.83-56.68,3.33c-11.71.63-11.83.55-13.8,6.16-4.24,12.06-8.37,24.13-12.51,36.2A11,11,0,0,0,1581.23,456.08Z"/><path class="aa" d="M1842.65,379c-2.07,6.24-3.64,12-6.19,17.58-.42.92-5.11,1.77-8,2q-30.23,2-60.55,3.58c-4.87.27-6.89,1.07-7.7,3.61-4.25,13.33-9.06,26.62-13.9,40.57l59.74-3.41c-2.19,6.33-4.13,12.35-6.58,18.32-.26.64-3.46,1.29-5.44,1.42-15.77,1-31.55,2-47.37,2.75-5.26.26-7.47,1.09-8.37,3.79-6.93,20.8-14.32,41.56-21.4,62.35-.66,1.94-1.42,3.24-6.24,3.48-17.61.91-35.19,2-53.85,3.05a18.17,18.17,0,0,1,.49-3.73q19.85-57.48,39.79-115c3.41-9.83,6.61-19.67,10.35-29.47.46-1.22,3.4-3,5.57-3.16C1755.62,384.07,1798.31,381.61,1842.65,379Z"/><path class="ab" d="M1988,66.51l-45.58,132,78.27-4.56c-2.25,6.3-4.25,12.2-6.61,18.06-.22.55-2.61,1.19-4.12,1.28-44.18,2.65-88.39,5.24-133.86,7.91,2.43-7.2,4.68-14,7-20.75,14.42-41.81,29-83.61,43.16-125.44,1.28-3.78,3.61-5.47,12.33-5.72C1954.69,68.88,1970.62,67.56,1988,66.51Z"/><path class="ac" d="M1556.8,240.05c3.47-10.09,6.73-19.64,10-29.19q20.06-58.05,40.09-116.11c2-5.72,1.79-5.82,13.81-6.57,15.43-1,30.9-1.8,47.26-2.74-3.77,10.93-7.35,21.35-11,31.76q-20.1,58.23-40.15,116.53c-.72,2.1-2.09,3.09-6.54,3.32C1592.92,237.93,1575.61,239,1556.8,240.05Z"/><path class="p" d="M2083.6,428.58c4-11.65,7.53-22,11.07-32.27,1.33-3.85,2.44-7.73,4.18-11.54.44-.95,2.78-2.32,4.49-2.41,10.59-.54,21.28-1.16,31.89-1,12.68.17,19,3.19,20.22,9.4,1.74,9.15-1.35,18.07-12.62,25.56-5.08,3.37-13.19,6.31-21.22,7.85C2110.23,426.33,2097.66,427,2083.6,428.58Z"/><path class="p" d="M1331.3,522.38c2.65-7.9,6-18.23,9.61-28.54,5.58-16.17,11.17-32.34,17-48.48a31.08,31.08,0,0,1,5-8.73c7.58-9.54,24.78-14.41,45.84-13.21,10.43.6,16.26,2.81,16.43,7.92a51.57,51.57,0,0,1-3.06,18c-7.5,22.52-15.44,45-23.53,67.49a27.87,27.87,0,0,1-6.24,9.32c-7.81,8.27-28,13-46.22,11.1C1335.23,536.13,1331,532.63,1331.3,522.38Z"/><path class="p" d="M1786.29,174.48,1743.56,177,1785,116.28l1.28.09Z"/><path class="p" d="M1045.68,185.45c3.21-9.52,6-17.94,8.9-26.36,1.84-5.34,4-10.66,5.57-16,.57-1.94,1.74-2.88,6.08-3,10.64-.32,21.24-1.2,31.86-1.2,12.61,0,18.84,3.05,19,9.14.16,8.12-2.56,16.06-9.19,23.6-4.46,5.07-12.15,8.63-23,10C1072.6,183.15,1060,184.07,1045.68,185.45Z"/></svg>