<svg xmlns="http://www.w3.org/2000/svg" viewBox="0 0 3132.32 653.36"><defs><style>.a{fill:#fff;}.b{fill:#5ddeff;}.c{fill:#e8003d;}.d{fill:#64aaff;}.e{fill:#fdff75;}.f{fill:#17ff0a;}.g{fill:#fff748;}.h{fill:#ffca41;}.i{fill:#ff48ed;}.j{fill:#c4ff82;}.k{fill:#fffa91;}.l{fill:#fb0035;}.m{fill:#e375ff;}</style></defs><path d="M3132.32,535.9c-14.94,1-29.86,2.14-44.83,3q-50,3-100.06,5.83l-138.17,8q-60.14,3.51-120.25,7.06-57,3.33-114.06,6.6Q2542,570.67,2469.1,575c-37.75,2.21-75.53,4.32-113.28,6.53q-59.73,3.5-119.42,7.07-57,3.36-114.08,6.6-59.71,3.51-119.42,7.08c-38,2.23-76,4.34-114,6.59-40,2.37-80.06,4.91-120.11,7.28-28.94,1.71-57.94,3.21-86.88,4.92-31.24,1.84-62.43,3.86-93.67,5.7-28.66,1.7-57.37,3.22-86,4.89-22.73,1.32-45.42,2.79-68.15,4.11-29.17,1.69-58.36,3.29-87.54,5-14.47.83-28.91,1.84-43.41,2.46-3.16.14-8.51-.63-9.45-1.69-2.11-2.39,2.85-3,6.6-3.61a37.85,37.85,0,0,0,4-1.1,71.69,71.69,0,0,0,21.29-.57c-.15-.46-.29-.91-.43-1.37L1304.52,637c-7.75-3.67-17.69-3-27.18-3.21-6.4-.16-12.86-.18-19.16-.67-15.65-1.22-31.49-2.19-46.76-4.16-19.29-2.49-38.19-5.75-57.08-8.91a174.91,174.91,0,0,1-17.49-4.29c-.6-.17-.08-1.29-.08-2.12L807.84,632.19c3.2-10.27,6.15-19.83,9.18-29.38q7.76-24.48,15.59-48.94,11-34.56,22.07-69.11c8.8-27.4,18.37-54.75,26-82.22,1.85-6.67,8-9.52,19.17-12.31q157.91-39.33,315.38-79.12a8.36,8.36,0,0,0,4-1.9c-15.16.86-30.33,1.67-45.47,2.61-30.23,1.87-60.42,3.85-90.65,5.72q-46.87,2.91-93.88,5.71-67.47,4.11-135,8.18c-46,2.84-92,5.82-138,8.65Q638,344.9,559.62,349.59c-46.26,2.85-92.48,5.85-138.73,8.7-43.93,2.71-87.9,5.28-131.83,8-46,2.83-92,5.79-138,8.62q-66.3,4.11-132.63,8c-6.1.36-12.29.41-18.43.6V150.78l69-4.11q67.5-4.08,135-8.19c37.48-2.3,74.92-4.73,112.4-7q67.08-4.11,134.18-8.17,81-5,162.07-10.1,66.32-4.09,132.65-8.07,68.64-4.23,137.26-8.54c53.26-3.26,106.56-6.38,159.81-9.66,45.5-2.8,91-5.78,136.45-8.59q78.72-4.86,157.49-9.58,68.67-4.23,137.3-8.55,66.72-4.08,133.46-8.1,69-4.24,138.07-8.58,79.09-4.86,158.22-9.69c45.76-2.83,91.48-5.8,137.24-8.63q66-4.08,131.88-8,69-4.23,138-8.6Q2380.25,4.3,2450,0c1-.06,2,.1,4,.22-1.51,5.09-2.9,10-4.47,15q-13.93,43.95-28,87.86c-8.74,27.29-17.64,54.57-26.4,81.85-5.36,16.69-10.48,33.41-16.07,50.08-.48,1.41-3.19,3.14-5.85,3.81q-178.35,45-356.9,89.75a29,29,0,0,0-2.71,1.1c15.79-.92,30.37-1.78,45-2.6l117.25-6.58q60.95-3.48,121.84-7.08c38.82-2.22,77.67-4.33,116.49-6.55,40.62-2.32,81.21-4.76,121.83-7.08,39.07-2.23,78.18-4.33,117.25-6.57,40.36-2.31,80.69-4.75,121.06-7.06,39.07-2.23,78.18-4.34,117.26-6.57q60.95-3.48,121.85-7.1,55.11-3.19,110.24-6.33c2.82-.16,5.71,0,8.57,0v233.5c-4.17.09-8.36.06-12.49.3-29,1.68-57.94,3.46-86.93,5.11q-75.72,4.31-151.46,8.5c-47.89,2.73-95.74,5.6-143.62,8.35-40.38,2.32-80.79,4.5-121.17,6.81Q2544.77,532.82,2473,537q-60.55,3.47-121.15,6.83c-38.82,2.23-77.61,4.57-116.43,6.8q-60.94,3.48-121.89,6.87c-38.54,2.22-77,4.57-115.59,6.79-32.07,1.85-64.17,3.56-96.23,5.4-34.11,2-68.24,3.86-102.27,6.08-6.48.42-13,.35-19.16,3.12-24.45,11.12-54.9,17.8-84.64,24.76-22.85,5.34-46.89,9.5-70.41,14.18a30.94,30.94,0,0,1-3.71.52q-13.42,1-26.85,1.91c15.37-.2,30.55-1.11,45.74-2q47.7-2.7,95.4-5.35c29.72-1.71,59.42-3.53,89.15-5.24,31.54-1.82,63.1-3.51,94.63-5.35,37.48-2.19,74.92-4.53,112.4-6.71,40.61-2.36,81.26-4.56,121.87-6.93,37-2.16,73.91-4.49,110.88-6.65,32.07-1.88,64.18-3.58,96.25-5.45q69.47-4,138.88-8.22c40.36-2.35,80.74-4.57,121.09-6.93q69.84-4.08,139.63-8.28c40.1-2.35,80.24-4.56,120.34-6.9q69-4,138-8.22,56.64-3.36,113.31-6.63ZM2178.69,507a38.28,38.28,0,0,0-.66-3.95c-6-21.64-11.86-43.28-18-64.91-.6-2.12.94-3,4.56-4.1,6.18-1.82,12.56-3.78,17.43-6.33,26.08-13.6,33.69-30.12,29.92-48-1.69-8-12.2-13.35-28-15.69-8.63-1.29-18-2.58-26.75-2.25-35.84,1.33-71.59,3.25-107.32,5.16a6.36,6.36,0,0,0-4.51,3.16Q2022.58,435,2000.16,500c-2,5.9-3.92,11.82-6,18.24,19.56-1.17,37.91-2.19,56.16-3.51a6.22,6.22,0,0,0,4.44-3.23c7.44-20.88,14.58-41.79,22-62.68.42-1.18,2.62-2.91,4.58-3.13,7-.77,14.33-1,22.54-1.5,2.54,11.29,5,22.29,7.5,33.28s5.21,22.18,7.85,33.37c19.33-1.12,37.44-2.17,55.55-3.24C2175.81,507.5,2176.8,507.29,2178.69,507Zm-692.16-73.44-1.15-.11c-.24-2.39-.29-4.8-.76-7.19-2.74-13.92-17.64-21.71-46.36-23.28a320.36,320.36,0,0,0-35.06.3c-42,2.39-75.73,11.14-94.25,30.47-5.22,5.45-9.65,11.27-12,17.15-7.48,19.09-13.83,38.28-20.58,57.43-3.3,9.35-6.33,18.67-3.25,28.23,4.1,12.69,18.83,20,45.14,21.34,10.29.51,20.84.39,31.17,0,56.64-2.31,95-17.54,108.43-44.19,7.55-15,12-30.47,17.39-45.76C1479.36,456.52,1482.81,445,1486.53,433.59Zm3.36-283.86c18.26-1.07,35.8-2,53.28-3.19,1.67-.11,4.2-1.24,4.37-2,2.21-9.63,5.84-19.29,5.52-28.92-.39-11.19-13.31-18.09-36.07-20.3a256.9,256.9,0,0,0-36.49-.56c-45.79,2.2-81.67,11.81-99.81,33.41-4.39,5.23-8.1,10.71-10.23,16.25-6.79,17.61-13.27,35.26-18.68,53-2.92,9.56-5.28,19.32-4.54,28.94,1,13.46,16.32,21.26,43.71,23.17,31.41,2.18,61.47-.6,88.7-8.67,22.46-6.66,35.58-17,42.73-28.93,5-8.38,7.91-17,12-26.08-19.2,1.1-36.24,2.11-53.3,3-4.23.22-5.39,1.24-6.08,3.14-2.78,7.7-5.43,15.43-9.23,23-2.93,5.86-9.67,10.78-22.28,12.75-25.27,3.94-41.25,1.17-37.35-13.34,4.57-17,10.61-33.92,16.54-50.84,4-11.3,7.78-22.67,13.58-33.77,5.3-10.14,21.32-15.06,42.77-14.69,11.72.21,17.82,3.12,18,8.75a15.39,15.39,0,0,1-.74,4.91C1494.23,135.59,1492.13,142.41,1489.89,149.73Zm159,84.89c18.49-1.06,35.57-2,52.56-3.15a9.21,9.21,0,0,0,5.67-2.93c5.91-7.83,12.61-15.58,16.67-23.64,3.67-7.28,10.59-10.86,26.67-10.79,12,.06,24-1.17,37.54-1.91v34.23c16.63-1,31.81-2.12,47.07-2.69,7.22-.26,9-1.4,8.63-4.8-4.54-46.31-8.78-92.62-13.14-138.93a25.33,25.33,0,0,0-1.17-4.17c-18.63,1.1-36.43,2.23-54.28,3.15-5.61.29-8.35,1.39-10.35,4-25.61,33.77-51.53,67.48-77.35,101.21-12.65,16.58-25.29,33.14-38.5,50.41Zm-832.66.81c-16.88,2.56-33.52,5-50,7.7-1.64.27-3.21,1.9-3.28,2.93-.34,4.79-.86,9.61,0,14.37,2.37,13,17.3,21.56,41.89,23.61,40.27,3.34,89.58-3.57,115.21-24.64,18.14-14.92,22.8-30.81,1.74-46.12-7.65-5.56-18.67-10.12-28.93-14.73-12.42-5.57-26.66-10.25-38.33-16.14-21-10.58-8.62-28.47,20.91-31.49,16.61-1.69,25.8,1.56,26.77,9.74.48,4.13.08,8.28.08,12.8,9-1.29,17.7-2.51,26.36-3.78,29.06-4.28,29.33-4.5,25.15-19.16-3.87-13.58-20-20.75-48.15-21.06a268.61,268.61,0,0,0-27.21.95C833.8,134.55,802,146,790.16,168.12c-7.56,14.14-4.47,27.12,20.27,37.23,4.58,1.87,9.31,3.67,13.87,5.55,13.31,5.48,27.23,10.66,39.67,16.57,16,7.62,16.61,21.58,2.54,29.92-7.67,4.54-22.94,7.05-33.93,5.34-12.18-1.91-15.23-7-16.16-12.27C815.56,245.73,816.23,240.92,816.23,235.43Zm139.44,40.18c19.09-1.13,36.62-2.28,54.2-3.16,5.09-.25,6.19-1.4,6.92-3.55,6.92-20.41,14.18-40.8,21-61.21.83-2.48,2.88-3.4,7.75-3.63,9.86-.46,19.73-1,29.5-1.72,34.46-2.67,63.9-9.49,81.75-24.81,13.55-11.64,18.28-24.41,16-37.65-2.11-12.45-16.23-19.41-41.94-21.18a175.19,175.19,0,0,0-21-.32c-31.86,1.72-63.65,3.74-95.49,5.52-5,.28-6.83,1.13-7.68,3.61-13.25,38.82-26.79,77.62-40.23,116.43-3.54,10.3-7,20.6-10.79,31.67ZM1354.81,104c-2.34,0-3.6-.06-4.83,0l-119.54,7.13c-15.21.91-12.48-.65-15.2,7.17q-20,57.67-39.84,115.39c-3.33,9.65-6.6,19.31-10,29.36,3.74-.15,6.54-.23,9.32-.39,37-2.17,74-4.42,111-6.52,17.89-1,17.9-.9,20.64-9.73,1.06-3.39,2.21-6.77,3.42-10.46l-77.1,4.46c-.09-.92-.3-1.41-.15-1.87,5.23-15.31,10.4-30.62,16-45.9.34-.92,4.13-2.05,6.56-2.21,14.45-1,28.94-1.95,43.49-2.48,8.43-.31,13-1.55,13.58-6,.61-4.67,2.78-9.29,4.36-14.2l-60.17,3.37a29.3,29.3,0,0,1,.67-3.33c4-11.57,8.33-23.12,11.7-34.73,1.15-4,4.37-5.37,12.5-5.74,20.5-.92,40.9-2.38,61.36-3.51,4-.22,5.84-.78,6.43-2.86C1350.56,115.42,1352.72,110,1354.81,104Zm557.28,332.33c4.73-13.62,9.5-26.64,13.61-39.71,1-3.07,3.72-3.8,9.48-4.1,23-1.19,46-2.64,69.21-4l6.59-19.29c-2.1,0-3.12-.06-4.11,0l-127.31,7.46c-4.54.26-5.9,1.25-6.62,3.32q-22.37,65.13-45,130.24c-2,5.89-3.91,11.8-6,18,45.25-2.64,89.21-5.19,133.15-7.81,1.79-.1,4.65-.78,4.9-1.39,2.34-5.87,4.24-11.77,6.38-18l-77.48,4.5a7.44,7.44,0,0,1,0-2c5.2-15.17,10.33-30.36,15.94-45.5.38-1,4.38-2.25,7-2.43,16.5-1.17,33.1-2,49.62-3.12,2-.14,5.07-1.07,5.39-1.85,2.38-5.75,4.18-11.56,6.33-17.82Zm-330.86,19.71a11,11,0,0,1,.21-2.14c4.14-12.07,8.27-24.14,12.51-36.2,2-5.61,2.09-5.53,13.8-6.16q28.37-1.53,56.68-3.33c2.34-.15,6-1.09,6.36-1.93,2.42-5.64,4.11-11.35,6.15-17.34-2,0-3.29-.06-4.51,0-40.36,2.41-80.69,4.94-121.09,7.14-7.13.39-9.32,1.59-10.45,4.9-14.65,43.06-29.67,86.1-44.56,129.14-2,5.78-3.79,11.57-5.79,17.69,19-1.08,36.5-2.14,54.09-3.06,4.57-.24,5.77-1.32,6.46-3.37,7-20.66,14.33-41.3,21.29-62,.93-2.77,2.65-4.06,9-4.33,17.35-.76,34.61-2,52.22-3l6.63-19.36ZM1842.68,379c-44.34,2.6-87,5.06-129.67,7.72-2.17.14-5.11,1.94-5.57,3.16-3.74,9.8-6.94,19.64-10.35,29.47q-19.9,57.51-39.79,115a18.17,18.17,0,0,0-.49,3.73c18.66-1.07,36.24-2.14,53.85-3.05,4.82-.24,5.58-1.54,6.24-3.48,7.08-20.79,14.47-41.55,21.4-62.35.9-2.7,3.11-3.53,8.37-3.79,15.82-.77,31.6-1.75,47.37-2.75,2-.13,5.18-.78,5.44-1.42,2.45-6,4.39-12,6.58-18.32l-59.74,3.41c4.84-14,9.65-27.24,13.9-40.57.81-2.54,2.83-3.34,7.7-3.61q30.32-1.64,60.55-3.58c2.91-.19,7.6-1,8-2,2.54-5.6,4.11-11.33,6.18-17.57Zm145.39-312.5c-17.42,1-33.35,2.37-49.39,2.82-8.72.25-11,1.94-12.33,5.72-14.2,41.83-28.74,83.63-43.16,125.44-2.34,6.77-4.59,13.55-7,20.75,45.47-2.67,89.68-5.26,133.86-7.91,1.51-.09,3.9-.73,4.12-1.28,2.36-5.86,4.36-11.76,6.61-18.06l-78.27,4.56ZM1556.8,240.05c18.81-1.08,36.12-2.12,53.47-3,4.45-.23,5.82-1.22,6.54-3.32q19.92-58.26,40.21-116.49c3.61-10.41,7.19-20.83,11-31.76-16.36.94-31.83,1.77-47.26,2.74-12,.75-11.84.85-13.81,6.57q-20,58.05-40.09,116.11C1563.53,220.41,1560.23,230,1556.8,240.05Z"/><path class="a" d="M3132.32,531.35,3019,538q-69,4.08-138.05,8.22c-40.1,2.34-80.24,4.55-120.34,6.9q-69.82,4.08-139.63,8.28c-40.35,2.36-80.73,4.58-121.09,6.93q-69.45,4-138.88,8.22c-32.07,1.87-64.18,3.57-96.25,5.45-37,2.16-73.91,4.49-110.88,6.65-40.61,2.37-81.26,4.57-121.87,6.93-37.48,2.18-74.92,4.52-112.4,6.71-31.53,1.84-63.09,3.53-94.63,5.35-29.73,1.71-59.43,3.53-89.15,5.24q-47.68,2.73-95.4,5.35c-15.19.86-30.37,1.77-45.74,2q13.42-.93,26.85-1.91a28.44,28.44,0,0,0,3.68-.57c23.52-4.68,47.56-8.84,70.41-14.18,29.74-7,60.19-13.64,84.64-24.76,6.11-2.77,12.68-2.7,19.16-3.12,34-2.22,68.16-4.13,102.27-6.08,32.06-1.84,64.16-3.55,96.23-5.4,38.54-2.22,77-4.57,115.59-6.79q60.91-3.49,121.89-6.87c38.82-2.23,77.61-4.57,116.43-6.8q60.55-3.45,121.15-6.83,71.82-4.11,143.62-8.34c40.38-2.31,80.79-4.49,121.17-6.81,47.88-2.75,95.73-5.62,143.62-8.35q75.71-4.32,151.46-8.5c29-1.65,58-3.43,86.93-5.11,4.13-.24,8.32-.21,12.49-.3Z"/><path d="M.08,113.64,158.28,104l132.65-8q70.17-4.23,140.3-8.6c36.18-2.21,72.39-4.31,108.57-6.51q57-3.46,114-7,67.43-4.11,134.92-8.12,57-3.45,114-7,67.47-4.11,135-8.16,69-4.2,138-8.48,67.86-4.14,135.75-8.2,69-4.2,138-8.51,67.5-4.11,135-8.16Q1667.06,12.17,1749.63,7c8-.49,16-1.13,24.06-1.31,2.55-.05,5.21,1.18,7.82,1.82-2.18,1-4.14,2.6-6.59,2.8-13.1,1.06-26.31,1.79-39.49,2.6q-48.06,2.94-96.13,5.83Q1585,22,1530.73,25.22q-69.8,4.26-139.56,8.62-67.08,4.11-134.19,8.09-69.4,4.23-138.79,8.55c-45,2.74-90,5.36-135,8.1q-69,4.23-138,8.55-67.47,4.11-135,8.13Q640,79.55,569.89,83.93c-36.18,2.21-72.4,4.29-108.59,6.49-38.24,2.33-76.45,4.78-114.7,7.11-36.43,2.22-72.9,4.31-109.34,6.53q-57,3.48-113.92,7.08-58.52,3.63-117,7.19c-2,.13-4.15,0-6.23-.07Z"/><path d="M502.23,57.85l-5.74-2c2.43-1,4.67-2.72,7.33-2.89,38.48-2.45,77-4.65,115.54-7q69.78-4.24,139.53-8.59,67.47-4.09,135-8.09c47.29-2.88,94.55-5.89,141.84-8.76,44.19-2.69,88.42-5.23,132.62-7.9Q1213.7,9.89,1259,7c4-.26,8.68-.62,9.22,1.9.17.81-4.44,2.52-7.19,2.72-21.89,1.57-43.85,2.92-65.8,4.26q-47.67,2.91-95.35,5.72L964.23,29.73c-38,2.31-75.92,4.73-113.9,7-37,2.24-73.93,4.36-110.88,6.61Q669.7,47.6,600,52C568.14,53.93,536.34,55.8,502.23,57.85Z"/><path d="M3042.88,238.53c1.13.38,5.22,1,5.72,2.09,1.13,2.35-3.14,2.62-7,2.85q-62.42,3.75-124.81,7.56c-38.49,2.37-77,4.83-115.45,7.17q-67,4.07-134.13,8c-38,2.3-75.93,4.71-113.91,7q-55.82,3.39-111.65,6.66c-13.18.8-26.32,1.7-39.48,2.57-4,.27-8.76.71-8.91-2-.06-.9,4.5-2.5,7.28-2.7,21.63-1.55,43.35-2.86,65-4.19q48-2.94,96.12-5.8L2671,261.23q56.58-3.42,113.13-7c37.47-2.28,74.95-4.45,112.41-6.74q70.53-4.32,141-8.76Z"/><path d="M1643.15,653.36c-1.09-.59-4.54-2-4.16-2.31a12.62,12.62,0,0,1,6.45-2.92c17.24-1.24,34.57-2.19,51.88-3.19q36-2.09,72.09-4.12,57.39-3.29,114.78-6.61c31-1.82,62-3.77,93-5.58,37.75-2.21,75.52-4.32,113.27-6.53,31.28-1.83,62.54-3.78,93.82-5.61,37.49-2.2,75-4.29,112.49-6.49q59.74-3.48,119.46-7.11l35.73-2c3.54-.18,8.39-.5,8,2.1-.15,1-4.35,2.42-7,2.58-53.26,3.21-106.57,6.23-159.84,9.37-48.87,2.88-97.71,5.9-146.58,8.78-45.5,2.69-91,5.23-136.56,7.91-48.86,2.89-97.69,5.92-146.56,8.79q-68.6,4-137.25,7.89-39.17,2.27-78.3,4.62C1646.89,653,1645.87,653.13,1643.15,653.36Z"/><path d="M80.59,411.64l-4.42-2.09c1.89-.92,3.59-2.51,5.72-2.66,22.42-1.6,44.89-3,67.38-4.38q48.06-2.91,96.17-5.73l138.88-8.18c38-2.29,76-4.77,114-7.07,45.24-2.74,90.52-5.34,135.76-8.07q70.54-4.24,141.07-8.64,58.53-3.57,117.08-7c2.53-.15,5.41,1.2,8.14,1.85-2.2,1-4.19,2.65-6.62,2.81-27.09,1.84-54.24,3.46-81.38,5.1q-48.09,2.9-96.19,5.74-68.25,4-136.5,8.12-96.94,5.85-193.87,11.78c-44.47,2.68-89,5.24-133.42,7.93q-71,4.29-141.86,8.71C101.23,410.43,91.88,411,80.59,411.64Z"/><path class="a" d="M1304.5,637l20.73-2.12c.14.46.28.91.43,1.37a71.69,71.69,0,0,1-21.29.57Z"/><path class="b" d="M2178.69,507c-1.89.26-2.88.47-3.89.53-18.11,1.07-36.22,2.12-55.55,3.24-2.64-11.19-5.3-22.27-7.85-33.37s-5-22-7.5-33.28c-8.21.5-15.5.73-22.54,1.5a6.49,6.49,0,0,0-4.58,3.13c-7.45,20.89-14.59,41.8-22,62.68a6.22,6.22,0,0,1-4.44,3.23c-18.25,1.32-36.6,2.34-56.16,3.51,2.12-6.42,4-12.34,6-18.24q22.5-65,45.2-129.88a6.36,6.36,0,0,1,4.51-3.16c35.73-1.91,71.48-3.83,107.32-5.16,8.77-.33,18.12,1,26.75,2.25,15.79,2.34,26.3,7.68,28,15.69,3.77,17.92-3.84,34.44-29.92,48-4.87,2.55-11.25,4.51-17.43,6.33-3.62,1.07-5.16,2-4.56,4.1,6.12,21.63,12,43.27,18,64.91A38.52,38.52,0,0,1,2178.69,507Zm-95.09-78.45c14.06-1.55,26.64-2.25,38-4.43,8-1.54,16.14-4.48,21.22-7.85,11.27-7.49,14.36-16.41,12.62-25.56-1.18-6.21-7.54-9.23-20.22-9.4-10.61-.14-21.3.48-31.89,1-1.71.09-4,1.46-4.49,2.41-1.74,3.81-2.85,7.69-4.18,11.54C2091.13,406.62,2087.6,416.93,2083.6,428.58Z"/><path class="c" d="M1486.53,433.59c-3.72,11.45-7.17,22.93-11.24,34.36-5.44,15.29-9.84,30.72-17.39,45.76-13.38,26.65-51.79,41.88-108.43,44.19-10.33.42-20.88.54-31.17,0-26.31-1.32-41-8.65-45.14-21.34-3.08-9.56,0-18.88,3.25-28.23,6.75-19.15,13.1-38.34,20.58-57.43,2.31-5.88,6.74-11.7,12-17.15,18.48-19.3,52.24-28,94.24-30.44a320.36,320.36,0,0,1,35.06-.3c28.72,1.57,43.62,9.36,46.36,23.28.47,2.39.52,4.8.76,7.19ZM1331.3,522.38c-.31,10.25,3.89,13.75,14.79,14.88,18.22,1.89,38.41-2.83,46.22-11.1a27.87,27.87,0,0,0,6.24-9.32c8.09-22.48,16-45,23.53-67.49a51.57,51.57,0,0,0,3.06-18c-.17-5.11-6-7.32-16.43-7.92-21.06-1.2-38.26,3.67-45.84,13.21a31.08,31.08,0,0,0-5,8.73c-5.82,16.14-11.41,32.31-17,48.48C1337.35,504.15,1334,514.48,1331.3,522.38Z"/><path class="d" d="M1489.89,149.73c2.24-7.31,4.38-14.13,6.39-20.95a15.39,15.39,0,0,0,.74-4.91c-.2-5.63-6.3-8.54-18-8.75-21.45-.37-37.47,4.55-42.77,14.69-5.8,11.1-9.62,22.47-13.58,33.77-5.93,16.92-12,33.84-16.54,50.84-3.9,14.5,12.1,17.31,37.33,13.31,12.61-2,19.35-6.89,22.28-12.75,3.8-7.59,6.45-15.32,9.23-23,.69-1.9,1.85-2.92,6.08-3.14,17.06-.9,34.1-1.91,53.3-3-4.06,9-6.95,17.7-12,26.08-7.15,12-20.27,22.27-42.73,28.93-27.23,8.07-57.29,10.85-88.7,8.67-27.39-1.91-42.68-9.71-43.71-23.17-.74-9.62,1.62-19.38,4.54-28.94,5.41-17.72,11.89-35.37,18.68-53,2.13-5.54,5.84-11,10.23-16.25,18.14-21.6,54-31.21,99.81-33.41a256.9,256.9,0,0,1,36.49.56c22.76,2.21,35.68,9.11,36.07,20.3.32,9.63-3.31,19.29-5.52,28.92-.17.75-2.7,1.88-4.37,2C1525.69,147.73,1508.15,148.65,1489.89,149.73Z"/><path class="e" d="M1648.91,234.61c13.21-17.27,25.85-33.83,38.52-50.38,25.82-33.73,51.74-67.44,77.35-101.21,2-2.64,4.74-3.74,10.35-4,17.85-.92,35.65-2,54.28-3.15a25.33,25.33,0,0,1,1.17,4.17c4.36,46.31,8.6,92.62,13.14,138.93.33,3.4-1.41,4.54-8.63,4.8-15.26.57-30.44,1.71-47.07,2.69V192.19c-13.49.74-25.53,2-37.54,1.91-16.08-.07-23,3.51-26.67,10.79-4.06,8.06-10.76,15.81-16.67,23.64a9.21,9.21,0,0,1-5.67,2.93C1684.48,232.66,1667.4,233.55,1648.91,234.61Zm137.38-60.13V116.37l-1.28-.09L1743.56,177Z"/><path class="f" d="M816.23,235.43c0,5.49-.66,10.29.18,15,.93,5.29,4,10.36,16.16,12.27,11,1.71,26.26-.8,33.93-5.34,14.07-8.34,13.5-22.3-2.54-29.92-12.44-5.91-26.36-11.09-39.67-16.57-4.56-1.88-9.29-3.68-13.87-5.55-24.74-10.11-27.83-23.09-20.27-37.23C802,146,833.79,134.52,878.43,130.38a268.61,268.61,0,0,1,27.21-.95c28.19.31,44.28,7.48,48.15,21.06,4.18,14.66,3.91,14.88-25.15,19.16-8.66,1.27-17.35,2.49-26.36,3.78,0-4.52.4-8.67-.08-12.8-1-8.18-10.16-11.43-26.77-9.74-29.53,3-41.88,20.91-20.91,31.49,11.67,5.89,25.91,10.57,38.33,16.14,10.26,4.61,21.28,9.17,28.93,14.73,21.06,15.31,16.4,31.2-1.74,46.12-25.63,21.07-74.94,28-115.21,24.64-24.59-2-39.52-10.6-41.89-23.61-.86-4.76-.34-9.58,0-14.37.07-1,1.64-2.66,3.28-2.93C782.7,240.45,799.34,238,816.23,235.43Z"/><path class="f" d="M2266.63,456.91c0,5.49-.66,10.29.18,15,.93,5.29,4,10.36,16.16,12.27,11,1.71,26.26-.8,33.93-5.34,14.07-8.34,13.5-22.3-2.54-29.92-12.44-5.91-26.36-11.09-39.67-16.57-4.56-1.88-9.29-3.68-13.87-5.55-24.74-10.11-27.83-23.09-20.27-37.23,11.83-22.12,43.64-33.57,88.28-37.71a265.63,265.63,0,0,1,27.21-.95c28.19.31,44.28,7.48,48.15,21.06,4.18,14.66,3.91,14.88-25.15,19.16-8.66,1.27-17.35,2.49-26.36,3.78,0-4.52.4-8.67-.08-12.8-1-8.18-10.16-11.43-26.77-9.74-29.53,3-41.88,20.91-20.91,31.49,11.67,5.89,25.91,10.57,38.33,16.14,10.26,4.61,21.28,9.17,28.93,14.73,21.06,15.31,16.4,31.2-1.74,46.12-25.63,21.07-74.94,28-115.21,24.64-24.59-2-39.52-10.6-41.89-23.61-.86-4.76-.34-9.58,0-14.37.07-1,1.64-2.66,3.28-2.93C2233.1,461.93,2249.74,459.47,2266.63,456.91Z"/><path class="g" d="M955.66,275.61c3.78-11.07,7.25-21.37,10.81-31.67,13.44-38.81,27-77.61,40.23-116.43.85-2.48,2.65-3.33,7.68-3.61,31.84-1.78,63.63-3.8,95.49-5.52a175.19,175.19,0,0,1,21,.32c25.71,1.77,39.83,8.73,41.94,21.18,2.25,13.24-2.48,26-16,37.65-17.85,15.32-47.29,22.14-81.75,24.81-9.77.76-19.64,1.26-29.5,1.72-4.87.23-6.92,1.15-7.75,3.63-6.85,20.41-14.11,40.8-21,61.21-.73,2.15-1.83,3.3-6.92,3.55C992.28,273.33,974.75,274.48,955.66,275.61Zm90-90.16c14.34-1.38,26.92-2.3,39.16-3.84,10.87-1.38,18.56-4.94,23-10,6.63-7.54,9.35-15.48,9.19-23.6-.12-6.09-6.35-9.15-19-9.14-10.62,0-21.22.88-31.86,1.2-4.34.13-5.51,1.07-6.08,3-1.58,5.36-3.73,10.68-5.57,16-2.8,8.44-5.61,16.86-8.82,26.38Z"/><path class="h" d="M1354.81,104c-2.09,5.93-4.25,11.38-5.8,16.87-.59,2.08-2.46,2.64-6.43,2.86-20.46,1.13-40.86,2.59-61.36,3.51-8.13.37-11.35,1.75-12.5,5.74-3.37,11.61-7.75,23.16-11.7,34.73a29.3,29.3,0,0,0-.67,3.33l60.17-3.35c-1.58,4.91-3.75,9.53-4.36,14.2-.58,4.49-5.15,5.73-13.58,6-14.55.53-29,1.48-43.49,2.48-2.43.16-6.22,1.29-6.56,2.21-5.61,15.28-10.78,30.59-16,45.9a5.56,5.56,0,0,0,.15,1.87l77.1-4.46c-1.21,3.69-2.36,7.07-3.42,10.46-2.74,8.83-2.75,8.71-20.64,9.73-37,2.1-74,4.35-111,6.52-2.78.16-5.58.24-9.32.39,3.44-10,6.71-19.71,10-29.36q19.89-57.64,39.83-115.32c2.72-7.82,0-6.26,15.2-7.17q59.77-3.54,119.54-7.13C1351.23,104,1352.47,104,1354.81,104Z"/><path class="i" d="M1912.09,436.37l61.08-3.52c-2.15,6.26-4,12.07-6.33,17.82-.32.78-3.39,1.71-5.39,1.85-16.52,1.1-33.12,2-49.62,3.12-2.6.18-6.6,1.42-7,2.43-5.61,15.14-10.74,30.33-15.94,45.5a7.44,7.44,0,0,0,0,2l77.48-4.5c-2.14,6.25-4,12.15-6.38,18-.25.61-3.11,1.29-4.9,1.39-43.94,2.62-87.9,5.17-133.15,7.81,2.06-6.23,3.93-12.14,6-18q22.55-65.11,45-130.24c.72-2.07,2.08-3.06,6.62-3.32q63.68-3.66,127.31-7.48c1-.06,2,0,4.11,0l-6.59,19.29c-23.25,1.38-46.2,2.83-69.21,4-5.76.3-8.52,1-9.48,4.1C1921.59,409.73,1916.82,422.73,1912.09,436.37Z"/><path class="j" d="M1581.23,456.08l59-3.4-6.6,19.42c-17.61,1.06-34.87,2.28-52.22,3-6.37.27-8.09,1.56-9,4.33-7,20.66-14.29,41.3-21.29,62-.69,2-1.89,3.13-6.46,3.37-17.59.92-35.14,2-54.09,3.06,2-6.12,3.79-11.91,5.79-17.69,14.89-43,29.91-86.08,44.56-129.14,1.13-3.31,3.32-4.51,10.45-4.9,40.4-2.2,80.73-4.73,121.09-7.14,1.22-.07,2.48,0,4.51,0-2,6-3.73,11.7-6.15,17.34-.37.84-4,1.78-6.36,1.93q-28.31,1.83-56.68,3.33c-11.71.63-11.83.55-13.8,6.16-4.24,12.06-8.37,24.13-12.51,36.2A11,11,0,0,0,1581.23,456.08Z"/><path class="k" d="M1842.65,379c-2.07,6.24-3.64,12-6.19,17.58-.42.92-5.11,1.77-8,2q-30.23,2-60.55,3.58c-4.87.27-6.89,1.07-7.7,3.61-4.25,13.33-9.06,26.62-13.9,40.57l59.74-3.41c-2.19,6.33-4.13,12.35-6.58,18.32-.26.64-3.46,1.29-5.44,1.42-15.77,1-31.55,2-47.37,2.75-5.26.26-7.47,1.09-8.37,3.79-6.93,20.8-14.32,41.56-21.4,62.35-.66,1.94-1.42,3.24-6.24,3.48-17.61.91-35.19,2-53.85,3.05a18.17,18.17,0,0,1,.49-3.73q19.85-57.48,39.79-115c3.41-9.83,6.61-19.67,10.35-29.47.46-1.22,3.4-3,5.57-3.16C1755.62,384.07,1798.31,381.61,1842.65,379Z"/><path class="l" d="M1988,66.51l-45.58,132,78.27-4.56c-2.25,6.3-4.25,12.2-6.61,18.06-.22.55-2.61,1.19-4.12,1.28-44.18,2.65-88.39,5.24-133.86,7.91,2.43-7.2,4.68-14,7-20.75,14.42-41.81,29-83.61,43.16-125.44,1.28-3.78,3.61-5.47,12.33-5.72C1954.69,68.88,1970.62,67.56,1988,66.51Z"/><path class="m" d="M1556.8,240.05c3.47-10.09,6.73-19.64,10-29.19q20.06-58.05,40.09-116.11c2-5.72,1.79-5.82,13.81-6.57,15.43-1,30.9-1.8,47.26-2.74-3.77,10.93-7.35,21.35-11,31.76q-20.1,58.23-40.15,116.53c-.72,2.1-2.09,3.09-6.54,3.32C1592.92,237.93,1575.61,239,1556.8,240.05Z"/><path d="M2083.6,428.58c4-11.65,7.53-22,11.07-32.27,1.33-3.85,2.44-7.73,4.18-11.54.44-.95,2.78-2.32,4.49-2.41,10.59-.54,21.28-1.16,31.89-1,12.68.17,19,3.19,20.22,9.4,1.74,9.15-1.35,18.07-12.62,25.56-5.08,3.37-13.19,6.31-21.22,7.85C2110.23,426.33,2097.66,427,2083.6,428.58Z"/><path d="M1331.3,522.38c2.65-7.9,6-18.23,9.61-28.54,5.58-16.17,11.17-32.34,17-48.48a31.08,31.08,0,0,1,5-8.73c7.58-9.54,24.78-14.41,45.84-13.21,10.43.6,16.26,2.81,16.43,7.92a51.57,51.57,0,0,1-3.06,18c-7.5,22.52-15.44,45-23.53,67.49a27.87,27.87,0,0,1-6.24,9.32c-7.81,8.27-28,13-46.22,11.1C1335.23,536.13,1331,532.63,1331.3,522.38Z"/><path d="M1786.29,174.48,1743.56,177,1785,116.28l1.28.09Z"/><path d="M1045.68,185.45c3.21-9.52,6-17.94,8.9-26.36,1.84-5.34,4-10.66,5.57-16,.57-1.94,1.74-2.88,6.08-3,10.64-.32,21.24-1.2,31.86-1.2,12.61,0,18.84,3.05,19,9.14.16,8.12-2.56,16.06-9.19,23.6-4.46,5.07-12.15,8.63-23,10C1072.6,183.15,1060,184.07,1045.68,185.45Z"/></svg>