<svg xmlns="http://www.w3.org/2000/svg" viewBox="0 0 3133.32 1001.11"><defs><style>.a{fill:#4abad8;}.a,.b,.c,.d,.e,.f,.g,.h,.i,.j,.k,.l,.m,.n,.o{stroke:#ffe156;stroke-miterlimit:10;}.c{fill:#fff;}.d{fill:#5ddeff;}.e{fill:#e8003d;}.f{fill:#64aaff;}.g{fill:#fdff75;}.h{fill:#17ff0a;}.i{fill:#fff748;}.j{fill:#ffca41;}.k{fill:#ff48ed;}.l{fill:#c4ff82;}.m{fill:#fffa91;}.n{fill:#fb0035;}.o{fill:#e375ff;}</style></defs><rect class="a" y="0.5" width="3133.32" height="1000.61"/><path class="b" d="M3132.82,820.79c-14.94,1.54-29.86,3.28-44.83,4.6q-50,4.59-100.06,8.92l-138.17,12.25q-60.14,5.36-120.25,10.8-57,5.1-114.06,10.1-72.93,6.54-145.85,13.21c-37.75,3.39-75.53,6.62-113.28,10q-59.73,5.34-119.42,10.82-57,5.13-114.08,10.1-59.71,5.37-119.42,10.84c-38,3.41-76,6.64-114,10.09-40,3.63-80.06,7.51-120.11,11.14-28.94,2.62-57.94,4.92-86.88,7.53-31.24,2.82-62.43,5.91-93.67,8.73-28.66,2.6-57.37,4.93-86,7.48-22.73,2-45.42,4.27-68.15,6.29-29.17,2.59-58.36,5-87.54,7.66-14.47,1.27-28.91,2.81-43.41,3.76-3.16.22-8.51-1-9.45-2.58-2.11-3.66,2.85-4.6,6.6-5.53a29.36,29.36,0,0,0,4-1.68,47.47,47.47,0,0,0,21.29-.88c-.15-.7-.29-1.39-.43-2.09L1305,975.59c-7.75-5.62-17.69-4.59-27.18-4.91-6.4-.25-12.86-.28-19.16-1-15.65-1.86-31.49-3.35-46.76-6.36-19.29-3.82-38.19-8.81-57.08-13.64a130.13,130.13,0,0,1-17.49-6.57c-.6-.26-.08-2-.08-3.24L808.34,968.18c3.2-15.72,6.15-30.35,9.18-45q7.76-37.47,15.59-74.91,11-52.9,22.07-105.78c8.8-41.94,18.37-83.81,26-125.86,1.85-10.21,8-14.57,19.17-18.84q157.91-60.2,315.38-121.11a7.65,7.65,0,0,0,4-2.9c-15.16,1.31-30.33,2.55-45.47,4-30.23,2.86-60.42,5.89-90.65,8.76q-46.87,4.45-93.88,8.74l-135,12.52c-46,4.34-92,8.91-138,13.24q-78.31,7.37-156.66,14.55c-46.26,4.37-92.48,9-138.73,13.32-43.93,4.15-87.9,8.08-131.83,12.25-46,4.33-92,8.86-138,13.19q-66.3,6.27-132.63,12.25c-6.1.55-12.29.62-18.43.91V231.3l69-6.29q67.5-6.24,135-12.54c37.48-3.52,74.92-7.24,112.4-10.71q67.08-6.31,134.18-12.51,81-7.65,162.07-15.46,66.32-6.27,132.65-12.35,68.64-6.48,137.26-13.07c53.26-5,106.56-9.77,159.81-14.79,45.5-4.28,91-8.85,136.45-13.15Q1258,113,1336.81,105.77q68.67-6.48,137.3-13.09,66.72-6.25,133.46-12.4,69-6.5,138.07-13.13,79.09-7.46,158.22-14.83c45.76-4.33,91.48-8.88,137.24-13.21C2085.1,34.94,2129,31,2173,26.86q69-6.48,138-13.16Q2380.75,7.07,2450.52.52a26.68,26.68,0,0,1,4,.34c-1.51,7.79-2.9,15.3-4.47,22.88q-13.93,67.26-28,134.49c-8.74,41.77-17.64,83.52-26.4,125.28-5.36,25.55-10.48,51.14-16.07,76.66-.48,2.16-3.19,4.8-5.85,5.83q-178.35,68.88-356.9,137.38a21.6,21.6,0,0,0-2.71,1.68c15.79-1.41,30.37-2.72,45-4Q2117.74,496,2176.37,491q60.95-5.33,121.84-10.84c38.82-3.4,77.67-6.62,116.49-10,40.62-3.55,81.21-7.29,121.83-10.84,39.07-3.41,78.18-6.63,117.25-10.06,40.36-3.53,80.69-7.27,121.06-10.8,39.07-3.42,78.18-6.65,117.26-10.06Q2953,423.06,3014,417.52q55.11-4.89,110.24-9.69c2.82-.24,5.71,0,8.57,0V765.25c-4.17.13-8.36.09-12.49.46-29,2.57-57.94,5.29-86.93,7.82q-75.72,6.59-151.46,13c-47.89,4.18-95.74,8.57-143.62,12.78-40.38,3.55-80.79,6.89-121.17,10.42q-71.82,6.33-143.62,12.77-60.55,5.29-121.15,10.45c-38.82,3.42-77.61,7-116.43,10.41q-60.94,5.32-121.89,10.52c-38.54,3.4-77,7-115.59,10.39-32.07,2.83-64.17,5.45-96.23,8.27-34.11,3.06-68.24,5.91-102.27,9.3-6.48.65-13,.54-19.16,4.78-24.45,17-54.9,27.24-84.64,37.9-22.85,8.17-46.89,14.54-70.41,21.7a21,21,0,0,1-3.71.8q-13.42,1.53-26.85,2.92c15.37-.3,30.55-1.7,45.74-3.06q47.7-4.12,95.4-8.19c29.72-2.61,59.42-5.4,89.15-8,31.54-2.78,63.1-5.37,94.63-8.19,37.48-3.35,74.92-6.93,112.4-10.27,40.61-3.61,81.26-7,121.87-10.61,37-3.3,73.91-6.87,110.88-10.17,32.07-2.88,64.18-5.48,96.25-8.35q69.47-6.12,138.88-12.58c40.36-3.6,80.74-7,121.09-10.61q69.84-6.24,139.63-12.67c40.1-3.6,80.24-7,120.34-10.56q69-6.21,138-12.58,56.64-5.15,113.31-10.15ZM2179.19,776.6c-.15-2-.37-4.05-.66-6-6-33.13-11.86-66.25-18-99.36-.6-3.24.94-4.59,4.56-6.27,6.18-2.79,12.56-5.79,17.43-9.69,26.08-20.82,33.69-46.11,29.92-73.48-1.69-12.24-12.2-20.43-28-24-8.63-2-18-4-26.75-3.45-35.84,2-71.59,5-107.32,7.9-1.91.48-3.57,2.26-4.51,4.84q-22.78,99.38-45.2,198.8c-2,9-3.92,18.1-6,27.92,19.56-1.79,37.91-3.35,56.16-5.37,1.9-.51,3.54-2.34,4.44-4.94,7.44-32,14.58-64,22-96,.42-1.8,2.62-4.45,4.58-4.79,7-1.18,14.33-1.53,22.54-2.29,2.54,17.28,5,34.11,7.5,50.94s5.21,33.95,7.85,51.08c19.33-1.72,37.44-3.33,55.55-5C2176.31,777.32,2177.3,777,2179.19,776.6ZM1487,664.19l-1.15-.17c-.24-3.66-.29-7.34-.76-11-2.74-21.31-17.64-33.23-46.36-35.64a208.4,208.4,0,0,0-35.06.46c-42,3.66-75.73,17-94.25,46.64-5.22,8.34-9.65,17.25-12,26.25-7.48,29.22-13.83,58.6-20.58,87.91-3.3,14.31-6.33,28.58-3.25,43.21,4.1,19.42,18.83,30.61,45.14,32.67a236.65,236.65,0,0,0,31.17,0c56.64-3.54,95-26.85,108.43-67.65,7.55-23,12-46.64,17.39-70C1479.86,699.29,1483.31,681.72,1487,664.19Zm3.36-434.5c18.26-1.63,35.8-3.06,53.28-4.88,1.67-.17,4.2-1.9,4.37-3.06,2.21-14.74,5.84-29.53,5.52-44.27-.39-17.13-13.31-27.69-36.07-31.07a168.08,168.08,0,0,0-36.49-.86c-45.79,3.37-81.67,18.08-99.81,51.14A106.73,106.73,0,0,0,1371,221.57c-6.79,27-13.27,54-18.68,81.12-2.92,14.63-5.28,29.57-4.54,44.3,1,20.6,16.32,32.54,43.71,35.46,31.41,3.34,61.47-.91,88.7-13.27,22.46-10.19,35.58-26,42.73-44.28,5-12.83,7.91-26,12-39.92-19.2,1.68-36.24,3.23-53.3,4.59-4.23.34-5.39,1.9-6.08,4.81-2.78,11.79-5.43,23.62-9.23,35.2-2.93,9-9.67,16.51-22.28,19.52-25.27,6-41.25,1.79-37.35-20.42,4.57-26,10.61-51.92,16.54-77.82,4-17.29,7.78-34.7,13.58-51.69,5.3-15.52,21.32-23,42.77-22.48,11.72.32,17.82,4.77,18,13.39a35.24,35.24,0,0,1-.74,7.51C1494.73,208.05,1492.63,218.49,1490.39,229.69Zm159,129.94c18.49-1.62,35.57-3.06,52.56-4.82a8.8,8.8,0,0,0,5.67-4.48c5.91-12,12.61-23.85,16.67-36.19,3.67-11.14,10.59-16.62,26.67-16.52,12,.1,24-1.79,37.54-2.92v52.4c16.63-1.53,31.81-3.25,47.07-4.12,7.22-.4,9-2.14,8.63-7.35-4.54-70.88-8.78-141.77-13.14-212.66a55.24,55.24,0,0,0-1.17-6.38c-18.63,1.68-36.43,3.41-54.28,4.82-5.61.45-8.35,2.13-10.35,6.13-25.61,51.69-51.53,103.29-77.35,154.92-12.65,25.37-25.29,50.72-38.5,77.16Zm-832.66,1.24c-16.88,3.92-33.52,7.66-50,11.79-1.64.41-3.21,2.91-3.28,4.48-.34,7.34-.86,14.71,0,22,2.37,19.9,17.3,33,41.89,36.14,40.27,5.11,89.58-5.47,115.21-37.72,18.14-22.84,22.8-47.16,1.74-70.59-7.65-8.51-18.67-15.49-28.93-22.55-12.42-8.53-26.66-15.69-38.33-24.7-21-16.2-8.62-43.58,20.91-48.21,16.61-2.58,25.8,2.39,26.77,14.91.48,6.32.08,12.68.08,19.6,9-2,17.7-3.85,26.36-5.79,29.06-6.55,29.33-6.89,25.15-29.33-3.87-20.78-20-31.76-48.15-32.23a174.61,174.61,0,0,0-27.21,1.45c-44.64,6.34-76.45,23.86-88.28,57.72-7.56,21.65-4.47,41.51,20.27,57,4.58,2.86,9.31,5.62,13.87,8.49,13.31,8.39,27.23,16.32,39.67,25.37,16,11.66,16.61,33,2.54,45.8-7.67,6.94-22.94,10.79-33.93,8.17-12.18-2.92-15.23-10.72-16.16-18.78C816.06,376.64,816.73,369.28,816.73,360.87Zm139.44,61.5c19.09-1.73,36.62-3.49,54.2-4.83,5.09-.38,6.19-2.15,6.92-5.44,6.92-31.24,14.18-62.45,21-93.69.83-3.8,2.88-5.2,7.75-5.56,9.86-.7,19.73-1.53,29.5-2.63,34.46-4.09,63.9-14.52,81.75-38,13.55-17.82,18.28-37.37,16-57.63-2.11-19.06-16.23-29.71-41.94-32.42a112.53,112.53,0,0,0-21-.49c-31.86,2.63-63.65,5.72-95.49,8.45-5,.42-6.83,1.73-7.68,5.52C993.93,255.1,980.39,314.49,967,373.9c-3.54,15.76-7,31.53-10.79,48.47Zm399.14-262.61c-2.34,0-3.6-.1-4.83,0l-119.54,10.91c-15.21,1.39-12.48-1-15.2,11q-20,88.26-39.84,176.62c-3.33,14.77-6.6,29.56-10,44.94,3.74-.23,6.54-.35,9.32-.6,37-3.32,74-6.76,111-10,17.89-1.53,17.9-1.37,20.64-14.89,1.06-5.19,2.21-10.36,3.42-16l-77.1,6.83a13.13,13.13,0,0,1-.15-2.87c5.23-23.43,10.4-46.87,16-70.25.34-1.41,4.13-3.14,6.56-3.39,14.45-1.53,28.94-3,43.49-3.79,8.43-.48,13-2.38,13.58-9.19.61-7.15,2.78-14.22,4.36-21.73l-60.17,5.16c.16-1.72.38-3.42.67-5.1,4-17.71,8.33-35.39,11.7-53.16,1.15-6.12,4.37-8.22,12.5-8.79,20.5-1.41,40.9-3.64,61.36-5.37,4-.34,5.84-1.19,6.43-4.38C1351.06,177.18,1353.22,168.83,1355.31,159.76Zm557.28,508.69c4.73-20.85,9.5-40.78,13.61-60.79,1-4.7,3.72-5.81,9.48-6.27,23-1.82,46-4,69.21-6.13l6.59-29.52c-2.1,0-3.12-.09-4.11,0l-127.31,11.42c-4.54.39-5.9,1.91-6.62,5.08q-22.37,99.69-45,199.35c-2,9-3.91,18.07-6,27.56,45.25-4,89.21-7.95,133.15-12,1.79-.15,4.65-1.19,4.9-2.13,2.34-9,4.24-18,6.38-27.55l-77.48,6.89a17.37,17.37,0,0,1,0-3.06c5.2-23.22,10.33-46.47,15.94-69.65.38-1.53,4.38-3.44,7-3.72,16.5-1.79,33.1-3.06,49.62-4.77,2-.22,5.07-1.64,5.39-2.83,2.38-8.81,4.18-17.7,6.33-27.28Zm-330.86,30.17a25.57,25.57,0,0,1,.21-3.28c4.14-18.48,8.27-37,12.51-55.41,2-8.59,2.09-8.47,13.8-9.43q28.37-2.36,56.68-5.1c2.34-.23,6-1.66,6.36-2.95,2.42-8.63,4.11-17.37,6.15-26.54-2,0-3.29-.09-4.51,0-40.36,3.69-80.69,7.56-121.09,10.93-7.13.59-9.32,2.43-10.45,7.5-14.65,65.91-29.67,131.79-44.56,197.67-2,8.85-3.79,17.71-5.79,27.08,19-1.66,36.5-3.28,54.09-4.69,4.57-.37,5.77-2,6.46-5.16,7-31.62,14.33-63.21,21.29-94.9.93-4.24,2.65-6.21,9-6.63,17.35-1.16,34.61-3.06,52.22-4.59l6.63-29.63Zm261.45-118c-44.34,4-87,7.74-129.67,11.81-2.17.22-5.11,3-5.57,4.84-3.74,15-6.94,30.06-10.35,45.11q-19.9,88-39.79,176a41.49,41.49,0,0,0-.49,5.71c18.66-1.64,36.24-3.28,53.85-4.67,4.82-.37,5.58-2.36,6.24-5.33,7.08-31.82,14.47-63.6,21.4-95.44.9-4.13,3.11-5.4,8.37-5.8,15.82-1.18,31.6-2.68,47.37-4.21,2-.2,5.18-1.19,5.44-2.17,2.45-9.18,4.39-18.37,6.58-28l-59.74,5.22c4.84-21.43,9.65-41.7,13.9-62.1.81-3.89,2.83-5.12,7.7-5.53q30.32-2.51,60.55-5.48c2.91-.29,7.6-1.53,8-3.06,2.54-8.57,4.11-17.34,6.18-26.89Zm145.39-478.34c-17.42,1.61-33.35,3.63-49.39,4.32-8.72.38-11,3-12.33,8.75-14.2,64-28.74,128-43.16,192-2.34,10.36-4.59,20.74-7,31.76,45.47-4.09,89.68-8,133.86-12.11,1.51-.13,3.9-1.11,4.12-2,2.36-9,4.36-18,6.61-27.64l-78.27,7ZM1557.3,367.94c18.81-1.65,36.12-3.24,53.47-4.59,4.45-.35,5.82-1.87,6.54-5.08q19.92-89.17,40.21-178.31c3.61-15.93,7.19-31.88,11-48.61-16.36,1.44-31.83,2.71-47.26,4.19-12,1.15-11.84,1.3-13.81,10.06q-20,88.85-40.09,177.72C1564,337.88,1560.73,352.5,1557.3,367.94Z"/><path d="M3132.82,813.83,3019.51,824q-69,6.24-138.05,12.58c-40.1,3.58-80.24,7-120.34,10.56q-69.82,6.25-139.63,12.68c-40.35,3.61-80.73,7-121.09,10.6Q2431,876.54,2361.52,883c-32.07,2.86-64.18,5.46-96.25,8.34-37,3.3-73.91,6.87-110.88,10.18-40.61,3.62-81.26,7-121.87,10.6-37.48,3.34-74.92,6.92-112.4,10.28-31.53,2.81-63.09,5.4-94.63,8.18-29.73,2.62-59.43,5.41-89.15,8q-47.68,4.17-95.4,8.18c-15.19,1.32-30.37,2.71-45.74,3.07q13.42-1.44,26.85-2.93a21.61,21.61,0,0,0,3.68-.87c23.52-7.16,47.56-13.53,70.41-21.71,29.74-10.71,60.19-20.87,84.64-37.89,6.11-4.24,12.68-4.14,19.16-4.78,34-3.4,68.16-6.32,102.27-9.31,32.06-2.81,64.16-5.43,96.23-8.26,38.54-3.4,77-7,115.59-10.4q60.91-5.36,121.89-10.51c38.82-3.42,77.61-7,116.43-10.41q60.55-5.29,121.15-10.45,71.82-6.32,143.62-12.77c40.38-3.54,80.79-6.87,121.17-10.42,47.88-4.21,95.73-8.61,143.62-12.79q75.71-6.6,151.46-13c29-2.52,58-5.25,86.93-7.82,4.13-.37,8.32-.32,12.49-.46Z"/><path class="b" d="M.58,174.45q79.1-7.42,158.2-14.82l132.65-12.24q70.17-6.48,140.3-13.17c36.18-3.38,72.39-6.59,108.57-10q57-5.31,114-10.71,67.43-6.31,134.92-12.43,57-5.3,114-10.72,67.47-6.3,135-12.49,69-6.42,138-13Q1244.08,58.6,1312,52.38q69-6.45,138-13,67.5-6.3,135-12.49,82.59-7.74,165.16-15.64c8-.75,16-1.73,24.06-2,2.55-.07,5.21,1.81,7.82,2.79-2.18,1.53-4.14,4-6.59,4.29-13.1,1.62-26.31,2.74-39.49,4q-48.06,4.5-96.13,8.92-54.29,5-108.57,9.92-69.8,6.53-139.56,13.19-67.08,6.29-134.19,12.39-69.4,6.47-138.79,13.08c-45,4.2-90,8.21-135,12.4q-69,6.47-138,13.09-67.47,6.28-135,12.44-70.16,6.55-140.3,13.27c-36.18,3.39-72.4,6.57-108.59,9.94-38.24,3.56-76.45,7.32-114.7,10.88-36.43,3.4-72.9,6.6-109.34,10q-57,5.31-113.92,10.83-58.52,5.56-117,11a42,42,0,0,1-6.23-.11Z"/><path class="b" d="M502.73,89.05,497,86c2.43-1.53,4.67-4.16,7.33-4.42,38.48-3.75,77-7.12,115.54-10.72q69.78-6.5,139.53-13.14,67.47-6.28,135-12.39c47.29-4.41,94.55-9,141.84-13.41,44.19-4.11,88.42-8,132.62-12.09q45.35-4.17,90.66-8.63c4-.4,8.68-.95,9.22,2.91.17,1.24-4.44,3.85-7.19,4.16-21.89,2.4-43.85,4.47-65.8,6.52q-47.67,4.45-95.35,8.76Q1032.52,39.75,964.73,46c-38,3.54-75.92,7.24-113.9,10.72-37,3.43-73.93,6.67-110.88,10.11Q670.2,73.36,600.47,80.05C568.64,83.05,536.84,85.92,502.73,89.05Z"/><path class="b" d="M3043.38,365.62c1.13.58,5.22,1.53,5.72,3.2,1.13,3.59-3.14,4-7,4.36q-62.42,5.73-124.81,11.57c-38.49,3.63-77,7.39-115.45,11q-67,6.21-134.13,12.24c-38,3.52-75.93,7.21-113.91,10.72q-55.82,5.18-111.65,10.19c-13.18,1.22-26.32,2.6-39.48,3.93-4,.42-8.76,1.09-8.91-3.06-.06-1.38,4.5-3.82,7.28-4.13,21.63-2.37,43.35-4.38,65-6.41q48-4.5,96.12-8.88,54.68-5,109.34-10c37.72-3.49,75.41-7.14,113.13-10.71,37.47-3.49,74.95-6.81,112.41-10.32q70.53-6.61,141-13.41Z"/><path class="b" d="M1643.65,1000.59c-1.09-.91-4.54-3.06-4.16-3.54a11.33,11.33,0,0,1,6.45-4.47c17.24-1.9,34.57-3.35,51.88-4.88q36-3.19,72.09-6.31,57.39-5,114.78-10.11c31-2.79,62-5.78,93-8.55,37.75-3.38,75.52-6.61,113.27-10,31.28-2.8,62.54-5.79,93.82-8.59,37.49-3.37,75-6.56,112.49-9.93q59.74-5.34,119.46-10.89l35.73-3.06c3.54-.27,8.39-.76,8,3.22-.15,1.53-4.35,3.7-7,4-53.26,4.91-106.57,9.53-159.84,14.34-48.87,4.41-97.71,9-146.58,13.44-45.5,4.12-91,8-136.56,12.11-48.86,4.42-97.69,9.06-146.56,13.45q-68.6,6.12-137.25,12.08-39.17,3.45-78.3,7.07C1647.39,1000.08,1646.37,1000.24,1643.65,1000.59Z"/><path class="b" d="M81.09,630.59l-4.42-3.2c1.89-1.4,3.59-3.84,5.72-4.07,22.42-2.45,44.89-4.59,67.38-6.7q48.06-4.47,96.17-8.77l138.88-12.52c38-3.51,76-7.31,114-10.83,45.24-4.19,90.52-8.17,135.76-12.35q70.54-6.51,141.07-13.22,58.53-5.48,117.08-10.72c2.53-.23,5.41,1.84,8.14,2.83-2.2,1.53-4.19,4.06-6.62,4.3-27.09,2.82-54.24,5.3-81.38,7.81q-48.09,4.43-96.19,8.79-68.25,6.12-136.5,12.43-96.94,9-193.87,18c-44.47,4.1-89,8-133.42,12.14q-71,6.56-141.86,13.33C101.73,628.74,92.38,629.57,81.09,630.59Z"/><path class="c" d="M1305,975.58l20.73-3.25c.14.71.28,1.39.43,2.1a47.32,47.32,0,0,1-21.29.87Z"/><path class="d" d="M2179.19,776.6c-1.89.4-2.88.72-3.89.82-18.11,1.63-36.22,3.24-55.55,5-2.64-17.12-5.3-34.08-7.85-51.07s-5-33.68-7.5-50.95c-8.21.77-15.5,1.12-22.54,2.3-2,.34-4.16,3.06-4.58,4.79-7.45,32-14.59,64-22,95.94-.9,2.61-2.54,4.44-4.44,5-18.25,2-36.6,3.58-56.16,5.37,2.12-9.83,4-18.89,6-27.92q22.5-99.49,45.2-198.8c.94-2.58,2.6-4.36,4.51-4.84,35.73-2.92,71.48-5.86,107.32-7.9,8.77-.5,18.12,1.53,26.75,3.45,15.79,3.58,26.3,11.75,28,24,3.77,27.43-3.84,52.72-29.92,73.48-4.87,3.9-11.25,6.9-17.43,9.68-3.62,1.64-5.16,3.07-4.56,6.28,6.12,33.11,12,66.23,18,99.36C2178.83,772.51,2179.05,774.55,2179.19,776.6ZM2084.1,656.52c14.06-2.37,26.64-3.44,38-6.78,8-2.36,16.14-6.86,21.22-12,11.27-11.47,14.36-25.12,12.62-39.13-1.18-9.5-7.54-14.13-20.22-14.39-10.61-.21-21.3.74-31.89,1.53-1.71.14-4,2.24-4.49,3.69-1.74,5.83-2.85,11.77-4.18,17.67C2091.63,622.91,2088.1,638.69,2084.1,656.52Z"/><path class="e" d="M1487,664.19c-3.72,17.53-7.17,35.1-11.24,52.59-5.44,23.41-9.84,47-17.39,70.05-13.38,40.79-51.79,64.1-108.43,67.64a220.59,220.59,0,0,1-31.17,0c-26.31-2-41-13.24-45.14-32.67-3.08-14.63,0-28.89,3.25-43.21,6.75-29.31,13.1-58.68,20.58-87.9,2.31-9,6.74-17.91,12-26.25,18.48-29.55,52.24-42.89,94.24-46.6a208.4,208.4,0,0,1,35.06-.46c28.72,2.41,43.62,14.33,46.36,35.64.47,3.66.52,7.34.76,11ZM1331.8,800.1c-.31,15.69,3.89,21,14.79,22.78,18.22,2.89,38.41-4.34,46.22-17a48.64,48.64,0,0,0,6.24-14.27q12.14-51.61,23.53-103.31a117.42,117.42,0,0,0,3.06-27.55c-.17-7.82-6-11.2-16.43-12.12-21.06-1.84-38.26,5.62-45.84,20.22a57.64,57.64,0,0,0-5,13.36c-5.82,24.71-11.41,49.46-17,74.21C1337.85,772.2,1334.45,788,1331.8,800.1Z"/><path class="f" d="M1490.39,229.69c2.24-11.19,4.38-21.63,6.39-32.06a35.4,35.4,0,0,0,.74-7.52c-.2-8.62-6.3-13.07-18-13.39-21.45-.57-37.47,7-42.77,22.48-5.8,17-9.62,34.4-13.58,51.69-5.93,25.9-12,51.8-16.54,77.82-3.9,22.2,12.1,26.5,37.33,20.38,12.61-3.07,19.35-10.55,22.28-19.52,3.8-11.62,6.45-23.45,9.23-35.21.69-2.9,1.85-4.47,6.08-4.8,17.06-1.38,34.1-2.93,53.3-4.59-4.06,13.77-6.95,27.09-12,39.92-7.15,18.36-20.27,34.08-42.73,44.28-27.23,12.35-57.29,16.61-88.7,13.27-27.39-2.92-42.68-14.86-43.71-35.47-.74-14.72,1.62-29.66,4.54-44.29,5.41-27.13,11.89-54.14,18.68-81.13a107,107,0,0,1,10.23-24.87c18.14-33.07,54-47.78,99.81-51.14a167.45,167.45,0,0,1,36.49.85c22.76,3.39,35.68,14,36.07,31.08.32,14.74-3.31,29.52-5.52,44.26-.17,1.15-2.7,2.88-4.37,3.06C1526.19,226.63,1508.65,228,1490.39,229.69Z"/><path class="g" d="M1649.41,359.62c13.21-26.44,25.85-51.79,38.52-77.12,25.82-51.63,51.74-103.23,77.35-154.92,2-4,4.74-5.72,10.35-6.12,17.85-1.41,35.65-3.14,54.28-4.82a55.24,55.24,0,0,1,1.17,6.38c4.36,70.89,8.6,141.77,13.14,212.66.33,5.2-1.41,6.95-8.63,7.34-15.26.88-30.44,2.62-47.07,4.12V294.69c-13.49,1.13-25.53,3.06-37.54,2.92-16.08-.11-23,5.37-26.67,16.52-4.06,12.33-10.76,24.2-16.67,36.18a8.85,8.85,0,0,1-5.67,4.49C1685,356.63,1667.9,358,1649.41,359.62Zm137.38-92V178.63l-1.28-.14-41.45,92.9Z"/><path class="h" d="M816.73,360.87c0,8.41-.66,15.75.18,23,.93,8.1,4,15.86,16.16,18.78,11,2.62,26.26-1.22,33.93-8.17,14.07-12.77,13.5-34.13-2.54-45.8-12.44-9-26.36-17-39.67-25.36-4.56-2.88-9.29-5.63-13.87-8.5-24.74-15.47-27.83-35.34-20.27-57,11.83-33.86,43.64-51.39,88.28-57.73a175.84,175.84,0,0,1,27.21-1.45c28.19.47,44.28,11.45,48.15,32.24,4.18,22.44,3.91,22.77-25.15,29.32-8.66,1.95-17.35,3.82-26.36,5.79,0-6.92.4-13.27-.08-19.59-1-12.52-10.16-17.5-26.77-14.91-29.53,4.59-41.88,32-20.91,48.2,11.67,9,25.91,16.18,38.33,24.7,10.26,7.06,21.28,14,28.93,22.55,21.06,23.44,16.4,47.76-1.74,70.6-25.63,32.25-74.94,42.86-115.21,37.71-24.59-3.06-39.52-16.22-41.89-36.14-.86-7.28-.34-14.66,0-22,.07-1.53,1.64-4.07,3.28-4.49C783.2,368.56,799.84,364.79,816.73,360.87Z"/><path class="h" d="M2267.13,699.88c0,8.4-.66,15.75.18,23,.93,8.09,4,15.85,16.16,18.78,11,2.62,26.26-1.23,33.93-8.18,14.07-12.76,13.5-34.13-2.54-45.79-12.44-9-26.36-17-39.67-25.37-4.56-2.87-9.29-5.63-13.87-8.49-24.74-15.48-27.83-35.35-20.27-57,11.83-33.86,43.64-51.38,88.28-57.72a174.54,174.54,0,0,1,27.21-1.45c28.19.47,44.28,11.44,48.15,32.23,4.18,22.44,3.91,22.78-25.15,29.33-8.66,1.94-17.35,3.81-26.36,5.78,0-6.91.4-13.27-.08-19.59-1-12.52-10.16-17.49-26.77-14.91-29.53,4.6-41.88,32-20.91,48.2,11.67,9,25.91,16.18,38.33,24.71,10.26,7.06,21.28,14,28.93,22.55,21.06,23.43,16.4,47.75-1.74,70.59-25.63,32.25-74.94,42.86-115.21,37.72-24.59-3.06-39.52-16.23-41.89-36.14-.86-7.29-.34-14.67,0-22,.07-1.53,1.64-4.07,3.28-4.48C2233.6,707.56,2250.24,703.8,2267.13,699.88Z"/><path class="i" d="M956.16,422.37c3.78-16.94,7.25-32.71,10.81-48.47,13.44-59.41,27-118.8,40.23-178.22.85-3.79,2.65-5.1,7.68-5.52,31.84-2.73,63.63-5.82,95.49-8.45a112.53,112.53,0,0,1,21,.49c25.71,2.71,39.83,13.36,41.94,32.42,2.25,20.26-2.48,39.79-16,57.63-17.85,23.45-47.29,33.89-81.75,38-9.77,1.17-19.64,1.93-29.5,2.63-4.87.36-6.92,1.76-7.75,5.56-6.85,31.24-14.11,62.45-21,93.69-.73,3.29-1.83,5.06-6.92,5.44C992.78,418.88,975.25,420.64,956.16,422.37Zm90-138c14.34-2.11,26.92-3.52,39.16-5.88,10.87-2.11,18.56-7.56,23-15.31a69.35,69.35,0,0,0,9.19-36.12c-.12-9.32-6.35-14-19-14-10.62,0-21.22,1.35-31.86,1.84-4.34.2-5.51,1.63-6.08,4.59-1.58,8.2-3.73,16.35-5.57,24.49-2.8,12.92-5.61,25.81-8.82,40.38Z"/><path class="j" d="M1355.31,159.76c-2.09,9.07-4.25,17.42-5.8,25.82-.59,3.18-2.46,4-6.43,4.38-20.46,1.73-40.86,4-61.36,5.37-8.13.57-11.35,2.68-12.5,8.79-3.37,17.77-7.75,35.45-11.7,53.16-.29,1.67-.51,3.38-.67,5.09l60.17-5.12c-1.58,7.51-3.75,14.58-4.36,21.73-.58,6.87-5.15,8.77-13.58,9.18-14.55.82-29,2.27-43.49,3.8-2.43.25-6.22,2-6.56,3.38-5.61,23.39-10.78,46.83-16,70.26a12.88,12.88,0,0,0,.15,2.86l77.1-6.82c-1.21,5.65-2.36,10.82-3.42,16-2.74,13.51-2.75,13.33-20.64,14.89-37,3.22-74,6.66-111,10-2.78.25-5.58.37-9.32.6,3.44-15.38,6.71-30.17,10-44.94q19.89-88.24,39.83-176.52c2.72-12,0-9.58,15.2-11q59.77-5.43,119.54-10.92C1351.73,159.66,1353,159.76,1355.31,159.76Z"/><path class="k" d="M1912.59,668.45l61.08-5.39c-2.15,9.58-4,18.47-6.33,27.27-.32,1.2-3.39,2.62-5.39,2.84-16.52,1.68-33.12,3.06-49.62,4.77-2.6.28-6.6,2.18-7,3.72-5.61,23.18-10.74,46.43-15.94,69.65a17.37,17.37,0,0,0,0,3.06l77.48-6.89c-2.14,9.57-4,18.6-6.38,27.55-.25.94-3.11,2-4.9,2.13-43.94,4-87.9,7.91-133.15,12,2.06-9.54,3.93-18.59,6-27.56q22.55-99.67,45-199.35c.72-3.17,2.08-4.69,6.62-5.08q63.68-5.61,127.31-11.45c1-.1,2,0,4.11,0l-6.59,29.52c-23.25,2.12-46.2,4.34-69.21,6.13-5.76.46-8.52,1.53-9.48,6.27C1922.09,627.67,1917.32,647.57,1912.59,668.45Z"/><path class="l" d="M1581.73,698.62l59-5.21-6.6,29.73c-17.61,1.62-34.87,3.49-52.22,4.59-6.37.41-8.09,2.39-9,6.63-7,31.62-14.29,63.21-21.29,94.9-.69,3.06-1.89,4.79-6.46,5.16-17.59,1.41-35.14,3.06-54.09,4.68,2-9.37,3.79-18.23,5.79-27.08,14.89-65.82,29.91-131.76,44.56-197.67,1.13-5.06,3.32-6.9,10.45-7.5,40.4-3.37,80.73-7.24,121.09-10.93,1.22-.1,2.48,0,4.51,0-2,9.19-3.73,17.91-6.15,26.54-.37,1.29-4,2.73-6.36,3q-28.31,2.8-56.68,5.1c-11.71,1-11.83.84-13.8,9.42-4.24,18.46-8.37,36.94-12.51,55.42A25.14,25.14,0,0,0,1581.73,698.62Z"/><path class="m" d="M1843.15,580.65c-2.07,9.55-3.64,18.36-6.19,26.91-.42,1.4-5.11,2.71-8,3.06q-30.23,3.06-60.55,5.48c-4.87.41-6.89,1.64-7.7,5.52-4.25,20.41-9.06,40.75-13.9,62.1l59.74-5.22c-2.19,9.69-4.13,18.91-6.58,28-.26,1-3.46,2-5.44,2.18-15.77,1.53-31.55,3.06-47.37,4.21-5.26.4-7.47,1.67-8.37,5.8-6.93,31.84-14.32,63.61-21.4,95.44-.66,3-1.42,5-6.24,5.32-17.61,1.4-35.19,3.06-53.85,4.67a41.63,41.63,0,0,1,.49-5.71q19.85-88,39.79-176c3.41-15,6.61-30.1,10.35-45.1.46-1.87,3.4-4.6,5.57-4.84C1756.12,588.39,1798.81,584.63,1843.15,580.65Z"/><path class="n" d="M1988.54,102.31,1943,304.36l78.27-7C2019,307,2017,316.05,2014.62,325c-.22.85-2.61,1.83-4.12,2-44.18,4.06-88.39,8-133.86,12.11,2.43-11,4.68-21.43,7-31.76,14.42-64,29-128,43.16-192,1.28-5.79,3.61-8.37,12.33-8.75C1955.19,105.94,1971.12,103.92,1988.54,102.31Z"/><path class="o" d="M1557.3,367.94c3.47-15.44,6.73-30.06,10-44.68q20.06-88.86,40.09-177.72c2-8.76,1.79-8.91,13.81-10.06,15.43-1.53,30.9-2.76,47.26-4.19-3.77,16.73-7.35,32.68-11,48.61q-20.1,89.13-40.15,178.37c-.72,3.21-2.09,4.73-6.54,5.08C1593.42,364.7,1576.11,366.29,1557.3,367.94Z"/><path class="b" d="M2084.1,656.52c4-17.83,7.53-33.67,11.07-49.39,1.33-5.9,2.44-11.83,4.18-17.67a6.53,6.53,0,0,1,4.49-3.69c10.59-.82,21.28-1.77,31.89-1.53,12.68.26,19,4.89,20.22,14.39,1.74,14-1.35,27.66-12.62,39.13-5.08,5.15-13.19,9.65-21.22,12C2110.73,653.08,2098.16,654.15,2084.1,656.52Z"/><path class="b" d="M1331.8,800.1c2.65-12.09,6-27.9,9.61-43.69,5.58-24.75,11.17-49.5,17-74.2a57.72,57.72,0,0,1,5-13.37c7.58-14.6,24.78-22.05,45.84-20.22,10.43.92,16.26,4.31,16.43,12.13a117.42,117.42,0,0,1-3.06,27.55c-7.5,34.47-15.44,68.88-23.53,103.3a48.53,48.53,0,0,1-6.24,14.27c-7.81,12.66-28,19.9-46.22,17C1335.73,821.15,1331.49,815.79,1331.8,800.1Z"/><path class="b" d="M1786.79,267.58l-42.73,3.81,41.45-92.9,1.28.14Z"/><path class="b" d="M1046.18,284.37c3.21-14.57,6-27.46,8.9-40.35,1.84-8.17,4-16.32,5.57-24.49.57-3,1.74-4.41,6.08-4.59,10.64-.49,21.24-1.84,31.86-1.84,12.61,0,18.84,4.67,19,14a69.35,69.35,0,0,1-9.19,36.12c-4.46,7.77-12.15,13.21-23,15.31C1073.1,280.85,1060.52,282.26,1046.18,284.37Z"/></svg>