<?xml version="1.0" standalone="no"?>
<!DOCTYPE svg PUBLIC "-//W3C//DTD SVG 20010904//EN"
 "http://www.w3.org/TR/2001/REC-SVG-20010904/DTD/svg10.dtd">
<svg version="1.0" xmlns="http://www.w3.org/2000/svg"
 width="256.000000pt" height="143.000000pt" viewBox="0 0 256.000000 143.000000"
 preserveAspectRatio="xMidYMid meet">

<g transform="translate(0.000000,143.000000) scale(0.100000,-0.100000)"
fill="#000000" stroke="none">
<path d="M11 709 l1 -709 1274 0 1274 0 0 710 0 709 -1275 0 -1274 0 0 -710z
m1069 541 c90 -26 131 -110 94 -192 -12 -27 -15 -43 -8 -45 36 -12 48 -32 52
-91 4 -59 4 -61 -26 -76 -22 -11 -56 -16 -116 -15 -47 0 -89 -2 -94 -5 -6 -3
-13 2 -17 12 -11 26 -22 131 -14 134 3 2 2 56 -2 121 -10 135 -5 154 44 160
17 2 37 4 42 5 6 1 26 -3 45 -8z m212 -32 c17 -25 34 -344 21 -364 -11 -14
-48 -23 -62 -15 -16 10 -26 368 -10 387 17 20 35 17 51 -8z m295 -13 c74 -48
76 -50 69 -73 -10 -29 -41 -28 -78 3 -16 14 -38 25 -48 25 -32 0 -70 -19 -70
-35 0 -8 -4 -15 -10 -15 -10 0 -5 -153 5 -171 4 -5 13 -9 21 -9 8 0 14 -4 14
-9 0 -25 94 -20 104 5 11 30 -5 43 -57 46 -49 3 -52 5 -55 32 -2 16 1 33 6 38
14 14 171 11 188 -3 19 -15 18 -51 -3 -116 -15 -47 -23 -58 -57 -75 -30 -15
-50 -19 -85 -14 -38 5 -54 15 -109 71 -63 64 -64 67 -69 128 -2 34 -1 80 4
102 7 35 15 43 62 68 68 34 118 35 168 2z m-1187 -229 c0 -11 -19 -15 -25 -6
-3 5 1 10 9 10 9 0 16 -2 16 -4z m226 -21 c-3 -8 3 -19 13 -25 25 -13 34 -50
13 -50 -10 0 -25 -7 -36 -15 -11 -8 -24 -11 -35 -6 -9 5 -30 13 -47 18 -29 9
-33 8 -43 -13 -6 -13 -16 -24 -22 -24 -6 0 -9 3 -7 8 23 48 32 62 39 62 4 0
20 11 36 24 40 34 100 48 89 21z m294 1 c0 -2 -7 -7 -16 -10 -8 -3 -12 -2 -9
4 6 10 25 14 25 6z m-110 -37 c0 -6 -4 -7 -10 -4 -5 3 -10 11 -10 16 0 6 5 7
10 4 6 -3 10 -11 10 -16z m60 -15 c0 0 -8 -8 -18 -17 -16 -15 -18 -15 -18 3 0
12 7 18 18 17 10 -1 18 -2 18 -3z m25 -25 c4 -5 0 -18 -9 -28 -9 -10 -16 -23
-16 -29 0 -7 -8 -12 -17 -11 -11 0 -13 3 -5 6 6 2 9 9 6 14 -3 6 -3 21 0 35 7
25 30 32 41 13z m-380 -69 c3 -5 1 -10 -4 -10 -6 0 -11 5 -11 10 0 6 2 10 4
10 3 0 8 -4 11 -10z m65 -80 c0 -5 10 -10 22 -10 20 0 20 -1 5 -18 -21 -23
-21 -32 0 -32 41 0 -1 -10 -78 -19 -68 -8 -87 -7 -98 4 -19 19 0 41 40 47 32
5 27 -8 -5 -14 -38 -6 -28 -26 12 -25 29 2 41 7 49 24 9 17 8 20 -5 15 -10 -4
-13 -1 -8 7 5 7 17 11 27 8 10 -3 18 -2 17 2 -1 14 2 21 12 21 6 0 10 -4 10
-10z m180 -14 c0 -3 -4 -8 -10 -11 -5 -3 -10 -1 -10 4 0 6 5 11 10 11 6 0 10
-2 10 -4z m325 -6 c65 -10 117 -31 113 -48 0 -4 2 -15 7 -25 4 -10 3 -29 -4
-43 -6 -14 -11 -26 -11 -28 0 -2 18 -6 40 -10 22 -3 40 -11 40 -17 0 -5 6 -7
13 -3 9 5 9 4 0 -6 -9 -10 -16 -9 -34 4 -26 17 -74 22 -84 7 -6 -11 47 -51 69
-51 9 0 16 -4 16 -9 0 -14 -60 -41 -92 -41 -35 0 -35 -10 -3 -48 30 -36 31
-65 6 -125 -17 -40 -25 -46 -82 -67 -76 -29 -156 -31 -216 -5 -37 16 -41 21
-45 57 -4 39 -3 40 25 34 21 -4 26 -2 21 7 -6 9 -4 9 7 2 48 -35 160 -48 186
-22 15 14 14 18 -1 42 -9 14 -23 28 -29 29 -7 2 -37 9 -67 16 -116 26 -175 71
-186 142 -11 65 72 156 180 199 51 21 47 21 131 9z m597 -7 c10 -9 18 -30 18
-49 0 -43 -31 -124 -59 -155 -44 -48 -48 -54 -55 -82 -4 -16 -9 -49 -11 -73
-4 -34 -1 -44 10 -44 8 0 15 3 15 8 0 4 10 12 23 17 16 8 30 34 53 103 18 52
37 99 42 104 17 17 78 0 96 -27 16 -24 15 -27 -15 -71 -17 -25 -38 -48 -47
-52 -18 -6 -41 -32 -42 -44 0 -5 10 -8 23 -8 15 0 41 20 75 56 40 42 57 54 72
49 18 -6 19 -7 2 -43 -9 -20 -23 -43 -30 -50 -7 -8 -9 -19 -5 -25 3 -7 3 -9
-2 -5 -4 4 -20 1 -36 -7 -31 -16 -106 -20 -127 -6 -9 5 -28 1 -50 -12 -32 -17
-42 -18 -79 -8 -38 10 -43 15 -43 41 0 17 -4 30 -9 30 -6 0 -31 -18 -56 -40
-25 -22 -58 -43 -73 -46 -15 -3 -41 -9 -58 -14 -44 -11 -73 14 -90 80 -14 53
-13 55 13 92 35 51 99 108 121 108 10 0 28 7 40 16 20 14 24 14 45 -3 15 -12
22 -28 21 -48 -2 -50 -4 -56 -13 -51 -9 6 -25 -73 -17 -82 8 -7 54 26 70 51 8
12 33 78 56 147 23 68 46 132 51 142 12 23 47 23 71 1z m-982 -3 c-8 -5 -19
-10 -25 -10 -5 0 -3 5 5 10 8 5 20 10 25 10 6 0 3 -5 -5 -10z m77 -42 c-3 -7
-5 -2 -5 12 0 14 2 19 5 13 2 -7 2 -19 0 -25z m-72 2 c-3 -5 -13 -10 -21 -10
-8 0 -12 5 -9 10 3 6 13 10 21 10 8 0 12 -4 9 -10z m1545 0 c0 -5 -5 -10 -11
-10 -5 0 -7 5 -4 10 3 6 8 10 11 10 2 0 4 -4 4 -10z m-1635 -20 c3 -5 2 -10
-4 -10 -5 0 -13 5 -16 10 -3 6 -2 10 4 10 5 0 13 -4 16 -10z m800 0 c3 -5 1
-10 -4 -10 -6 0 -11 5 -11 10 0 6 2 10 4 10 3 0 8 -4 11 -10z m-1258 -6 c-3
-3 -12 -4 -19 -1 -8 3 -5 6 6 6 11 1 17 -2 13 -5z m333 -4 c0 -5 -2 -10 -4
-10 -3 0 -8 5 -11 10 -3 6 -1 10 4 10 6 0 11 -4 11 -10z m55 -20 c-3 -5 -12
-10 -18 -10 -7 0 -6 4 3 10 19 12 23 12 15 0z m188 -33 c5 -35 4 -37 -14 -32
-12 4 -34 -2 -54 -14 -36 -21 -65 -19 -65 4 0 23 30 45 60 45 40 0 60 9 60 28
0 25 7 10 13 -31z m523 6 c-10 -10 -19 5 -10 18 6 11 8 11 12 0 2 -7 1 -15 -2
-18z m234 7 c0 -5 -5 -10 -11 -10 -5 0 -7 5 -4 10 3 6 8 10 11 10 2 0 4 -4 4
-10z m-1102 -36 c-4 -3 -12 5 -18 18 -12 22 -12 22 6 6 10 -10 15 -20 12 -24z
m177 6 c3 -5 1 -10 -4 -10 -6 0 -11 5 -11 10 0 6 2 10 4 10 3 0 8 -4 11 -10z
m-225 -10 c0 -5 -5 -10 -11 -10 -5 0 -7 5 -4 10 3 6 8 10 11 10 2 0 4 -4 4
-10z m1000 0 c0 -5 -5 -10 -11 -10 -5 0 -7 5 -4 10 3 6 8 10 11 10 2 0 4 -4 4
-10z m-840 -121 c0 -6 -4 -7 -10 -4 -5 3 -10 11 -10 16 0 6 5 7 10 4 6 -3 10
-11 10 -16z m-265 -29 c3 -5 1 -10 -4 -10 -6 0 -11 5 -11 10 0 6 2 10 4 10 3
0 8 -4 11 -10z m70 -30 c3 -5 1 -10 -4 -10 -6 0 -11 5 -11 10 0 6 2 10 4 10 3
0 8 -4 11 -10z m489 -31 c-3 -5 -16 1 -29 13 -33 29 -31 33 4 12 17 -10 28
-21 25 -25z m-514 1 c0 -5 -2 -10 -4 -10 -3 0 -8 5 -11 10 -3 6 -1 10 4 10 6
0 11 -4 11 -10z m580 -21 c0 -6 -4 -7 -10 -4 -5 3 -10 11 -10 16 0 6 5 7 10 4
6 -3 10 -11 10 -16z m770 -129 c0 -5 -2 -10 -4 -10 -3 0 -8 5 -11 10 -3 6 -1
10 4 10 6 0 11 -4 11 -10z m-47 -17 c-7 -2 -19 -2 -25 0 -7 3 -2 5 12 5 14 0
19 -2 13 -5z"/>
<path d="M1015 1161 c-11 -19 17 -81 38 -81 10 0 16 4 13 8 -2 4 8 8 22 7 21
0 28 5 30 24 2 13 0 27 -5 31 -14 14 -90 22 -98 11z"/>
<path d="M1041 987 c-5 -5 -4 -23 2 -43 10 -32 13 -34 53 -32 24 0 41 5 38 10
-3 4 0 8 5 8 15 0 14 35 -1 48 -18 13 -86 20 -97 9z"/>
<path d="M985 598 c-59 -30 -77 -54 -54 -69 12 -7 12 -9 0 -9 -11 0 -10 -4 4
-20 21 -23 79 -44 106 -37 10 3 22 1 25 -4 3 -5 14 -9 25 -9 15 0 20 6 17 23
-2 12 4 27 12 34 13 11 12 12 -7 13 -29 0 -44 29 -36 73 5 32 3 36 -15 34 -12
0 -46 -14 -77 -29z m70 -89 c11 -17 -1 -21 -15 -4 -8 9 -8 15 -2 15 6 0 14 -5
17 -11z"/>
<path d="M1140 464 c0 -13 7 -15 32 -10 52 10 58 26 10 26 -32 0 -42 -4 -42
-16z"/>
<path d="M1345 445 c-11 -16 -25 -33 -31 -37 -6 -4 -17 -28 -24 -53 -17 -61
-2 -80 35 -45 30 28 48 82 43 130 l-3 35 -20 -30z"/>
</g>
</svg>
